<svg width="30" height="30" viewBox="0 0 30 30" fill="none" xmlns="http://www.w3.org/2000/svg">
<path fill-rule="evenodd" clip-rule="evenodd" d="M3.41352 29.323C2.63247 30.1039 1.36641 30.104 0.5854 29.323C-0.195448 28.5419 -0.195471 27.2758 0.5854 26.4948L12.1274 14.9528L0.588332 3.41379C-0.192558 2.63272 -0.192665 1.36665 0.588332 0.58566C1.36936 -0.194888 2.63554 -0.195078 3.41646 0.585661L14.9555 12.1247L26.4946 0.585663C27.2756 -0.194884 28.5418 -0.195078 29.3227 0.585663C30.1036 1.36656 30.1033 2.6327 29.3227 3.41379L17.7836 14.9528L29.3256 26.4948C30.1064 27.2758 30.1062 28.5419 29.3256 29.323C28.5446 30.104 27.2786 30.1039 26.4975 29.323L14.9555 17.781L3.41352 29.323Z" fill="#A6A6A6"/>
</svg>
