<svg width="30" height="30" viewBox="0 0 30 30" fill="none" xmlns="http://www.w3.org/2000/svg">
<path d="M25.9189 0.585938C26.6999 -0.195057 27.966 -0.194948 28.7471 0.585938C29.528 1.36699 29.5281 2.63304 28.7471 3.41406L17.4961 14.665L28.75 25.9189C29.531 26.6999 29.5309 27.966 28.75 28.7471C27.969 29.5281 26.7029 29.5281 25.9219 28.7471L14.668 17.4932L3.41406 28.7471C2.63304 29.5281 1.36699 29.528 0.585938 28.7471C-0.194948 27.966 -0.195057 26.6999 0.585938 25.9189L11.8398 14.665L0.588867 3.41406C-0.192181 2.63301 -0.192181 1.36699 0.588867 0.585938C1.36993 -0.194948 2.636 -0.195057 3.41699 0.585938L14.668 11.8369L25.9189 0.585938Z" fill="#3F3F3F"/>
</svg>
