<svg width="30" height="30" viewBox="0 0 30 30" fill="none" xmlns="http://www.w3.org/2000/svg">
<mask id="mask0_158_95593" style="mask-type:alpha" maskUnits="userSpaceOnUse" x="0" y="0" width="30" height="30">
<rect width="30" height="30" fill="#3F3F3F"/>
</mask>
<g mask="url(#mask0_158_95593)">
<path d="M16.25 14.5V10C16.25 9.64583 16.1302 9.34896 15.8906 9.10938C15.651 8.86979 15.3542 8.75 15 8.75C14.6458 8.75 14.349 8.86979 14.1094 9.10938C13.8698 9.34896 13.75 9.64583 13.75 10V14.9688C13.75 15.1354 13.7812 15.2969 13.8438 15.4531C13.9062 15.6094 14 15.75 14.125 15.875L18.25 20C18.4792 20.2292 18.7708 20.3438 19.125 20.3438C19.4792 20.3438 19.7708 20.2292 20 20C20.2292 19.7708 20.3438 19.4792 20.3438 19.125C20.3438 18.7708 20.2292 18.4792 20 18.25L16.25 14.5ZM15 27.5C13.2708 27.5 11.6458 27.1719 10.125 26.5156C8.60417 25.8594 7.28125 24.9688 6.15625 23.8438C5.03125 22.7188 4.14063 21.3958 3.48438 19.875C2.82812 18.3542 2.5 16.7292 2.5 15C2.5 13.2708 2.82812 11.6458 3.48438 10.125C4.14063 8.60417 5.03125 7.28125 6.15625 6.15625C7.28125 5.03125 8.60417 4.14063 10.125 3.48438C11.6458 2.82812 13.2708 2.5 15 2.5C16.7292 2.5 18.3542 2.82812 19.875 3.48438C21.3958 4.14063 22.7188 5.03125 23.8438 6.15625C24.9688 7.28125 25.8594 8.60417 26.5156 10.125C27.1719 11.6458 27.5 13.2708 27.5 15C27.5 16.7292 27.1719 18.3542 26.5156 19.875C25.8594 21.3958 24.9688 22.7188 23.8438 23.8438C22.7188 24.9688 21.3958 25.8594 19.875 26.5156C18.3542 27.1719 16.7292 27.5 15 27.5Z" fill="#3F3F3F"/>
</g>
</svg>
