<svg width="40" height="40" viewBox="0 0 40 40" fill="none" xmlns="http://www.w3.org/2000/svg">
<mask id="mask0_158_130069" style="mask-type:alpha" maskUnits="userSpaceOnUse" x="0" y="0" width="40" height="40">
<rect width="40" height="40" fill="white"/>
</mask>
<g mask="url(#mask0_158_130069)">
<path d="M8.84885 35.8314C8.00691 35.8314 7.29427 35.5397 6.71094 34.9564C6.1276 34.3731 5.83594 33.6604 5.83594 32.8185V10.511C5.83594 9.66904 6.1276 8.95641 6.71094 8.37307C7.29427 7.78974 8.00691 7.49807 8.84885 7.49807H11.1564V5.25432C11.1564 4.88905 11.2787 4.58404 11.5234 4.33932C11.7682 4.09488 12.0732 3.97266 12.4384 3.97266C12.804 3.97266 13.109 4.09488 13.3534 4.33932C13.5982 4.58404 13.7205 4.88905 13.7205 5.25432V7.49807H26.3489V5.22266C26.3489 4.86793 26.4684 4.57085 26.7076 4.33141C26.9471 4.09224 27.2441 3.97266 27.5989 3.97266C27.9536 3.97266 28.2505 4.09224 28.4897 4.33141C28.7291 4.57085 28.8489 4.86793 28.8489 5.22266V7.49807H31.1564C31.9983 7.49807 32.7109 7.78974 33.2943 8.37307C33.8776 8.95641 34.1693 9.66904 34.1693 10.511V32.8185C34.1693 33.6604 33.8776 34.3731 33.2943 34.9564C32.7109 35.5397 31.9983 35.8314 31.1564 35.8314H8.84885ZM8.84885 33.3314H31.1564C31.2847 33.3314 31.4022 33.2779 31.5089 33.171C31.6158 33.0643 31.6693 32.9468 31.6693 32.8185V17.1777H8.33594V32.8185C8.33594 32.9468 8.38941 33.0643 8.49635 33.171C8.60302 33.2779 8.72052 33.3314 8.84885 33.3314ZM20.0026 23.4597C19.5945 23.4597 19.2468 23.316 18.9593 23.0285C18.672 22.7413 18.5284 22.3935 18.5284 21.9852C18.5284 21.5771 18.672 21.2293 18.9593 20.9418C19.2468 20.6546 19.5945 20.511 20.0026 20.511C20.4107 20.511 20.7584 20.6546 21.0459 20.9418C21.3332 21.2293 21.4768 21.5771 21.4768 21.9852C21.4768 22.3935 21.3332 22.7413 21.0459 23.0285C20.7584 23.316 20.4107 23.4597 20.0026 23.4597ZM13.3359 23.4597C12.9279 23.4597 12.5801 23.316 12.2926 23.0285C12.0054 22.7413 11.8618 22.3935 11.8618 21.9852C11.8618 21.5771 12.0054 21.2293 12.2926 20.9418C12.5801 20.6546 12.9279 20.511 13.3359 20.511C13.744 20.511 14.0918 20.6546 14.3793 20.9418C14.6665 21.2293 14.8101 21.5771 14.8101 21.9852C14.8101 22.3935 14.6665 22.7413 14.3793 23.0285C14.0918 23.316 13.744 23.4597 13.3359 23.4597ZM26.6693 23.4597C26.2612 23.4597 25.9134 23.316 25.6259 23.0285C25.3387 22.7413 25.1951 22.3935 25.1951 21.9852C25.1951 21.5771 25.3387 21.2293 25.6259 20.9418C25.9134 20.6546 26.2612 20.511 26.6693 20.511C27.0773 20.511 27.4251 20.6546 27.7126 20.9418C27.9998 21.2293 28.1434 21.5771 28.1434 21.9852C28.1434 22.3935 27.9998 22.7413 27.7126 23.0285C27.4251 23.316 27.0773 23.4597 26.6693 23.4597ZM20.0026 29.9981C19.5945 29.9981 19.2468 29.8543 18.9593 29.5668C18.672 29.2796 18.5284 28.932 18.5284 28.5239C18.5284 28.1156 18.672 27.7678 18.9593 27.4806C19.2468 27.1931 19.5945 27.0493 20.0026 27.0493C20.4107 27.0493 20.7584 27.1931 21.0459 27.4806C21.3332 27.7678 21.4768 28.1156 21.4768 28.5239C21.4768 28.932 21.3332 29.2796 21.0459 29.5668C20.7584 29.8543 20.4107 29.9981 20.0026 29.9981ZM13.3359 29.9981C12.9279 29.9981 12.5801 29.8543 12.2926 29.5668C12.0054 29.2796 11.8618 28.932 11.8618 28.5239C11.8618 28.1156 12.0054 27.7678 12.2926 27.4806C12.5801 27.1931 12.9279 27.0493 13.3359 27.0493C13.744 27.0493 14.0918 27.1931 14.3793 27.4806C14.6665 27.7678 14.8101 28.1156 14.8101 28.5239C14.8101 28.932 14.6665 29.2796 14.3793 29.5668C14.0918 29.8543 13.744 29.9981 13.3359 29.9981ZM26.6693 29.9981C26.2612 29.9981 25.9134 29.8543 25.6259 29.5668C25.3387 29.2796 25.1951 28.932 25.1951 28.5239C25.1951 28.1156 25.3387 27.7678 25.6259 27.4806C25.9134 27.1931 26.2612 27.0493 26.6693 27.0493C27.0773 27.0493 27.4251 27.1931 27.7126 27.4806C27.9998 27.7678 28.1434 28.1156 28.1434 28.5239C28.1434 28.932 27.9998 29.2796 27.7126 29.5668C27.4251 29.8543 27.0773 29.9981 26.6693 29.9981Z" fill="black"/>
</g>
</svg>
