<svg width="40" height="40" viewBox="0 0 40 40" fill="none" xmlns="http://www.w3.org/2000/svg">
<mask id="mask0_158_144343" style="mask-type:alpha" maskUnits="userSpaceOnUse" x="0" y="0" width="40" height="40">
<rect width="40" height="40" fill="white"/>
</mask>
<g mask="url(#mask0_158_144343)">
<path d="M16.6667 31.668C16.1944 31.668 15.7986 31.5082 15.4792 31.1888C15.1597 30.8694 15 30.4735 15 30.0013C15 29.5291 15.1597 29.1332 15.4792 28.8138C15.7986 28.4944 16.1944 28.3346 16.6667 28.3346H33.3333C33.8056 28.3346 34.2014 28.4944 34.5208 28.8138C34.8403 29.1332 35 29.5291 35 30.0013C35 30.4735 34.8403 30.8694 34.5208 31.1888C34.2014 31.5082 33.8056 31.668 33.3333 31.668H16.6667ZM16.6667 21.668C16.1944 21.668 15.7986 21.5082 15.4792 21.1888C15.1597 20.8694 15 20.4735 15 20.0013C15 19.5291 15.1597 19.1332 15.4792 18.8138C15.7986 18.4944 16.1944 18.3346 16.6667 18.3346H33.3333C33.8056 18.3346 34.2014 18.4944 34.5208 18.8138C34.8403 19.1332 35 19.5291 35 20.0013C35 20.4735 34.8403 20.8694 34.5208 21.1888C34.2014 21.5082 33.8056 21.668 33.3333 21.668H16.6667ZM16.6667 11.668C16.1944 11.668 15.7986 11.5082 15.4792 11.1888C15.1597 10.8694 15 10.4735 15 10.0013C15 9.52908 15.1597 9.13325 15.4792 8.8138C15.7986 8.49436 16.1944 8.33464 16.6667 8.33464H33.3333C33.8056 8.33464 34.2014 8.49436 34.5208 8.8138C34.8403 9.13325 35 9.52908 35 10.0013C35 10.4735 34.8403 10.8694 34.5208 11.1888C34.2014 11.5082 33.8056 11.668 33.3333 11.668H16.6667ZM8.33333 33.3346C7.41667 33.3346 6.63194 33.0082 5.97917 32.3555C5.32639 31.7027 5 30.918 5 30.0013C5 29.0846 5.32639 28.2999 5.97917 27.6471C6.63194 26.9944 7.41667 26.668 8.33333 26.668C9.25 26.668 10.0347 26.9944 10.6875 27.6471C11.3403 28.2999 11.6667 29.0846 11.6667 30.0013C11.6667 30.918 11.3403 31.7027 10.6875 32.3555C10.0347 33.0082 9.25 33.3346 8.33333 33.3346ZM8.33333 23.3346C7.41667 23.3346 6.63194 23.0082 5.97917 22.3555C5.32639 21.7027 5 20.918 5 20.0013C5 19.0846 5.32639 18.2999 5.97917 17.6471C6.63194 16.9944 7.41667 16.668 8.33333 16.668C9.25 16.668 10.0347 16.9944 10.6875 17.6471C11.3403 18.2999 11.6667 19.0846 11.6667 20.0013C11.6667 20.918 11.3403 21.7027 10.6875 22.3555C10.0347 23.0082 9.25 23.3346 8.33333 23.3346ZM8.33333 13.3346C7.41667 13.3346 6.63194 13.0082 5.97917 12.3555C5.32639 11.7027 5 10.918 5 10.0013C5 9.08464 5.32639 8.29991 5.97917 7.64714C6.63194 6.99436 7.41667 6.66797 8.33333 6.66797C9.25 6.66797 10.0347 6.99436 10.6875 7.64714C11.3403 8.29991 11.6667 9.08464 11.6667 10.0013C11.6667 10.918 11.3403 11.7027 10.6875 12.3555C10.0347 13.0082 9.25 13.3346 8.33333 13.3346Z" fill="black"/>
</g>
</svg>
