<svg width="29" height="29" viewBox="0 0 29 29" fill="none" xmlns="http://www.w3.org/2000/svg">
<mask id="mask0_158_177775" style="mask-type:alpha" maskUnits="userSpaceOnUse" x="0" y="0" width="29" height="29">
<rect width="29" height="29" fill="#D9D9D9"/>
</mask>
<g mask="url(#mask0_158_177775)">
<path d="M14.5 25.9788C12.9912 25.9788 11.7077 25.4498 10.6496 24.3917C9.59155 23.3336 9.0625 22.0501 9.0625 20.5413C9.0625 19.6212 9.27587 18.7684 9.70261 17.983C10.1296 17.1976 10.7217 16.5477 11.4792 16.0334V6.04134C11.4792 5.19712 11.7716 4.48259 12.3564 3.89776C12.9413 3.31292 13.6558 3.02051 14.5 3.02051C15.3442 3.02051 16.0588 3.31292 16.6436 3.89776C17.2284 4.48259 17.5208 5.19712 17.5208 6.04134V16.0334C18.2783 16.5477 18.8704 17.1976 19.2974 17.983C19.7241 18.7684 19.9375 19.6212 19.9375 20.5413C19.9375 22.0501 19.4085 23.3336 18.3504 24.3917C17.2923 25.4498 16.0088 25.9788 14.5 25.9788ZM13.2917 13.5236H15.7083V12.0132H14.5V10.9445H15.7083V8.38823H14.5V7.31946H15.7083V6.04134C15.7083 5.69898 15.5925 5.412 15.3609 5.1804C15.1293 4.94881 14.8424 4.83301 14.5 4.83301C14.1576 4.83301 13.8707 4.94881 13.6391 5.1804C13.4075 5.412 13.2917 5.69898 13.2917 6.04134V13.5236Z" fill="white"/>
</g>
</svg>
