<svg width="20" height="20" viewBox="0 0 20 20" fill="none" xmlns="http://www.w3.org/2000/svg">
<circle cx="10" cy="10" r="10" fill="#1B2F2C"/>
<path d="M10.0026 3.33203C10.3708 3.33203 10.6693 3.63051 10.6693 3.9987V5.9987C10.6693 6.36688 10.3708 6.66536 10.0026 6.66536C9.6344 6.66536 9.33594 6.36688 9.33594 5.9987V3.9987C9.33594 3.63051 9.6344 3.33203 10.0026 3.33203ZM10.0026 13.332C10.3708 13.332 10.6693 13.6305 10.6693 13.9987V15.9987C10.6693 16.3669 10.3708 16.6654 10.0026 16.6654C9.6344 16.6654 9.33594 16.3669 9.33594 15.9987V13.9987C9.33594 13.6305 9.6344 13.332 10.0026 13.332ZM16.6693 9.9987C16.6693 10.3669 16.3708 10.6654 16.0026 10.6654H14.0026C13.6344 10.6654 13.3359 10.3669 13.3359 9.9987C13.3359 9.6305 13.6344 9.33203 14.0026 9.33203H16.0026C16.3708 9.33203 16.6693 9.6305 16.6693 9.9987ZM6.66927 9.9987C6.66927 10.3669 6.37079 10.6654 6.0026 10.6654H4.0026C3.63442 10.6654 3.33594 10.3669 3.33594 9.9987C3.33594 9.6305 3.63442 9.33203 4.0026 9.33203H6.0026C6.37079 9.33203 6.66927 9.6305 6.66927 9.9987ZM14.7167 14.7128C14.4563 14.9731 14.0342 14.9731 13.7739 14.7128L12.3596 13.2985C12.0993 13.0382 12.0993 12.6161 12.3596 12.3557C12.62 12.0954 13.0421 12.0954 13.3024 12.3557L14.7167 13.77C14.977 14.0303 14.977 14.4524 14.7167 14.7128ZM7.64558 7.64168C7.38523 7.90202 6.96312 7.90202 6.70277 7.64168L5.28856 6.22746C5.02821 5.96711 5.02821 5.545 5.28856 5.28465C5.54891 5.0243 5.97102 5.0243 6.23137 5.28465L7.64558 6.69886C7.90593 6.95922 7.90593 7.38132 7.64558 7.64168ZM5.28856 14.7128C5.02821 14.4524 5.02821 14.0303 5.28856 13.77L6.70277 12.3557C6.96312 12.0954 7.38523 12.0954 7.64558 12.3557C7.90593 12.6161 7.90593 13.0382 7.64558 13.2985L6.23137 14.7128C5.97102 14.9731 5.54891 14.9731 5.28856 14.7128ZM12.3596 7.64168C12.0993 7.38132 12.0993 6.95922 12.3596 6.69886L13.7739 5.28465C14.0342 5.0243 14.4563 5.0243 14.7167 5.28465C14.977 5.545 14.977 5.96711 14.7167 6.22746L13.3024 7.64168C13.0421 7.90202 12.62 7.90202 12.3596 7.64168Z" fill="#3AEFCE"/>
</svg>
