<svg width="30" height="30" viewBox="0 0 30 30" fill="none" xmlns="http://www.w3.org/2000/svg">
<mask id="mask0_158_95596" style="mask-type:alpha" maskUnits="userSpaceOnUse" x="0" y="0" width="30" height="30">
<rect width="30" height="30" fill="#3F3F3F"/>
</mask>
<g mask="url(#mask0_158_95596)">
<path d="M3.75 26.25C3.39583 26.25 3.09896 26.1302 2.85938 25.8906C2.61979 25.651 2.5 25.3542 2.5 25C2.5 24.6458 2.61979 24.349 2.85938 24.1094C3.09896 23.8698 3.39583 23.75 3.75 23.75H26.25C26.6042 23.75 26.901 23.8698 27.1406 24.1094C27.3802 24.349 27.5 24.6458 27.5 25C27.5 25.3542 27.3802 25.651 27.1406 25.8906C26.901 26.1302 26.6042 26.25 26.25 26.25H3.75ZM5.625 22.5C5.10417 22.5 4.66146 22.3177 4.29688 21.9531C3.93229 21.5885 3.75 21.1458 3.75 20.625V15.625C3.75 15.1042 3.93229 14.6615 4.29688 14.2969C4.66146 13.9323 5.10417 13.75 5.625 13.75C6.14583 13.75 6.58854 13.9323 6.95312 14.2969C7.31771 14.6615 7.5 15.1042 7.5 15.625V20.625C7.5 21.1458 7.31771 21.5885 6.95312 21.9531C6.58854 22.3177 6.14583 22.5 5.625 22.5ZM11.875 22.5C11.3542 22.5 10.9115 22.3177 10.5469 21.9531C10.1823 21.5885 10 21.1458 10 20.625V9.375C10 8.85417 10.1823 8.41146 10.5469 8.04688C10.9115 7.68229 11.3542 7.5 11.875 7.5C12.3958 7.5 12.8385 7.68229 13.2031 8.04688C13.5677 8.41146 13.75 8.85417 13.75 9.375V20.625C13.75 21.1458 13.5677 21.5885 13.2031 21.9531C12.8385 22.3177 12.3958 22.5 11.875 22.5ZM18.125 22.5C17.6042 22.5 17.1615 22.3177 16.7969 21.9531C16.4323 21.5885 16.25 21.1458 16.25 20.625V13.125C16.25 12.6042 16.4323 12.1615 16.7969 11.7969C17.1615 11.4323 17.6042 11.25 18.125 11.25C18.6458 11.25 19.0885 11.4323 19.4531 11.7969C19.8177 12.1615 20 12.6042 20 13.125V20.625C20 21.1458 19.8177 21.5885 19.4531 21.9531C19.0885 22.3177 18.6458 22.5 18.125 22.5ZM24.375 22.5C23.8542 22.5 23.4115 22.3177 23.0469 21.9531C22.6823 21.5885 22.5 21.1458 22.5 20.625V5.625C22.5 5.10417 22.6823 4.66146 23.0469 4.29688C23.4115 3.93229 23.8542 3.75 24.375 3.75C24.8958 3.75 25.3385 3.93229 25.7031 4.29688C26.0677 4.66146 26.25 5.10417 26.25 5.625V20.625C26.25 21.1458 26.0677 21.5885 25.7031 21.9531C25.3385 22.3177 24.8958 22.5 24.375 22.5Z" fill="#3F3F3F"/>
</g>
</svg>
