<svg width="29" height="29" viewBox="0 0 29 29" fill="none" xmlns="http://www.w3.org/2000/svg">
<mask id="mask0_158_177784" style="mask-type:alpha" maskUnits="userSpaceOnUse" x="0" y="0" width="29" height="29">
<rect width="29" height="29" fill="#D9D9D9"/>
</mask>
<g mask="url(#mask0_158_177784)">
<path d="M9.06283 4.22949C10.1177 4.22949 11.1146 4.47619 12.0535 4.9696C12.9923 5.463 13.808 6.17058 14.5003 7.09234C15.1927 6.17058 16.0083 5.463 16.9472 4.9696C17.8861 4.47619 18.8829 4.22949 19.9378 4.22949C21.6527 4.22949 23.0884 4.80768 24.2449 5.96405C25.4013 7.12063 25.9795 8.55633 25.9795 10.2712C25.9795 10.3874 25.9745 10.4996 25.9644 10.608C25.9543 10.7165 25.9454 10.8289 25.9375 10.9451H24.1253C24.1454 10.8289 24.1574 10.7165 24.1613 10.608C24.1651 10.4996 24.167 10.3874 24.167 10.2712C24.167 9.06283 23.7642 8.05588 22.9587 7.25033C22.1531 6.44477 21.1462 6.04199 19.9378 6.04199C18.9836 6.04199 18.1018 6.31266 17.2922 6.85399C16.4828 7.39553 15.8419 8.14882 15.3694 9.11388H13.6312C13.1509 8.14097 12.508 7.38576 11.7024 6.84825C10.8969 6.31075 10.017 6.04199 9.06283 6.04199C7.86214 6.04199 6.85711 6.44477 6.04773 7.25033C5.23835 8.05588 4.83366 9.06283 4.83366 10.2712C4.83366 10.3874 4.83557 10.4996 4.8394 10.608C4.84322 10.7165 4.85521 10.8289 4.87535 10.9451H3.06315C3.05529 10.8289 3.04633 10.7165 3.03626 10.608C3.02619 10.4996 3.02116 10.3874 3.02116 10.2712C3.02116 8.55633 3.59935 7.12063 4.75572 5.96405C5.9123 4.80768 7.348 4.22949 9.06283 4.22949ZM7.19474 18.0555H9.72982C10.3743 18.6877 11.0869 19.372 11.8677 20.1085C12.6485 20.8452 13.526 21.6543 14.5003 22.5357C15.4746 21.6543 16.3522 20.8452 17.133 20.1085C17.9138 19.372 18.6264 18.6877 19.2708 18.0555H21.8246C21.0825 18.8472 20.2208 19.7094 19.2394 20.642C18.258 21.5744 17.1229 22.6223 15.834 23.7858L14.5003 24.9847L13.1666 23.7858C11.8777 22.6223 10.7456 21.5744 9.7703 20.642C8.79518 19.7094 7.93666 18.8472 7.19474 18.0555ZM13.3524 19.0316C13.5445 19.0316 13.7092 18.9754 13.8463 18.863C13.9833 18.7508 14.0843 18.6048 14.1493 18.425L15.9781 12.9201L17.3142 14.9208C17.4149 15.0664 17.5443 15.1838 17.7024 15.2731C17.8605 15.3621 18.0325 15.4066 18.2184 15.4066H27.4899V13.5941H18.6226L16.4684 10.385C16.3786 10.2503 16.2613 10.1492 16.1165 10.0818C15.9717 10.0145 15.8156 9.98086 15.6482 9.98086C15.4561 9.98086 15.2896 10.0369 15.1486 10.1491C15.0076 10.2615 14.9085 10.4075 14.8513 10.5871L13.0225 16.0851L11.6816 14.0798C11.5809 13.9342 11.4516 13.8168 11.2937 13.7276C11.1356 13.6386 10.9636 13.5941 10.7778 13.5941H1.51074V15.4066H10.3548L12.5205 18.6271C12.6103 18.7697 12.7296 18.8728 12.8784 18.9364C13.0271 18.9999 13.1851 19.0316 13.3524 19.0316Z" fill="white"/>
</g>
</svg>
