<svg width="20" height="20" viewBox="0 0 20 20" fill="none" xmlns="http://www.w3.org/2000/svg">
<circle cx="10" cy="10" r="10" fill="#575757"/>
<path d="M7.1875 11.4609C7.36458 11.4609 7.51302 11.401 7.63281 11.2813C7.7526 11.1615 7.8125 11.013 7.8125 10.8359C7.8125 10.6589 7.7526 10.5104 7.63281 10.3906C7.51302 10.2708 7.36458 10.2109 7.1875 10.2109C7.01042 10.2109 6.86198 10.2708 6.74219 10.3906C6.6224 10.5104 6.5625 10.6589 6.5625 10.8359C6.5625 11.013 6.6224 11.1615 6.74219 11.2813C6.86198 11.401 7.01042 11.4609 7.1875 11.4609ZM8.125 9.58594C8.30208 9.58594 8.45052 9.52604 8.57031 9.40625C8.6901 9.28646 8.75 9.13802 8.75 8.96094C8.75 8.78385 8.6901 8.63542 8.57031 8.51562C8.45052 8.39583 8.30208 8.33594 8.125 8.33594C7.94792 8.33594 7.79948 8.39583 7.67969 8.51562C7.5599 8.63542 7.5 8.78385 7.5 8.96094C7.5 9.13802 7.5599 9.28646 7.67969 9.40625C7.79948 9.52604 7.94792 9.58594 8.125 9.58594ZM8.125 13.3359C8.30208 13.3359 8.45052 13.276 8.57031 13.1562C8.6901 13.0365 8.75 12.888 8.75 12.7109C8.75 12.5339 8.6901 12.3854 8.57031 12.2656C8.45052 12.1458 8.30208 12.0859 8.125 12.0859C7.94792 12.0859 7.79948 12.1458 7.67969 12.2656C7.5599 12.3854 7.5 12.5339 7.5 12.7109C7.5 12.888 7.5599 13.0365 7.67969 13.1562C7.79948 13.276 7.94792 13.3359 8.125 13.3359ZM9.0625 11.4609C9.23958 11.4609 9.38802 11.401 9.50781 11.2813C9.6276 11.1615 9.6875 11.013 9.6875 10.8359C9.6875 10.6589 9.6276 10.5104 9.50781 10.3906C9.38802 10.2708 9.23958 10.2109 9.0625 10.2109C8.88542 10.2109 8.73698 10.2708 8.61719 10.3906C8.4974 10.5104 8.4375 10.6589 8.4375 10.8359C8.4375 11.013 8.4974 11.1615 8.61719 11.2813C8.73698 11.401 8.88542 11.4609 9.0625 11.4609ZM9.0625 7.71094C9.23958 7.71094 9.38802 7.65104 9.50781 7.53125C9.6276 7.41146 9.6875 7.26302 9.6875 7.08594C9.6875 6.90885 9.6276 6.76042 9.50781 6.64062C9.38802 6.52083 9.23958 6.46094 9.0625 6.46094C8.88542 6.46094 8.73698 6.52083 8.61719 6.64062C8.4974 6.76042 8.4375 6.90885 8.4375 7.08594C8.4375 7.26302 8.4974 7.41146 8.61719 7.53125C8.73698 7.65104 8.88542 7.71094 9.0625 7.71094ZM10 9.58594C10.1771 9.58594 10.3255 9.52604 10.4453 9.40625C10.5651 9.28646 10.625 9.13802 10.625 8.96094C10.625 8.78385 10.5651 8.63542 10.4453 8.51562C10.3255 8.39583 10.1771 8.33594 10 8.33594C9.82292 8.33594 9.67448 8.39583 9.55469 8.51562C9.4349 8.63542 9.375 8.78385 9.375 8.96094C9.375 9.13802 9.4349 9.28646 9.55469 9.40625C9.67448 9.52604 9.82292 9.58594 10 9.58594ZM10 13.3359C10.1771 13.3359 10.3255 13.276 10.4453 13.1562C10.5651 13.0365 10.625 12.888 10.625 12.7109C10.625 12.5339 10.5651 12.3854 10.4453 12.2656C10.3255 12.1458 10.1771 12.0859 10 12.0859C9.82292 12.0859 9.67448 12.1458 9.55469 12.2656C9.4349 12.3854 9.375 12.5339 9.375 12.7109C9.375 12.888 9.4349 13.0365 9.55469 13.1562C9.67448 13.276 9.82292 13.3359 10 13.3359ZM10.9375 11.4609C11.1146 11.4609 11.263 11.401 11.3828 11.2813C11.5026 11.1615 11.5625 11.013 11.5625 10.8359C11.5625 10.6589 11.5026 10.5104 11.3828 10.3906C11.263 10.2708 11.1146 10.2109 10.9375 10.2109C10.7604 10.2109 10.612 10.2708 10.4922 10.3906C10.3724 10.5104 10.3125 10.6589 10.3125 10.8359C10.3125 11.013 10.3724 11.1615 10.4922 11.2813C10.612 11.401 10.7604 11.4609 10.9375 11.4609ZM10.9375 7.71094C11.1146 7.71094 11.263 7.65104 11.3828 7.53125C11.5026 7.41146 11.5625 7.26302 11.5625 7.08594C11.5625 6.90885 11.5026 6.76042 11.3828 6.64062C11.263 6.52083 11.1146 6.46094 10.9375 6.46094C10.7604 6.46094 10.612 6.52083 10.4922 6.64062C10.3724 6.76042 10.3125 6.90885 10.3125 7.08594C10.3125 7.26302 10.3724 7.41146 10.4922 7.53125C10.612 7.65104 10.7604 7.71094 10.9375 7.71094ZM11.875 9.58594C12.0521 9.58594 12.2005 9.52604 12.3203 9.40625C12.4401 9.28646 12.5 9.13802 12.5 8.96094C12.5 8.78385 12.4401 8.63542 12.3203 8.51562C12.2005 8.39583 12.0521 8.33594 11.875 8.33594C11.6979 8.33594 11.5495 8.39583 11.4297 8.51562C11.3099 8.63542 11.25 8.78385 11.25 8.96094C11.25 9.13802 11.3099 9.28646 11.4297 9.40625C11.5495 9.52604 11.6979 9.58594 11.875 9.58594ZM11.875 13.3359C12.0521 13.3359 12.2005 13.276 12.3203 13.1562C12.4401 13.0365 12.5 12.888 12.5 12.7109C12.5 12.5339 12.4401 12.3854 12.3203 12.2656C12.2005 12.1458 12.0521 12.0859 11.875 12.0859C11.6979 12.0859 11.5495 12.1458 11.4297 12.2656C11.3099 12.3854 11.25 12.5339 11.25 12.7109C11.25 12.888 11.3099 13.0365 11.4297 13.1562C11.5495 13.276 11.6979 13.3359 11.875 13.3359ZM12.8125 11.4609C12.9896 11.4609 13.138 11.401 13.2578 11.2813C13.3776 11.1615 13.4375 11.013 13.4375 10.8359C13.4375 10.6589 13.3776 10.5104 13.2578 10.3906C13.138 10.2708 12.9896 10.2109 12.8125 10.2109C12.6354 10.2109 12.487 10.2708 12.3672 10.3906C12.2474 10.5104 12.1875 10.6589 12.1875 10.8359C12.1875 11.013 12.2474 11.1615 12.3672 11.2813C12.487 11.401 12.6354 11.4609 12.8125 11.4609ZM10 15.8359C8.57292 15.8359 7.38281 15.3464 6.42969 14.3672C5.47656 13.388 5 12.1693 5 10.7109C5 9.66927 5.41406 8.53646 6.24219 7.3125C7.07031 6.08854 8.32292 4.76302 10 3.33594C11.6771 4.76302 12.9297 6.08854 13.7578 7.3125C14.5859 8.53646 15 9.66927 15 10.7109C15 12.1693 14.5234 13.388 13.5703 14.3672C12.6172 15.3464 11.4271 15.8359 10 15.8359ZM10 14.5859C11.0833 14.5859 11.9792 14.2188 12.6875 13.4844C13.3958 12.75 13.75 11.8255 13.75 10.7109C13.75 9.95052 13.4349 9.09115 12.8047 8.13281C12.1745 7.17448 11.2396 6.1276 10 4.99219C8.76042 6.1276 7.82552 7.17448 7.19531 8.13281C6.5651 9.09115 6.25 9.95052 6.25 10.7109C6.25 11.8255 6.60417 12.75 7.3125 13.4844C8.02083 14.2188 8.91667 14.5859 10 14.5859Z" fill="white"/>
</svg>
