<svg width="62" height="62" viewBox="0 0 62 62" fill="none" xmlns="http://www.w3.org/2000/svg">
<g opacity="0.12">
<circle cx="31" cy="31" r="29.5" stroke="white" stroke-width="3"/>
<mask id="path-2-inside-1_158_59982" fill="white">
<path d="M31 0C32.0632 0 33.1138 0.0537114 34.1494 0.158203C27.3111 8.57617 23.211 19.3083 23.2109 30.999C23.2109 42.6902 27.3117 53.4225 34.1504 61.8408C33.1144 61.9454 32.0635 62 31 62C30.8219 62 30.6442 61.9962 30.4668 61.9932C24.0245 53.3408 20.2109 42.6155 20.2109 30.999C20.211 19.3833 24.0232 8.65787 30.4648 0.00585938C30.6429 0.0028457 30.8212 0 31 0Z"/>
</mask>
<path d="M31 0C32.0632 0 33.1138 0.0537114 34.1494 0.158203C27.3111 8.57617 23.211 19.3083 23.2109 30.999C23.2109 42.6902 27.3117 53.4225 34.1504 61.8408C33.1144 61.9454 32.0635 62 31 62C30.8219 62 30.6442 61.9962 30.4668 61.9932C24.0245 53.3408 20.2109 42.6155 20.2109 30.999C20.211 19.3833 24.0232 8.65787 30.4648 0.00585938C30.6429 0.0028457 30.8212 0 31 0Z" fill="black"/>
<path d="M34.1494 0.158203L36.4779 2.04977L39.9856 -2.26817L34.4506 -2.82664L34.1494 0.158203ZM23.2109 30.999L20.2109 30.999V30.999H23.2109ZM34.1504 61.8408L34.4517 64.8257L39.9865 64.267L36.4789 59.9492L34.1504 61.8408ZM30.4668 61.9932L28.0605 63.7848L28.9414 64.9679L30.4162 64.9927L30.4668 61.9932ZM20.2109 30.999L17.2109 30.999V30.999H20.2109ZM30.4648 0.00585938L30.4141 -2.99371L28.9393 -2.96875L28.0585 -1.7857L30.4648 0.00585938ZM31 0V3C31.962 3 32.9122 3.0486 33.8482 3.14305L34.1494 0.158203L34.4506 -2.82664C33.3154 -2.94118 32.1643 -3 31 -3V0ZM34.1494 0.158203L31.8209 -1.73336C24.5643 7.19946 20.211 18.5942 20.2109 30.999L23.2109 30.999L26.2109 30.999C26.211 20.0224 30.0578 9.95289 36.4779 2.04977L34.1494 0.158203ZM23.2109 30.999H20.2109C20.2109 43.4044 24.565 54.7993 31.8219 63.7324L34.1504 61.8408L36.4789 59.9492C30.0583 52.0457 26.2109 41.976 26.2109 30.999H23.2109ZM34.1504 61.8408L33.8491 58.856C32.9111 58.9507 31.9607 59 31 59V62V65C32.1663 65 33.3178 64.9401 34.4517 64.8257L34.1504 61.8408ZM31 62V59C30.8548 59 30.7146 58.9969 30.5174 58.9936L30.4668 61.9932L30.4162 64.9927C30.5738 64.9954 30.789 65 31 65V62ZM30.4668 61.9932L32.873 60.2015C26.8029 52.0491 23.2109 41.948 23.2109 30.999H20.2109H17.2109C17.2109 43.283 21.246 54.6326 28.0605 63.7848L30.4668 61.9932ZM20.2109 30.999L23.2109 30.999C23.211 20.0505 26.8018 9.94938 32.8712 1.79742L30.4648 0.00585938L28.0585 -1.7857C21.2446 7.36636 17.211 18.716 17.2109 30.999L20.2109 30.999ZM30.4648 0.00585938L30.5156 3.00543C30.695 3.00239 30.8498 3 31 3V0V-3C30.7927 -3 30.5908 -2.9967 30.4141 -2.99371L30.4648 0.00585938Z" fill="white" mask="url(#path-2-inside-1_158_59982)"/>
<mask id="path-4-inside-2_158_59982" fill="white">
<path d="M31 0C31.6474 0 32.2901 0.0214267 32.9277 0.0605469C39.3454 8.70324 43.1435 19.4072 43.1436 30.999L43.1387 31.6709C42.9951 43.0052 39.2189 53.4626 32.9248 61.9385C32.2882 61.9775 31.6465 62 31 62C30.3697 62 29.744 61.9785 29.123 61.9414C36.0108 53.5082 40.1436 42.7366 40.1436 30.999C40.1435 19.2617 36.0107 8.49058 29.123 0.0576172C29.744 0.0205315 30.3697 0 31 0Z"/>
</mask>
<path d="M31 0C31.6474 0 32.2901 0.0214267 32.9277 0.0605469C39.3454 8.70324 43.1435 19.4072 43.1436 30.999L43.1387 31.6709C42.9951 43.0052 39.2189 53.4626 32.9248 61.9385C32.2882 61.9775 31.6465 62 31 62C30.3697 62 29.744 61.9785 29.123 61.9414C36.0108 53.5082 40.1436 42.7366 40.1436 30.999C40.1435 19.2617 36.0107 8.49058 29.123 0.0576172C29.744 0.0205315 30.3697 0 31 0Z" fill="black"/>
<path d="M32.9277 0.0605469L35.3363 -1.72795L34.5044 -2.84836L33.1115 -2.93382L32.9277 0.0605469ZM43.1436 30.999L46.1435 31.0208L46.1436 31.0099V30.999L43.1436 30.999ZM43.1387 31.6709L46.1384 31.7089L46.1385 31.7008L46.1386 31.6927L43.1387 31.6709ZM32.9248 61.9385L33.1083 64.9329L34.5013 64.8475L35.3334 63.727L32.9248 61.9385ZM29.123 61.9414L26.7995 60.0437L23.0893 64.5864L28.9442 64.9361L29.123 61.9414ZM40.1436 30.999H43.1436V30.999L40.1436 30.999ZM29.123 0.0576172L28.9442 -2.93705L23.0893 -2.58736L26.7995 1.95533L29.123 0.0576172ZM31 0V3C31.5813 3 32.1625 3.01924 32.744 3.05492L32.9277 0.0605469L33.1115 -2.93382C32.4178 -2.97639 31.7136 -3 31 -3V0ZM32.9277 0.0605469L30.5191 1.84904C36.5661 9.99248 40.1435 20.0735 40.1436 30.999L43.1436 30.999L46.1436 30.999C46.1435 18.741 42.1247 7.414 35.3363 -1.72795L32.9277 0.0605469ZM43.1436 30.999L40.1436 30.9772L40.1388 31.6491L43.1387 31.6709L46.1386 31.6927L46.1435 31.0208L43.1436 30.999ZM43.1387 31.6709L40.1389 31.6329C40.0036 42.3143 36.4471 52.1631 30.5163 60.1499L32.9248 61.9385L35.3334 63.727C41.9906 54.762 45.9866 43.696 46.1384 31.7089L43.1387 31.6709ZM32.9248 61.9385L32.7414 58.9441C32.1569 58.9799 31.577 59 31 59V62V65C31.7159 65 32.4194 64.9751 33.1083 64.9329L32.9248 61.9385ZM31 62V59C30.4377 59 29.8723 58.9808 29.3019 58.9467L29.123 61.9414L28.9442 64.9361C29.6157 64.9762 30.3017 65 31 65V62ZM29.123 61.9414L31.4466 63.8391C38.7556 54.8902 43.1436 43.4535 43.1436 30.999H40.1436H37.1436C37.1436 42.0196 33.2661 52.1262 26.7995 60.0437L29.123 61.9414ZM40.1436 30.999L43.1436 30.999C43.1435 18.5447 38.7554 7.10858 31.4466 -1.8401L29.123 0.0576172L26.7995 1.95533C33.2659 9.87259 37.1435 19.9787 37.1436 30.999L40.1436 30.999ZM29.123 0.0576172L29.3019 3.05228C29.869 3.01841 30.4348 3 31 3V0V-3C30.3047 -3 29.619 -2.97735 28.9442 -2.93705L29.123 0.0576172Z" fill="white" mask="url(#path-4-inside-2_158_59982)"/>
<path d="M4.33594 15.6094H57.6646" stroke="white" stroke-width="3"/>
<path d="M0 31L62 31" stroke="white" stroke-width="3"/>
<path d="M4.33594 46.6094H57.6646" stroke="white" stroke-width="3"/>
</g>
</svg>
