<svg width="50" height="50" viewBox="0 0 50 50" fill="none" xmlns="http://www.w3.org/2000/svg">
<mask id="mask0_421_60196" style="mask-type:alpha" maskUnits="userSpaceOnUse" x="13" y="13" width="24" height="24">
<rect x="13.333" y="13.3335" width="23.3333" height="23.3333" fill="#626262"/>
</mask>
<g mask="url(#mask0_421_60196)">
<path d="M25.0003 34.9547C23.758 34.9547 22.5935 34.7189 21.5069 34.2474C20.4204 33.7758 19.4745 33.1374 18.6692 32.3321C17.864 31.5269 17.2257 30.581 16.7542 29.4944C16.2826 28.408 16.0469 27.2454 16.0469 26.0068C16.0469 25.6965 16.1536 25.4347 16.367 25.2213C16.5805 25.0077 16.8425 24.9009 17.1528 24.9009C17.4631 24.9009 17.725 25.0077 17.9386 25.2213C18.152 25.4347 18.2587 25.6965 18.2587 26.0068C18.2587 27.8834 18.9131 29.4751 20.2221 30.7821C21.5312 32.0893 23.1239 32.7429 25.0003 32.7429C26.8767 32.7429 28.4694 32.0883 29.7785 30.7792C31.0875 29.4703 31.7419 27.8776 31.7419 26.0012C31.7419 24.1247 31.0865 22.5329 29.7756 21.2259C28.4647 19.9189 26.871 19.2654 24.9945 19.2654H24.8428L25.5936 20.0162C25.7958 20.2183 25.8939 20.4558 25.8877 20.7286C25.8816 21.0015 25.7835 21.239 25.5936 21.4413C25.3914 21.6435 25.1489 21.7477 24.8661 21.7538C24.5832 21.76 24.3407 21.662 24.1384 21.4597L21.6177 18.9388C21.396 18.7173 21.2852 18.4575 21.2852 18.1595C21.2852 17.8614 21.396 17.6015 21.6177 17.38L24.1384 14.8591C24.3407 14.6568 24.5832 14.5588 24.8661 14.565C25.1489 14.5713 25.3914 14.6774 25.5936 14.8834C25.7835 15.0856 25.8806 15.3241 25.8848 15.5989C25.889 15.8736 25.79 16.112 25.5878 16.3142L24.8486 17.0536H24.9945C26.2368 17.0536 27.4013 17.2893 28.4879 17.7607C29.5744 18.2322 30.5212 18.8706 31.3285 19.6759C32.1356 20.4811 32.7749 21.426 33.2465 22.5107C33.718 23.5952 33.9538 24.7587 33.9538 26.0012C33.9538 27.2436 33.718 28.408 33.2465 29.4944C32.7749 30.581 32.1366 31.5269 31.3314 32.3321C30.5261 33.1374 29.5802 33.7758 28.4938 34.2474C27.4071 34.7189 26.2427 34.9547 25.0003 34.9547Z" fill="black"/>
</g>
</svg>
