<svg width="80" height="80" viewBox="0 0 80 80" fill="none" xmlns="http://www.w3.org/2000/svg">
<path d="M26.5079 44C25.5432 44 24.7175 43.6572 24.0307 42.9716C23.3436 42.2864 23 41.4625 23 40.5C23 39.5375 23.3436 38.7136 24.0307 38.0284C24.7175 37.3428 25.5432 37 26.5079 37C27.4726 37 28.2985 37.3428 28.9857 38.0284C29.6725 38.7136 30.0159 39.5375 30.0159 40.5C30.0159 41.4625 29.6725 42.2864 28.9857 42.9716C28.2985 43.6572 27.4726 44 26.5079 44ZM40 44C39.0353 44 38.2096 43.6572 37.5228 42.9716C36.8357 42.2864 36.4921 41.4625 36.4921 40.5C36.4921 39.5375 36.8357 38.7136 37.5228 38.0284C38.2096 37.3428 39.0353 37 40 37C40.9647 37 41.7904 37.3428 42.4772 38.0284C43.1643 38.7136 43.5079 39.5375 43.5079 40.5C43.5079 41.4625 43.1643 42.2864 42.4772 42.9716C41.7904 43.6572 40.9647 44 40 44ZM53.4921 44C52.5274 44 51.7015 43.6572 51.0143 42.9716C50.3275 42.2864 49.9841 41.4625 49.9841 40.5C49.9841 39.5375 50.3275 38.7136 51.0143 38.0284C51.7015 37.3428 52.5274 37 53.4921 37C54.4568 37 55.2825 37.3428 55.9693 38.0284C56.6564 38.7136 57 39.5375 57 40.5C57 41.4625 56.6564 42.2864 55.9693 42.9716C55.2825 43.6572 54.4568 44 53.4921 44Z" fill="black"/>
</svg>
