<svg width="66" height="66" viewBox="0 0 66 66" fill="none" xmlns="http://www.w3.org/2000/svg">
<mask id="mask0_158_63419" style="mask-type:alpha" maskUnits="userSpaceOnUse" x="0" y="0" width="66" height="66">
<rect width="66" height="66" fill="#D9D9D9"/>
<rect x="0.5" y="0.5" width="65" height="65" stroke="url(#paint0_linear_158_63419)" stroke-opacity="0.62"/>
</mask>
<g mask="url(#mask0_158_63419)">
<path d="M27.1078 43.6033L24.1673 40.6629C25.1591 39.6678 25.9369 38.5144 26.5007 37.2027C27.064 35.8914 27.3456 34.4894 27.3456 32.9966C27.3456 31.5038 27.064 30.1024 26.5007 28.7925C25.9369 27.4826 25.1591 26.3308 24.1673 25.3371L27.1078 22.3967C28.4511 23.7401 29.514 25.3252 30.2964 27.1521C31.0792 28.979 31.4706 30.9304 31.4706 33.0062C31.4706 35.082 31.0792 37.0313 30.2964 38.8541C29.514 40.6769 28.4511 42.2599 27.1078 43.6033ZM12.4062 54.3125V11.6875H16.5306V28.1875C17.8492 28.2054 18.9767 28.6832 19.9131 29.6209C20.849 30.5587 21.3169 31.686 21.3169 33.0028C21.3169 34.3195 20.849 35.4459 19.9131 36.3818C18.9767 37.3177 17.8492 37.7946 16.5306 37.8125V54.3125H12.4062Z" fill="#65C84D"/>
<path d="M16.5176 11.7002V28.2002H16.5303C17.8456 28.218 18.9702 28.6944 19.9043 29.6299C20.8378 30.5653 21.3047 31.6895 21.3047 33.0029C21.3046 34.3163 20.8378 35.4395 19.9043 36.373C18.9702 37.3067 17.8456 37.782 16.5303 37.7998H16.5176V54.2998H12.4189V11.7002H16.5176ZM27.1064 22.4141C28.4448 23.7545 29.5049 25.3353 30.2852 27.1572C31.0672 28.9824 31.458 30.9319 31.458 33.0059C31.458 35.08 31.0673 37.0284 30.2852 38.8496C29.505 40.667 28.4445 42.2447 27.1064 43.585L24.1836 40.6621C25.1724 39.668 25.949 38.5172 26.5117 37.208C27.0757 35.8951 27.3584 34.4905 27.3584 32.9961C27.3583 31.5019 27.0757 30.0985 26.5117 28.7871C25.9489 27.4795 25.1726 26.3298 24.1836 25.3369L27.1064 22.4141Z" stroke="url(#paint1_linear_158_63419)" stroke-opacity="0.62" stroke-width="0.025"/>
<g opacity="0.5">
<path d="M34.2686 50.7616L31.3281 47.8212C33.2394 45.9104 34.7459 43.6875 35.8477 41.1524C36.9491 38.6179 37.4998 35.8997 37.4998 32.998C37.4998 30.0963 36.9491 27.3781 35.8477 24.8436C34.7459 22.3085 33.2394 20.0856 31.3281 18.1748L34.2686 15.2344C36.5323 17.4903 38.3241 20.1431 39.6441 23.1929C40.9646 26.2426 41.6248 29.511 41.6248 32.998C41.6248 36.485 40.9646 39.7534 39.6441 42.8031C38.3241 45.8529 36.5323 48.5057 34.2686 50.7616Z" fill="#65C84D"/>
<path d="M34.2676 15.252C36.5262 17.5049 38.315 20.1536 39.6328 23.1982C40.9524 26.2462 41.6123 29.5128 41.6123 32.998C41.6123 36.4833 40.9525 39.7498 39.6328 42.7979C38.3151 45.8423 36.526 48.4903 34.2676 50.7432L31.3447 47.8203C33.253 45.9103 34.7586 43.6898 35.8594 41.1572C36.9614 38.6211 37.5127 35.9013 37.5127 32.998C37.5127 30.0948 36.9614 27.375 35.8594 24.8389C34.7585 22.3061 33.2532 20.0849 31.3447 18.1748L34.2676 15.252Z" stroke="url(#paint2_linear_158_63419)" stroke-opacity="0.62" stroke-width="0.025"/>
</g>
<g opacity="0.3">
<path d="M41.4561 57.9503L38.5156 55.0099C41.3646 52.1613 43.5999 48.8604 45.2215 45.1071C46.8431 41.3543 47.6539 37.3185 47.6539 32.9996C47.6539 28.6807 46.8431 24.6448 45.2215 20.892C43.5999 17.1387 41.3646 13.8378 38.5156 10.9893L41.4561 8.04883C44.6575 11.2503 47.1784 14.9811 49.0186 19.2413C50.8588 23.502 51.7789 28.0881 51.7789 32.9996C51.7789 37.9111 50.8588 42.4972 49.0186 46.7578C47.1784 51.018 44.6575 54.7489 41.4561 57.9503Z" fill="#65C84D"/>
<path d="M41.4551 8.06641C44.6514 11.2648 47.1688 14.9911 49.0068 19.2461C50.8463 23.5051 51.7666 28.0901 51.7666 33C51.7665 37.9097 50.8463 42.494 49.0068 46.7529C47.1689 51.0077 44.6512 54.7333 41.4551 57.9316L38.5322 55.0088C41.3781 52.1611 43.6129 48.8631 45.2334 45.1123C46.8556 41.3579 47.666 37.3203 47.666 33C47.666 28.6795 46.8557 24.6412 45.2334 20.8867C43.6128 17.1357 41.3784 13.837 38.5322 10.9893L41.4551 8.06641Z" stroke="url(#paint3_linear_158_63419)" stroke-opacity="0.62" stroke-width="0.025"/>
</g>
</g>
<defs>
<linearGradient id="paint0_linear_158_63419" x1="3.26048" y1="-2.4984e-07" x2="37.6773" y2="52.6068" gradientUnits="userSpaceOnUse">
<stop stop-color="#65C84D"/>
<stop offset="1" stop-color="#65C84D" stop-opacity="0.5"/>
</linearGradient>
<linearGradient id="paint1_linear_158_63419" x1="14.3513" y1="8.04926" x2="42.26" y2="41.7068" gradientUnits="userSpaceOnUse">
<stop stop-color="#65C84D"/>
<stop offset="1" stop-color="#65C84D" stop-opacity="0.5"/>
</linearGradient>
<linearGradient id="paint2_linear_158_63419" x1="14.3513" y1="8.04724" x2="42.26" y2="41.7048" gradientUnits="userSpaceOnUse">
<stop stop-color="#65C84D"/>
<stop offset="1" stop-color="#65C84D" stop-opacity="0.5"/>
</linearGradient>
<linearGradient id="paint3_linear_158_63419" x1="14.3513" y1="8.04883" x2="42.26" y2="41.7064" gradientUnits="userSpaceOnUse">
<stop stop-color="#65C84D"/>
<stop offset="1" stop-color="#65C84D" stop-opacity="0.5"/>
</linearGradient>
</defs>
</svg>
