<svg width="24" height="24" viewBox="0 0 24 24" fill="none" xmlns="http://www.w3.org/2000/svg">
<mask id="mask0_158_59997" style="mask-type:alpha" maskUnits="userSpaceOnUse" x="0" y="0" width="24" height="24">
<rect width="24" height="24" fill="#D9D9D9"/>
</mask>
<g mask="url(#mask0_158_59997)">
<path d="M6.57506 17.3885L11.9596 19.827C12.0622 19.8653 12.1584 19.8557 12.2481 19.798C12.3379 19.7403 12.3828 19.657 12.3828 19.548V6.602C12.3828 6.53783 12.3651 6.48008 12.3298 6.42875C12.2945 6.37758 12.248 6.33917 12.1903 6.3135L6.38281 4V17.3885H6.57506ZM6.01581 19.0625C5.67198 18.9272 5.39715 18.7087 5.19131 18.407C4.98565 18.1052 4.88281 17.7657 4.88281 17.3885V4.01925C4.88281 3.59742 5.03056 3.23875 5.32606 2.94325C5.62156 2.64775 5.98023 2.5 6.40206 2.5L12.7173 4.91925C13.061 5.05458 13.3411 5.2765 13.5578 5.585C13.7743 5.89333 13.8826 6.2355 13.8826 6.6115V19.548C13.8826 20.1973 13.6181 20.6994 13.0893 21.0543C12.5605 21.4091 11.9971 21.4663 11.3991 21.226L6.01581 19.0625ZM12.3828 18.5V17H17.3058C17.3955 17 17.4691 16.9712 17.5268 16.9135C17.5845 16.8558 17.6133 16.7821 17.6133 16.6923V4.30775C17.6133 4.21792 17.5845 4.14417 17.5268 4.0865C17.4691 4.02883 17.3955 4 17.3058 4H6.40206V2.5H17.3043C17.804 2.5 18.2304 2.677 18.5836 3.031C18.9367 3.385 19.1133 3.81058 19.1133 4.30775V16.6923C19.1133 17.1894 18.9363 17.615 18.5823 17.969C18.2283 18.323 17.8028 18.5 17.3058 18.5H12.3828Z" fill="#878789"/>
</g>
</svg>
