<svg width="30" height="30" viewBox="0 0 30 30" fill="none" xmlns="http://www.w3.org/2000/svg">
<mask id="mask0_158_95599" style="mask-type:alpha" maskUnits="userSpaceOnUse" x="0" y="0" width="30" height="30">
<rect width="30" height="30" fill="#3F3F3F"/>
</mask>
<g mask="url(#mask0_158_95599)">
<path d="M5 25C4.3125 25 3.72396 24.7552 3.23438 24.2656C2.74479 23.776 2.5 23.1875 2.5 22.5V7.5C2.5 6.8125 2.74479 6.22396 3.23438 5.73438C3.72396 5.24479 4.3125 5 5 5H25C25.6875 5 26.276 5.24479 26.7656 5.73438C27.2552 6.22396 27.5 6.8125 27.5 7.5V22.5C27.5 23.1875 27.2552 23.776 26.7656 24.2656C26.276 24.7552 25.6875 25 25 25H5ZM7.5 21.25H22.5C22.8542 21.25 23.151 21.1302 23.3906 20.8906C23.6302 20.651 23.75 20.3542 23.75 20C23.75 19.6458 23.6302 19.349 23.3906 19.1094C23.151 18.8698 22.8542 18.75 22.5 18.75H7.5C7.14583 18.75 6.84896 18.8698 6.60938 19.1094C6.36979 19.349 6.25 19.6458 6.25 20C6.25 20.3542 6.36979 20.651 6.60938 20.8906C6.84896 21.1302 7.14583 21.25 7.5 21.25ZM7.5 16.25H22.5C22.8542 16.25 23.151 16.1302 23.3906 15.8906C23.6302 15.651 23.75 15.3542 23.75 15C23.75 14.6458 23.6302 14.349 23.3906 14.1094C23.151 13.8698 22.8542 13.75 22.5 13.75H7.5C7.14583 13.75 6.84896 13.8698 6.60938 14.1094C6.36979 14.349 6.25 14.6458 6.25 15C6.25 15.3542 6.36979 15.651 6.60938 15.8906C6.84896 16.1302 7.14583 16.25 7.5 16.25ZM7.5 11.25H17.5C17.8542 11.25 18.151 11.1302 18.3906 10.8906C18.6302 10.651 18.75 10.3542 18.75 10C18.75 9.64583 18.6302 9.34896 18.3906 9.10938C18.151 8.86979 17.8542 8.75 17.5 8.75H7.5C7.14583 8.75 6.84896 8.86979 6.60938 9.10938C6.36979 9.34896 6.25 9.64583 6.25 10C6.25 10.3542 6.36979 10.651 6.60938 10.8906C6.84896 11.1302 7.14583 11.25 7.5 11.25Z" fill="#3F3F3F"/>
</g>
</svg>
