<svg width="29" height="29" viewBox="0 0 29 29" fill="none" xmlns="http://www.w3.org/2000/svg">
<mask id="mask0_158_177794" style="mask-type:alpha" maskUnits="userSpaceOnUse" x="0" y="0" width="29" height="29">
<rect width="29" height="29" fill="#D9D9D9"/>
</mask>
<g mask="url(#mask0_158_177794)">
<path d="M14.8483 23.5616C14.5524 23.5616 14.3003 23.4574 14.0919 23.249C13.8836 23.0407 13.7795 22.7886 13.7795 22.4926V17.7523C13.7795 17.4564 13.8836 17.2043 14.0919 16.9959C14.3003 16.7876 14.5524 16.6835 14.8483 16.6835H17.7761C18.0719 16.6835 18.3241 16.7876 18.5325 16.9959C18.7409 17.2043 18.8451 17.4564 18.8451 17.7523V22.4926C18.8451 22.7886 18.7409 23.0407 18.5325 23.249C18.3241 23.4574 18.0719 23.5616 17.7761 23.5616H14.8483ZM15.2201 22.121H17.4045V18.1241H15.2201V22.121ZM20.6576 26.3967V23.3061C20.6576 23.0024 20.7598 22.7483 20.9643 22.5439C21.1687 22.3393 21.4227 22.237 21.7264 22.237H24.3059V20.9592H20.6576V19.5183H24.6775C24.9812 19.5183 25.2352 19.6206 25.4396 19.8252C25.6442 20.0296 25.7465 20.2836 25.7465 20.5873V22.6089C25.7465 22.9126 25.6442 23.1666 25.4396 23.371C25.2352 23.5756 24.9812 23.6779 24.6775 23.6779H22.0983V24.9558H25.7465V26.3967H20.6576ZM11.1302 25.9294C8.7617 25.7018 6.8179 24.7189 5.29882 22.9807C3.77995 21.2425 3.02051 19.1403 3.02051 16.6741C3.02051 14.7996 3.77068 12.745 5.27103 10.5104C6.77138 8.27582 9.04204 5.84103 12.083 3.20605C14.4238 5.22135 16.3087 7.13525 17.7377 8.94775C19.1668 10.7603 20.1361 12.4557 20.6459 14.0342H18.7545C18.2649 12.8199 17.4636 11.5082 16.3505 10.0993C15.2375 8.69018 13.815 7.19638 12.083 5.61789C9.68648 7.81303 7.87901 9.83699 6.66061 11.6898C5.44221 13.5425 4.83301 15.204 4.83301 16.6741C4.83301 18.654 5.41704 20.3293 6.58509 21.7002C7.75315 23.0713 9.2682 23.8707 11.1302 24.0984V25.9294Z" fill="white"/>
</g>
</svg>
