<svg width="32" height="35" viewBox="0 0 32 35" fill="none" xmlns="http://www.w3.org/2000/svg">
<path d="M23 4.55273C28.3292 7.14916 32.002 12.6168 32.002 18.9434L31.9971 19.3564C31.778 28.0021 24.7001 34.9434 16.001 34.9434L15.5879 34.9385C7.07897 34.7228 0.220517 27.8648 0.00488281 19.3564L0 18.9434C0 12.6175 3.67162 7.1495 9 4.55273V9.19922C5.97271 11.3778 4 14.9294 4 18.9434C4 25.5704 9.37272 30.9433 16.001 30.9434C22.6293 30.9434 28.002 25.5705 28.002 18.9434C28.002 14.9285 26.0283 11.3767 23 9.19824V4.55273Z" fill="black"/>
<path d="M16 2L16 11.4127" stroke="black" stroke-width="4" stroke-linecap="round"/>
</svg>
