<svg width="24" height="24" viewBox="0 0 24 24" fill="none" xmlns="http://www.w3.org/2000/svg">
<mask id="mask0_158_60005" style="mask-type:alpha" maskUnits="userSpaceOnUse" x="0" y="0" width="24" height="24">
<rect width="24" height="24" fill="#D9D9D9"/>
</mask>
<g mask="url(#mask0_158_60005)">
<path d="M15.0711 21.0718L14.0018 20.0025C15.0378 18.9667 15.8506 17.7664 16.4403 16.4015C17.03 15.0369 17.3248 13.5693 17.3248 11.9988C17.3248 10.4283 17.03 8.9607 16.4403 7.59603C15.8506 6.2312 15.0378 5.03086 14.0018 3.99503L15.0711 2.92578C16.2352 4.08995 17.1519 5.44661 17.8211 6.99578C18.4902 8.54511 18.8248 10.2128 18.8248 11.9988C18.8248 13.7848 18.4902 15.4524 17.8211 17.0018C17.1519 18.5509 16.2352 19.9076 15.0711 21.0718ZM12.4576 18.4583L11.3883 17.389C12.0833 16.6942 12.6311 15.8859 13.0318 14.964C13.4323 14.0424 13.6326 13.0539 13.6326 11.9988C13.6326 10.9436 13.4323 9.9552 13.0318 9.03353C12.6311 8.1117 12.0833 7.30336 11.3883 6.60853L12.4576 5.53928C13.2807 6.35961 13.9323 7.32428 14.4123 8.43328C14.8925 9.54228 15.1326 10.7308 15.1326 11.9988C15.1326 13.2668 14.8925 14.4553 14.4123 15.5643C13.9323 16.6733 13.2807 17.6379 12.4576 18.4583ZM9.85381 15.8545L8.78456 14.7853C9.14523 14.4234 9.42806 14.004 9.63306 13.527C9.8379 13.0502 9.94031 12.5404 9.94031 11.9975C9.94031 11.4547 9.8379 10.9451 9.63306 10.4688C9.42806 9.99245 9.14523 9.57361 8.78456 9.21228L9.85381 8.14303C10.3423 8.63153 10.7288 9.20795 11.0133 9.87228C11.298 10.5366 11.4403 11.2462 11.4403 12.001C11.4403 12.7559 11.298 13.4647 11.0133 14.1275C10.7288 14.7904 10.3423 15.366 9.85381 15.8545ZM4.50781 19.7488V4.24878H6.00756V10.2488C6.48706 10.2553 6.89706 10.429 7.23756 10.77C7.5779 11.111 7.74806 11.5209 7.74806 11.9998C7.74806 12.4786 7.5779 12.8882 7.23756 13.2285C6.89706 13.5689 6.48706 13.7423 6.00756 13.7488V19.7488H4.50781Z" fill="#878789"/>
</g>
</svg>
