<svg width="29" height="29" viewBox="0 0 29 29" fill="none" xmlns="http://www.w3.org/2000/svg">
<mask id="mask0_158_177804" style="mask-type:alpha" maskUnits="userSpaceOnUse" x="0" y="0" width="29" height="29">
<rect width="29" height="29" fill="#D9D9D9"/>
</mask>
<g mask="url(#mask0_158_177804)">
<path d="M14.5033 19.0309C15.6861 19.0309 16.9641 18.8303 18.3373 18.4292C19.7106 18.0278 21.6001 17.3012 24.0059 16.2493C24.0696 15.9736 24.1122 15.7011 24.1337 15.4316C24.1555 15.1619 24.1663 14.8815 24.1663 14.5903C24.1663 14.3688 24.0808 14.1875 23.9096 14.0465C23.7384 13.9056 23.542 13.8653 23.3205 13.9257C23.0386 14.0264 22.7264 14.1321 22.3841 14.2429C22.0417 14.3537 21.6087 14.5198 21.0851 14.7413C19.6955 15.3254 18.5073 15.7332 17.5205 15.9648C16.5337 16.1964 15.5268 16.3122 14.4997 16.3122C13.4525 16.3122 12.4254 16.1913 11.4184 15.9497C10.4115 15.708 9.18301 15.2952 7.73301 14.7111C7.2094 14.4896 6.80662 14.3285 6.52467 14.2278L5.67884 13.9257C5.45731 13.8452 5.26096 13.8804 5.08978 14.0314C4.9186 14.1825 4.83301 14.3688 4.83301 14.5903C4.83301 14.8815 4.84388 15.1639 4.86563 15.4373C4.88718 15.7106 4.92978 15.9852 4.99341 16.2611C7.00408 17.2044 8.79604 17.9019 10.3693 18.3537C11.9423 18.8052 13.3203 19.0309 14.5033 19.0309ZM14.4945 23.5622C16.4762 23.5622 18.2273 23.1086 19.7478 22.2016C21.2683 21.2945 22.4181 20.0881 23.1973 18.5823C21.3632 19.3661 19.758 19.939 18.3817 20.3009C17.0057 20.6626 15.7116 20.8434 14.4997 20.8434C13.3085 20.8434 11.9824 20.6575 10.5215 20.2858C9.06066 19.9138 7.48127 19.3561 5.78336 18.6125C6.5424 20.1262 7.68337 21.3295 9.20627 22.2224C10.729 23.1156 12.4917 23.5622 14.4945 23.5622ZM14.4997 12.083C13.248 12.083 12.1799 11.6408 11.2952 10.7563C10.4107 9.87156 9.96842 8.80339 9.96842 7.55176C9.96842 6.30013 10.4107 5.23196 11.2952 4.34726C12.1799 3.46276 13.248 3.02051 14.4997 3.02051C15.7513 3.02051 16.8195 3.46276 17.7042 4.34726C18.5887 5.23196 19.0309 6.30013 19.0309 7.55176C19.0309 8.80339 18.5887 9.87156 17.7042 10.7563C16.8195 11.6408 15.7513 12.083 14.4997 12.083ZM14.5018 10.2705C15.2502 10.2705 15.8901 10.0041 16.4215 9.47119C16.9528 8.93832 17.2184 8.2978 17.2184 7.54964C17.2184 6.80128 16.952 6.16137 16.4191 5.6299C15.8862 5.09864 15.2457 4.83301 14.4976 4.83301C13.7492 4.83301 13.1093 5.09945 12.5778 5.63232C12.0466 6.1652 11.7809 6.80581 11.7809 7.55417C11.7809 8.30233 12.0474 8.94215 12.5802 9.47361C13.1131 10.0049 13.7536 10.2705 14.5018 10.2705ZM14.4985 25.3747C11.1284 25.3747 8.37292 24.3755 6.23196 22.3771C4.09099 20.3787 3.02051 17.7831 3.02051 14.5903C3.02051 13.7445 3.35512 13.0694 4.02433 12.5651C4.69355 12.0609 5.42479 11.9389 6.21806 12.1993C6.53364 12.2986 6.86401 12.4128 7.2092 12.5419C7.55438 12.671 7.9637 12.8348 8.43716 13.0334C9.78023 13.5803 10.8911 13.9615 11.7697 14.1767C12.6484 14.392 13.5584 14.4997 14.4997 14.4997C15.4043 14.4997 16.2931 14.3971 17.1662 14.1919C18.0392 13.9866 19.117 13.6145 20.3997 13.0754C20.9682 12.8538 21.4287 12.6745 21.7811 12.5373C22.1335 12.4002 22.4732 12.2813 22.8 12.1806C23.5931 11.9452 24.3212 12.0815 24.9844 12.5896C25.6474 13.0977 25.9788 13.7646 25.9788 14.5903C25.9788 16.1037 25.6802 17.5135 25.0829 18.8195C24.4857 20.1253 23.6705 21.2646 22.6372 22.2375C21.6041 23.2104 20.3892 23.9765 18.9926 24.5358C17.5959 25.095 16.0979 25.3747 14.4985 25.3747Z" fill="white"/>
</g>
</svg>
