<svg width="29" height="29" viewBox="0 0 29 29" fill="none" xmlns="http://www.w3.org/2000/svg">
<mask id="mask0_158_177822" style="mask-type:alpha" maskUnits="userSpaceOnUse" x="0" y="0" width="29" height="29">
<rect width="29" height="29" fill="#D9D9D9"/>
</mask>
<g mask="url(#mask0_158_177822)">
<path d="M6.3444 25.0729C5.41036 25.0729 4.62303 24.7526 3.98241 24.112C3.34179 23.4714 3.02148 22.684 3.02148 21.75V16.7632L6.07736 8.62327C6.32668 7.94318 6.74567 7.39329 7.33433 6.97359C7.92299 6.5537 8.57368 6.34375 9.28639 6.34375C10.1383 6.34375 10.8679 6.63808 11.4753 7.22674C12.0825 7.8154 12.3861 8.53808 12.3861 9.39479V11.084H10.5736V9.39479C10.5736 9.03994 10.4412 8.74481 10.1763 8.50939C9.9113 8.27396 9.60227 8.15625 9.24924 8.15625C8.90828 8.15625 8.60771 8.26198 8.34752 8.47344C8.08712 8.6849 7.89963 8.9471 7.78504 9.26006L4.83398 17.0886V21.75C4.83398 22.178 4.97878 22.5367 5.26838 22.8263C5.55778 23.1157 5.91645 23.2604 6.3444 23.2604H9.9694C10.3893 23.2604 10.746 23.1157 11.0394 22.8263C11.333 22.5367 11.4798 22.178 11.4798 21.75V19.3333H13.2923V21.75C13.2923 22.684 12.967 23.4714 12.3163 24.112C11.6658 24.7526 10.8835 25.0729 9.9694 25.0729H6.3444ZM22.6382 25.0729H19.0132C18.0902 25.0729 17.3057 24.7526 16.6596 24.112C16.0134 23.4714 15.6903 22.684 15.6903 21.75V19.3333H17.5028V21.75C17.5028 22.178 17.6476 22.5367 17.9372 22.8263C18.2265 23.1157 18.5852 23.2604 19.0132 23.2604H22.6382C23.0581 23.2604 23.4148 23.1157 23.7085 22.8263C24.0019 22.5367 24.1486 22.178 24.1486 21.75V17.0886L21.1861 9.26006C21.059 8.9471 20.8684 8.6849 20.6142 8.47344C20.3603 8.26198 20.0667 8.15625 19.7336 8.15625C19.3711 8.15625 19.0598 8.27396 18.7996 8.50939C18.5392 8.74481 18.409 9.03994 18.409 9.39479V11.084H16.5965V9.39479C16.5965 8.53808 16.9002 7.8154 17.5076 7.22674C18.1148 6.63808 18.8444 6.34375 19.6965 6.34375C20.409 6.34375 21.0546 6.5537 21.6331 6.97359C22.2117 7.39329 22.6319 7.94318 22.8937 8.62327L25.9611 16.7632V21.75C25.9611 22.684 25.6358 23.4714 24.9854 24.112C24.3347 24.7526 23.5523 25.0729 22.6382 25.0729ZM14.5007 13.3753L11.359 16.4868L10.0972 15.225L13.5944 11.7278V2.71875H15.4069V11.7278L18.9041 15.225L17.6236 16.4868L14.5007 13.3753Z" fill="white"/>
</g>
</svg>
