<svg width="29" height="29" viewBox="0 0 29 29" fill="none" xmlns="http://www.w3.org/2000/svg">
<mask id="mask0_158_177813" style="mask-type:alpha" maskUnits="userSpaceOnUse" x="0" y="0" width="29" height="29">
<rect width="29" height="29" fill="#D9D9D9"/>
</mask>
<g mask="url(#mask0_158_177813)">
<path d="M14.5003 7.13334C13.8823 7.13334 13.3559 6.91615 12.9213 6.48175C12.4867 6.04715 12.2694 5.52082 12.2694 4.90276C12.2694 4.2847 12.4867 3.75837 12.9213 3.32377C13.3559 2.88917 13.8823 2.67188 14.5003 2.67188C15.1184 2.67188 15.6447 2.88917 16.0793 3.32377C16.5139 3.75837 16.7312 4.2847 16.7312 4.90276C16.7312 5.52082 16.5139 6.04715 16.0793 6.48175C15.6447 6.91615 15.1184 7.13334 14.5003 7.13334ZM11.3635 26.2809V10.526C10.1318 10.4253 8.90715 10.2801 7.68955 10.0904C6.47196 9.90053 5.3186 9.66621 4.22949 9.38749L4.67114 7.57499C6.21861 7.97475 7.82237 8.26444 9.48242 8.44408C11.1423 8.62372 12.8149 8.71354 14.5003 8.71354C16.1857 8.71354 17.8584 8.62372 19.5182 8.44408C21.1783 8.26444 22.782 7.97475 24.3295 7.57499L24.7712 9.38749C23.682 9.66621 22.5287 9.90053 21.3111 10.0904C20.0935 10.2801 18.8689 10.4253 17.6372 10.526V26.2809H15.825V18.8913H13.1757V26.2809H11.3635Z" fill="white"/>
</g>
</svg>
