<svg width="80" height="80" viewBox="0 0 80 80" fill="none" xmlns="http://www.w3.org/2000/svg">
<g opacity="0.7">
<g filter="url(#filter0_f_301_40939)">
<path d="M40.582 10.374C47.9336 10.5589 53.9998 15.8691 55.2881 22.8369C62.4072 23.0691 68.1064 28.8669 68.1064 35.9854C68.1062 43.2508 62.169 49.1404 54.8447 49.1406C54.3879 49.1406 53.9361 49.118 53.4912 49.0732V49.1426H26.9668V49.0918C26.59 49.1237 26.2084 49.1406 25.8232 49.1406C18.4989 49.1404 12.5616 43.2509 12.5615 35.9854C12.5615 28.9674 18.1009 23.2337 25.0791 22.8506C26.3848 15.751 32.6516 10.3691 40.1855 10.3691L40.582 10.374Z" fill="url(#paint0_linear_301_40939)"/>
</g>
<path d="M40.582 10.374C47.9336 10.5589 53.9998 15.8691 55.2881 22.8369C62.4072 23.0691 68.1064 28.8669 68.1064 35.9854C68.1062 43.2508 62.169 49.1404 54.8447 49.1406C54.3879 49.1406 53.9361 49.118 53.4912 49.0732V49.1426H26.9668V49.0918C26.59 49.1237 26.2084 49.1406 25.8232 49.1406C18.4989 49.1404 12.5616 43.2509 12.5615 35.9854C12.5615 28.9674 18.1009 23.2337 25.0791 22.8506C26.3848 15.751 32.6516 10.3691 40.1855 10.3691L40.582 10.374Z" fill="url(#paint1_linear_301_40939)"/>
</g>
<circle opacity="0.2" cx="48.1927" cy="44.9554" r="2.09604" fill="#D9D9D9"/>
<circle opacity="0.2" cx="32.472" cy="44.9554" r="2.09604" fill="#D9D9D9"/>
<circle cx="57.6244" cy="64.8675" r="2.09604" fill="#D9D9D9"/>
<circle cx="40.8558" cy="64.8675" r="2.09604" fill="#D9D9D9"/>
<circle cx="23.0404" cy="64.8675" r="2.09604" fill="#D9D9D9"/>
<circle opacity="0.6" cx="40.8558" cy="52.2894" r="2.09604" fill="#D9D9D9"/>
<circle opacity="0.7" cx="51.3363" cy="57.5306" r="2.09604" fill="#D9D9D9"/>
<circle opacity="0.7" cx="30.3763" cy="57.5306" r="2.09604" fill="#D9D9D9"/>
<circle opacity="0.5" cx="59.722" cy="48.099" r="2.09604" fill="#D9D9D9"/>
<circle opacity="0.5" cx="20.9437" cy="48.099" r="2.09604" fill="#D9D9D9"/>
<defs>
<filter id="filter0_f_301_40939" x="2.56152" y="0.369141" width="75.5449" height="58.7734" filterUnits="userSpaceOnUse" color-interpolation-filters="sRGB">
<feFlood flood-opacity="0" result="BackgroundImageFix"/>
<feBlend mode="normal" in="SourceGraphic" in2="BackgroundImageFix" result="shape"/>
<feGaussianBlur stdDeviation="5" result="effect1_foregroundBlur_301_40939"/>
</filter>
<linearGradient id="paint0_linear_301_40939" x1="40.334" y1="10.3691" x2="40.334" y2="49.1426" gradientUnits="userSpaceOnUse">
<stop stop-color="white"/>
<stop offset="1" stop-color="white" stop-opacity="0"/>
</linearGradient>
<linearGradient id="paint1_linear_301_40939" x1="40.334" y1="10.3691" x2="40.334" y2="49.1426" gradientUnits="userSpaceOnUse">
<stop stop-color="white"/>
<stop offset="1" stop-color="white" stop-opacity="0"/>
</linearGradient>
</defs>
</svg>
