<svg width="86" height="80" viewBox="0 0 86 80" fill="none" xmlns="http://www.w3.org/2000/svg">
<g opacity="0.7">
<g filter="url(#filter0_f_301_40815)">
<path d="M40.6475 15.0723C48.6897 15.2761 55.3259 21.134 56.7314 28.8193C64.5139 29.0783 70.7432 35.469 70.7432 43.3145C70.743 51.3241 64.25 57.8174 56.2402 57.8174C55.7394 57.8174 55.2446 57.7908 54.7568 57.7412V57.8135H25.75V57.7627C25.3392 57.7977 24.9237 57.8174 24.5039 57.8174C16.4942 57.8174 10.0002 51.3241 10 43.3145C10 35.5768 16.0599 29.2548 23.6924 28.834C25.1172 21.0036 31.9723 15.0664 40.2139 15.0664L40.6475 15.0723Z" fill="url(#paint0_linear_301_40815)"/>
</g>
<path d="M40.6475 15.0723C48.6897 15.2761 55.3259 21.134 56.7314 28.8193C64.5139 29.0783 70.7432 35.469 70.7432 43.3145C70.743 51.3241 64.25 57.8174 56.2402 57.8174C55.7394 57.8174 55.2446 57.7908 54.7568 57.7412V57.8135H25.75V57.7627C25.3392 57.7977 24.9237 57.8174 24.5039 57.8174C16.4942 57.8174 10.0002 51.3241 10 43.3145C10 35.5768 16.0599 29.2548 23.6924 28.834C25.1172 21.0036 31.9723 15.0664 40.2139 15.0664L40.6475 15.0723Z" fill="url(#paint1_linear_301_40815)"/>
</g>
<g filter="url(#filter1_f_301_40815)">
<circle cx="45.6592" cy="58.4404" r="8.73732" fill="white"/>
</g>
<circle cx="45.6592" cy="58.4404" r="8.73732" fill="white"/>
<g filter="url(#filter2_f_301_40815)">
<circle cx="57.1511" cy="51.5417" r="10.1169" fill="white"/>
</g>
<circle cx="57.1511" cy="51.5417" r="10.1169" fill="white"/>
<g filter="url(#filter3_f_301_40815)">
<circle cx="66.8145" cy="58.4404" r="8.73732" fill="white"/>
</g>
<circle cx="66.8145" cy="58.4404" r="8.73732" fill="white"/>
<g filter="url(#filter4_f_301_40815)">
<rect x="46.1143" y="57.9805" width="21.1535" height="9.19718" fill="white"/>
</g>
<rect x="46.1143" y="57.9805" width="21.1535" height="9.19718" fill="white"/>
<defs>
<filter id="filter0_f_301_40815" x="0" y="5.06641" width="80.7432" height="62.751" filterUnits="userSpaceOnUse" color-interpolation-filters="sRGB">
<feFlood flood-opacity="0" result="BackgroundImageFix"/>
<feBlend mode="normal" in="SourceGraphic" in2="BackgroundImageFix" result="shape"/>
<feGaussianBlur stdDeviation="5" result="effect1_foregroundBlur_301_40815"/>
</filter>
<filter id="filter1_f_301_40815" x="26.9219" y="39.7031" width="37.4746" height="37.4746" filterUnits="userSpaceOnUse" color-interpolation-filters="sRGB">
<feFlood flood-opacity="0" result="BackgroundImageFix"/>
<feBlend mode="normal" in="SourceGraphic" in2="BackgroundImageFix" result="shape"/>
<feGaussianBlur stdDeviation="5" result="effect1_foregroundBlur_301_40815"/>
</filter>
<filter id="filter2_f_301_40815" x="37.0342" y="31.4248" width="40.2334" height="40.2334" filterUnits="userSpaceOnUse" color-interpolation-filters="sRGB">
<feFlood flood-opacity="0" result="BackgroundImageFix"/>
<feBlend mode="normal" in="SourceGraphic" in2="BackgroundImageFix" result="shape"/>
<feGaussianBlur stdDeviation="5" result="effect1_foregroundBlur_301_40815"/>
</filter>
<filter id="filter3_f_301_40815" x="48.0771" y="39.7031" width="37.4746" height="37.4746" filterUnits="userSpaceOnUse" color-interpolation-filters="sRGB">
<feFlood flood-opacity="0" result="BackgroundImageFix"/>
<feBlend mode="normal" in="SourceGraphic" in2="BackgroundImageFix" result="shape"/>
<feGaussianBlur stdDeviation="5" result="effect1_foregroundBlur_301_40815"/>
</filter>
<filter id="filter4_f_301_40815" x="36.1143" y="47.9805" width="41.1533" height="29.1973" filterUnits="userSpaceOnUse" color-interpolation-filters="sRGB">
<feFlood flood-opacity="0" result="BackgroundImageFix"/>
<feBlend mode="normal" in="SourceGraphic" in2="BackgroundImageFix" result="shape"/>
<feGaussianBlur stdDeviation="5" result="effect1_foregroundBlur_301_40815"/>
</filter>
<linearGradient id="paint0_linear_301_40815" x1="40.3716" y1="15.0664" x2="40.3716" y2="57.8174" gradientUnits="userSpaceOnUse">
<stop stop-color="white"/>
<stop offset="1" stop-color="white" stop-opacity="0"/>
</linearGradient>
<linearGradient id="paint1_linear_301_40815" x1="40.3716" y1="15.0664" x2="40.3716" y2="57.8174" gradientUnits="userSpaceOnUse">
<stop stop-color="white"/>
<stop offset="1" stop-color="white" stop-opacity="0"/>
</linearGradient>
</defs>
</svg>
