<svg width="65" height="56" viewBox="0 0 65 56" fill="none" xmlns="http://www.w3.org/2000/svg">
<g opacity="0.7">
<g filter="url(#filter0_f_301_40680)">
<path d="M30.3936 10.1699C35.9536 10.1699 40.5749 14.1738 41.54 19.4551C46.7945 19.6284 51.001 23.9406 51.001 29.2373C51.0007 34.6436 46.6182 39.0261 41.2119 39.0264C40.8738 39.0264 40.5393 39.0081 40.21 38.9746V39.0234H20.6309V38.9873C20.3536 39.0109 20.0734 39.0264 19.79 39.0264C14.3835 39.0264 10.0002 34.6437 10 29.2373C10 24.0134 14.0918 19.7454 19.2451 19.4629C20.207 14.1777 24.8309 10.1701 30.3936 10.1699Z" fill="url(#paint0_linear_301_40680)"/>
</g>
<path d="M30.3936 10.1699C35.9536 10.1699 40.5749 14.1738 41.54 19.4551C46.7945 19.6284 51.001 23.9406 51.001 29.2373C51.0007 34.6436 46.6182 39.0261 41.2119 39.0264C40.8738 39.0264 40.5393 39.0081 40.21 38.9746V39.0234H20.6309V38.9873C20.3536 39.0109 20.0734 39.0264 19.79 39.0264C14.3835 39.0264 10.0002 34.6437 10 29.2373C10 24.0134 14.0918 19.7454 19.2451 19.4629C20.207 14.1777 24.8309 10.1701 30.3936 10.1699Z" fill="url(#paint1_linear_301_40680)"/>
</g>
<g filter="url(#filter1_f_301_40680)">
<circle cx="34.0686" cy="39.4475" r="5.89769" fill="white"/>
</g>
<circle cx="34.0686" cy="39.4475" r="5.89769" fill="white"/>
<g filter="url(#filter2_f_301_40680)">
<circle cx="41.826" cy="34.7908" r="6.82891" fill="white"/>
</g>
<circle cx="41.826" cy="34.7908" r="6.82891" fill="white"/>
<g filter="url(#filter3_f_301_40680)">
<circle cx="48.3489" cy="39.4475" r="5.89769" fill="white"/>
</g>
<circle cx="48.3489" cy="39.4475" r="5.89769" fill="white"/>
<g filter="url(#filter4_f_301_40680)">
<rect x="34.376" y="39.1367" width="14.2786" height="6.2081" fill="white"/>
</g>
<rect x="34.376" y="39.1367" width="14.2786" height="6.2081" fill="white"/>
<defs>
<filter id="filter0_f_301_40680" x="0" y="0.169922" width="61.001" height="48.8564" filterUnits="userSpaceOnUse" color-interpolation-filters="sRGB">
<feFlood flood-opacity="0" result="BackgroundImageFix"/>
<feBlend mode="normal" in="SourceGraphic" in2="BackgroundImageFix" result="shape"/>
<feGaussianBlur stdDeviation="5" result="effect1_foregroundBlur_301_40680"/>
</filter>
<filter id="filter1_f_301_40680" x="18.1709" y="23.5498" width="31.7949" height="31.7949" filterUnits="userSpaceOnUse" color-interpolation-filters="sRGB">
<feFlood flood-opacity="0" result="BackgroundImageFix"/>
<feBlend mode="normal" in="SourceGraphic" in2="BackgroundImageFix" result="shape"/>
<feGaussianBlur stdDeviation="5" result="effect1_foregroundBlur_301_40680"/>
</filter>
<filter id="filter2_f_301_40680" x="24.9971" y="17.9619" width="33.6582" height="33.6582" filterUnits="userSpaceOnUse" color-interpolation-filters="sRGB">
<feFlood flood-opacity="0" result="BackgroundImageFix"/>
<feBlend mode="normal" in="SourceGraphic" in2="BackgroundImageFix" result="shape"/>
<feGaussianBlur stdDeviation="5" result="effect1_foregroundBlur_301_40680"/>
</filter>
<filter id="filter3_f_301_40680" x="32.4512" y="23.5498" width="31.7949" height="31.7949" filterUnits="userSpaceOnUse" color-interpolation-filters="sRGB">
<feFlood flood-opacity="0" result="BackgroundImageFix"/>
<feBlend mode="normal" in="SourceGraphic" in2="BackgroundImageFix" result="shape"/>
<feGaussianBlur stdDeviation="5" result="effect1_foregroundBlur_301_40680"/>
</filter>
<filter id="filter4_f_301_40680" x="24.376" y="29.1367" width="34.2783" height="26.208" filterUnits="userSpaceOnUse" color-interpolation-filters="sRGB">
<feFlood flood-opacity="0" result="BackgroundImageFix"/>
<feBlend mode="normal" in="SourceGraphic" in2="BackgroundImageFix" result="shape"/>
<feGaussianBlur stdDeviation="5" result="effect1_foregroundBlur_301_40680"/>
</filter>
<linearGradient id="paint0_linear_301_40680" x1="30.5005" y1="10.1699" x2="30.5005" y2="39.0264" gradientUnits="userSpaceOnUse">
<stop stop-color="white"/>
<stop offset="1" stop-color="white" stop-opacity="0"/>
</linearGradient>
<linearGradient id="paint1_linear_301_40680" x1="30.5005" y1="10.1699" x2="30.5005" y2="39.0264" gradientUnits="userSpaceOnUse">
<stop stop-color="white"/>
<stop offset="1" stop-color="white" stop-opacity="0"/>
</linearGradient>
</defs>
</svg>
