<svg width="80" height="80" viewBox="0 0 80 80" fill="none" xmlns="http://www.w3.org/2000/svg">
<g filter="url(#filter0_f_301_40983)">
<path d="M34.4863 52.3312L44.0505 43.3145L38.2187 52.3312L44.0505 56.8395L35.4194 65.6309L40.3181 57.2904L34.4863 52.3312Z" fill="url(#paint0_linear_301_40983)"/>
</g>
<path d="M35.5498 52.3473L44.0513 43.3145L39.0504 52.3312L44.0513 56.8395L35.9279 65.6309L40.5385 57.2904L35.5498 52.3473Z" fill="url(#paint1_linear_301_40983)"/>
<g opacity="0.7">
<g filter="url(#filter1_f_301_40983)">
<path d="M40.584 10.377C48.039 10.5641 54.1911 15.9487 55.4971 23.0146C62.7146 23.2513 68.4921 29.1295 68.4922 36.3467C68.4922 43.7141 62.4719 49.6864 55.0449 49.6865C54.5821 49.6865 54.1246 49.6634 53.6738 49.6182V49.6904H26.7773V49.6367C26.3953 49.6691 26.0087 49.6865 25.6182 49.6865C18.1911 49.6865 12.1699 43.7141 12.1699 36.3467C12.17 29.23 17.7885 23.4148 24.8652 23.0273C26.1894 15.8287 32.5434 10.3721 40.1826 10.3721L40.584 10.377Z" fill="url(#paint2_linear_301_40983)"/>
</g>
<path d="M40.584 10.377C48.039 10.5641 54.1911 15.9487 55.4971 23.0146C62.7146 23.2513 68.4921 29.1295 68.4922 36.3467C68.4922 43.7141 62.4719 49.6864 55.0449 49.6865C54.5821 49.6865 54.1246 49.6634 53.6738 49.6182V49.6904H26.7773V49.6367C26.3953 49.6691 26.0087 49.6865 25.6182 49.6865C18.1911 49.6865 12.1699 43.7141 12.1699 36.3467C12.17 29.23 17.7885 23.4148 24.8652 23.0273C26.1894 15.8287 32.5434 10.3721 40.1826 10.3721L40.584 10.377Z" fill="url(#paint3_linear_301_40983)"/>
</g>
<defs>
<filter id="filter0_f_301_40983" x="24.4863" y="33.3145" width="29.5645" height="42.3164" filterUnits="userSpaceOnUse" color-interpolation-filters="sRGB">
<feFlood flood-opacity="0" result="BackgroundImageFix"/>
<feBlend mode="normal" in="SourceGraphic" in2="BackgroundImageFix" result="shape"/>
<feGaussianBlur stdDeviation="5" result="effect1_foregroundBlur_301_40983"/>
</filter>
<filter id="filter1_f_301_40983" x="2.16992" y="0.37207" width="76.3223" height="59.3184" filterUnits="userSpaceOnUse" color-interpolation-filters="sRGB">
<feFlood flood-opacity="0" result="BackgroundImageFix"/>
<feBlend mode="normal" in="SourceGraphic" in2="BackgroundImageFix" result="shape"/>
<feGaussianBlur stdDeviation="5" result="effect1_foregroundBlur_301_40983"/>
</filter>
<linearGradient id="paint0_linear_301_40983" x1="38.9871" y1="43.3145" x2="38.9871" y2="65.6309" gradientUnits="userSpaceOnUse">
<stop stop-color="white"/>
<stop offset="1" stop-color="#FFE14D"/>
</linearGradient>
<linearGradient id="paint1_linear_301_40983" x1="39.5505" y1="43.3145" x2="39.5505" y2="65.6309" gradientUnits="userSpaceOnUse">
<stop stop-color="white"/>
<stop offset="1" stop-color="#FFE14D"/>
</linearGradient>
<linearGradient id="paint2_linear_301_40983" x1="40.3311" y1="10.3721" x2="40.3311" y2="49.6906" gradientUnits="userSpaceOnUse">
<stop stop-color="white"/>
<stop offset="1" stop-color="white" stop-opacity="0"/>
</linearGradient>
<linearGradient id="paint3_linear_301_40983" x1="40.3311" y1="10.3721" x2="40.3311" y2="49.6906" gradientUnits="userSpaceOnUse">
<stop stop-color="white"/>
<stop offset="1" stop-color="white" stop-opacity="0"/>
</linearGradient>
</defs>
</svg>
