<svg width="57" height="60" viewBox="0 0 57 60" fill="none" xmlns="http://www.w3.org/2000/svg">
<g opacity="0.7">
<g filter="url(#filter0_f_267_39990)">
<path d="M28.3701 10C33.3778 10 37.5399 13.5762 38.4111 18.2939C43.1466 18.4471 46.9385 22.3014 46.9385 27.0361C46.9384 31.868 42.9891 35.7852 38.1182 35.7852C37.8149 35.7851 37.5151 35.7699 37.2197 35.7402V35.7861H19.5801V35.75C19.3293 35.7713 19.0757 35.7842 18.8193 35.7842C13.9484 35.7842 10 31.867 10 27.0352C10.0003 22.3676 13.6847 18.5535 18.3262 18.2998C19.1949 13.579 23.3603 10.0001 28.3701 10Z" fill="url(#paint0_linear_267_39990)"/>
</g>
<path d="M28.3701 10C33.3778 10 37.5399 13.5762 38.4111 18.2939C43.1466 18.4471 46.9385 22.3014 46.9385 27.0361C46.9384 31.868 42.9891 35.7852 38.1182 35.7852C37.8149 35.7851 37.5151 35.7699 37.2197 35.7402V35.7861H19.5801V35.75C19.3293 35.7713 19.0757 35.7842 18.8193 35.7842C13.9484 35.7842 10 31.867 10 27.0352C10.0003 22.3676 13.6847 18.5535 18.3262 18.2998C19.1949 13.579 23.3603 10.0001 28.3701 10Z" fill="url(#paint1_linear_267_39990)"/>
</g>
<g filter="url(#filter1_f_267_39990)">
<path d="M18.4629 42.8584C18.9026 42.8586 19.2588 43.2155 19.2588 43.6553V48.4336C19.2588 48.8734 18.9026 49.2303 18.4629 49.2305C18.023 49.2305 17.666 48.8735 17.666 48.4336V43.6553C17.666 43.2154 18.023 42.8584 18.4629 42.8584ZM38.374 42.8584C38.8138 42.8586 39.1699 43.2155 39.1699 43.6553V48.4336C39.1699 48.8734 38.8138 49.2303 38.374 49.2305C37.9341 49.2305 37.5771 48.8735 37.5771 48.4336V43.6553C37.5771 43.2154 37.9341 42.8584 38.374 42.8584ZM28.8184 41.2627C29.2581 41.2628 29.6143 41.6197 29.6143 42.0596V46.8379C29.6143 47.2777 29.2581 47.6346 28.8184 47.6348C28.3785 47.6348 28.0215 47.2778 28.0215 46.8379V42.0596C28.0215 41.6197 28.3785 41.2627 28.8184 41.2627ZM23.2432 36.4844C23.6829 36.4846 24.0391 36.8415 24.0391 37.2812V42.0596C24.0391 42.4994 23.6829 42.8563 23.2432 42.8564C22.8033 42.8564 22.4463 42.4995 22.4463 42.0596V37.2812C22.4463 36.8413 22.8033 36.4844 23.2432 36.4844ZM33.5938 36.4844C34.0335 36.4846 34.3896 36.8415 34.3896 37.2812V42.0596C34.3896 42.4994 34.0335 42.8563 33.5938 42.8564C33.1538 42.8564 32.7969 42.4995 32.7969 42.0596V37.2812C32.7969 36.8413 33.1538 36.4844 33.5938 36.4844Z" fill="#8AB0DC"/>
</g>
<path d="M17.8398 42.7568C18.321 42.7568 18.7109 43.1468 18.7109 43.6279V48.1582C18.7109 48.6393 18.321 49.0293 17.8398 49.0293C17.3587 49.0292 16.9688 48.6393 16.9688 48.1582V43.6279C16.9688 43.1469 17.3588 42.7569 17.8398 42.7568ZM38.748 42.7568C39.2291 42.7568 39.619 43.1469 39.6191 43.6279V48.1582C39.6191 48.6393 39.2292 49.0293 38.748 49.0293C38.2669 49.0292 37.877 48.6393 37.877 48.1582V43.6279C37.8771 43.1469 38.267 42.7569 38.748 42.7568ZM28.1953 41.3643C28.6764 41.3643 29.0664 41.7543 29.0664 42.2354V46.7656C29.0664 47.2468 28.6765 47.6367 28.1953 47.6367C27.7142 47.6367 27.3242 47.2467 27.3242 46.7656V42.2354C27.3243 41.7543 27.7142 41.3643 28.1953 41.3643ZM22.6201 36.4844C23.1012 36.4844 23.4912 36.8744 23.4912 37.3555V41.8857C23.4912 42.3669 23.1013 42.7568 22.6201 42.7568C22.139 42.7568 21.749 42.3669 21.749 41.8857V37.3555C21.7491 36.8744 22.139 36.4844 22.6201 36.4844ZM33.8701 36.4844C34.3512 36.4844 34.7412 36.8744 34.7412 37.3555V41.8857C34.7412 42.3669 34.3513 42.7568 33.8701 42.7568C33.389 42.7568 32.999 42.3669 32.999 41.8857V37.3555C32.9991 36.8744 33.389 36.4844 33.8701 36.4844Z" fill="url(#paint2_linear_267_39990)"/>
<defs>
<filter id="filter0_f_267_39990" x="0" y="0" width="56.9385" height="45.7861" filterUnits="userSpaceOnUse" color-interpolation-filters="sRGB">
<feFlood flood-opacity="0" result="BackgroundImageFix"/>
<feBlend mode="normal" in="SourceGraphic" in2="BackgroundImageFix" result="shape"/>
<feGaussianBlur stdDeviation="5" result="effect1_foregroundBlur_267_39990"/>
</filter>
<filter id="filter1_f_267_39990" x="7.66602" y="26.4844" width="41.5039" height="32.7461" filterUnits="userSpaceOnUse" color-interpolation-filters="sRGB">
<feFlood flood-opacity="0" result="BackgroundImageFix"/>
<feBlend mode="normal" in="SourceGraphic" in2="BackgroundImageFix" result="shape"/>
<feGaussianBlur stdDeviation="5" result="effect1_foregroundBlur_267_39990"/>
</filter>
<linearGradient id="paint0_linear_267_39990" x1="28.4692" y1="10" x2="28.4692" y2="35.7861" gradientUnits="userSpaceOnUse">
<stop stop-color="white"/>
<stop offset="1" stop-color="white" stop-opacity="0"/>
</linearGradient>
<linearGradient id="paint1_linear_267_39990" x1="28.4692" y1="10" x2="28.4692" y2="35.7861" gradientUnits="userSpaceOnUse">
<stop stop-color="white"/>
<stop offset="1" stop-color="white" stop-opacity="0"/>
</linearGradient>
<linearGradient id="paint2_linear_267_39990" x1="28.4182" y1="36.4844" x2="28.4182" y2="49.2294" gradientUnits="userSpaceOnUse">
<stop stop-color="white"/>
<stop offset="1" stop-color="#D3D3D3"/>
</linearGradient>
</defs>
</svg>
