<svg width="80" height="80" viewBox="0 0 80 80" fill="none" xmlns="http://www.w3.org/2000/svg">
<g opacity="0.7">
<g filter="url(#filter0_f_301_41019)">
<path d="M40.1885 10.3682C47.5998 10.3682 53.7643 15.6597 55.0547 22.6416C62.0622 22.8702 67.6719 28.5772 67.6719 35.584C67.6717 42.7356 61.8276 48.533 54.6182 48.5332C54.1683 48.5332 53.7233 48.5109 53.2852 48.4668V48.5352H27.1768V48.4854C26.8061 48.5167 26.4306 48.5332 26.0518 48.5332C18.8423 48.533 12.9981 42.7357 12.998 35.584C12.998 28.6761 18.4505 23.0313 25.3193 22.6543C26.6045 15.6661 32.7728 10.3684 40.1885 10.3682Z" fill="url(#paint0_linear_301_41019)"/>
</g>
<path d="M40.1885 10.3682C47.5998 10.3682 53.7643 15.6597 55.0547 22.6416C62.0622 22.8702 67.6719 28.5772 67.6719 35.584C67.6717 42.7356 61.8276 48.533 54.6182 48.5332C54.1683 48.5332 53.7233 48.5109 53.2852 48.4668V48.5352H27.1768V48.4854C26.8061 48.5167 26.4306 48.5332 26.0518 48.5332C18.8423 48.533 12.9981 42.7357 12.998 35.584C12.998 28.6761 18.4505 23.0313 25.3193 22.6543C26.6045 15.6661 32.7728 10.3684 40.1885 10.3682Z" fill="url(#paint1_linear_301_41019)"/>
</g>
<g filter="url(#filter1_f_301_41019)">
<path d="M26.0479 59.1543C26.6986 59.1545 27.2263 59.6822 27.2266 60.333V67.4072C27.2265 68.0582 26.6988 68.5857 26.0479 68.5859C25.3967 68.5859 24.8682 68.0583 24.8682 67.4072V60.333C24.8684 59.6821 25.3969 59.1543 26.0479 59.1543ZM55.5195 59.1543C56.1704 59.1544 56.698 59.6821 56.6982 60.333V67.4072C56.6982 68.0583 56.1705 68.5858 55.5195 68.5859C54.8684 68.5859 54.3408 68.0583 54.3408 67.4072V60.333C54.341 59.6821 54.8686 59.1543 55.5195 59.1543ZM41.376 56.7939C42.0269 56.7941 42.5546 57.3217 42.5547 57.9727V65.0469C42.5545 65.6978 42.0269 66.2255 41.376 66.2256C40.7249 66.2256 40.1974 65.6979 40.1973 65.0469V57.9727C40.1974 57.3216 40.7249 56.7939 41.376 56.7939ZM33.124 49.7197C33.7751 49.7197 34.3027 50.2483 34.3027 50.8994V57.9727C34.3027 58.6238 33.7751 59.1514 33.124 59.1514C32.473 59.1513 31.9453 58.6237 31.9453 57.9727V50.8994C31.9453 50.2483 32.473 49.7198 33.124 49.7197ZM48.4434 49.7197C49.0945 49.7197 49.6221 50.2483 49.6221 50.8994V57.9727C49.6221 58.6238 49.0945 59.1514 48.4434 59.1514C47.7923 59.1512 47.2646 58.6237 47.2646 57.9727V50.8994C47.2646 50.2484 47.7923 49.7198 48.4434 49.7197Z" fill="url(#paint2_linear_301_41019)"/>
</g>
<path d="M26.0479 52.0771C26.6988 52.0774 27.2266 52.6049 27.2266 53.2559V67.4033C27.2265 68.0542 26.6987 68.5818 26.0479 68.582C25.3968 68.582 24.8682 68.0544 24.8682 67.4033V53.2559C24.8682 52.6047 25.3967 52.0771 26.0479 52.0771ZM55.5195 52.0771C56.1706 52.0773 56.6982 52.6048 56.6982 53.2559V67.4033C56.6982 68.0543 56.1705 68.5819 55.5195 68.582C54.8685 68.582 54.3409 68.0544 54.3408 67.4033V53.2559C54.3408 52.6047 54.8684 52.0771 55.5195 52.0771ZM41.376 49.7188C42.027 49.7189 42.5547 50.2474 42.5547 50.8984V65.0459C42.5545 65.6968 42.0269 66.2245 41.376 66.2246C40.725 66.2246 40.1974 65.6969 40.1973 65.0459V50.8984C40.1973 50.2473 40.7249 49.7188 41.376 49.7188ZM33.124 45.0049C33.775 45.0049 34.3026 45.5326 34.3027 46.1836V60.3311C34.3027 60.9822 33.7751 61.5107 33.124 61.5107C32.473 61.5107 31.9453 60.9821 31.9453 60.3311V46.1836C31.9455 45.5327 32.4731 45.005 33.124 45.0049ZM48.4434 45.0049C49.0944 45.0049 49.6219 45.5326 49.6221 46.1836V60.3311C49.6221 60.9822 49.0945 61.5107 48.4434 61.5107C47.7923 61.5106 47.2646 60.9821 47.2646 60.3311V46.1836C47.2648 45.5327 47.7924 45.005 48.4434 45.0049Z" fill="#8AB0DC"/>
<defs>
<filter id="filter0_f_301_41019" x="2.99805" y="0.368164" width="74.6738" height="58.167" filterUnits="userSpaceOnUse" color-interpolation-filters="sRGB">
<feFlood flood-opacity="0" result="BackgroundImageFix"/>
<feBlend mode="normal" in="SourceGraphic" in2="BackgroundImageFix" result="shape"/>
<feGaussianBlur stdDeviation="5" result="effect1_foregroundBlur_301_41019"/>
</filter>
<filter id="filter1_f_301_41019" x="14.8682" y="39.7197" width="51.8301" height="38.8662" filterUnits="userSpaceOnUse" color-interpolation-filters="sRGB">
<feFlood flood-opacity="0" result="BackgroundImageFix"/>
<feBlend mode="normal" in="SourceGraphic" in2="BackgroundImageFix" result="shape"/>
<feGaussianBlur stdDeviation="5" result="effect1_foregroundBlur_301_41019"/>
</filter>
<linearGradient id="paint0_linear_301_41019" x1="40.335" y1="10.3682" x2="40.335" y2="48.5352" gradientUnits="userSpaceOnUse">
<stop stop-color="white"/>
<stop offset="1" stop-color="white" stop-opacity="0"/>
</linearGradient>
<linearGradient id="paint1_linear_301_41019" x1="40.335" y1="10.3682" x2="40.335" y2="48.5352" gradientUnits="userSpaceOnUse">
<stop stop-color="white"/>
<stop offset="1" stop-color="white" stop-opacity="0"/>
</linearGradient>
<linearGradient id="paint2_linear_301_41019" x1="40.7832" y1="49.7197" x2="40.7832" y2="68.5859" gradientUnits="userSpaceOnUse">
<stop stop-color="white"/>
<stop offset="1" stop-color="white" stop-opacity="0"/>
</linearGradient>
</defs>
</svg>
