<svg width="80" height="80" viewBox="0 0 80 80" fill="none" xmlns="http://www.w3.org/2000/svg">
<g opacity="0.7">
<g filter="url(#filter0_f_301_40858)">
<path d="M40.1865 10.3711C47.6049 10.3711 53.7762 15.6675 55.0674 22.6562C62.0806 22.8858 67.6953 28.5976 67.6953 35.6104C67.6951 42.7685 61.845 48.5712 54.6289 48.5713C54.179 48.5713 53.7341 48.5489 53.2959 48.5049V48.5742H27.1641V48.5225C26.7929 48.5539 26.4174 48.5713 26.0381 48.5713C18.822 48.5712 12.9718 42.7685 12.9717 35.6104C12.9717 28.6965 18.4291 23.0468 25.3037 22.6689C26.5897 15.674 32.7638 10.3712 40.1865 10.3711Z" fill="url(#paint0_linear_301_40858)"/>
</g>
<path d="M40.1865 10.3711C47.6049 10.3711 53.7762 15.6675 55.0674 22.6562C62.0806 22.8858 67.6953 28.5976 67.6953 35.6104C67.6951 42.7685 61.845 48.5712 54.6289 48.5713C54.179 48.5713 53.7341 48.5489 53.2959 48.5049V48.5742H27.1641V48.5225C26.7929 48.5539 26.4174 48.5713 26.0381 48.5713C18.822 48.5712 12.9718 42.7685 12.9717 35.6104C12.9717 28.6965 18.4291 23.0468 25.3037 22.6689C26.5897 15.674 32.7638 10.3712 40.1865 10.3711Z" fill="url(#paint1_linear_301_40858)"/>
</g>
<g filter="url(#filter1_f_301_40858)">
<path d="M25.5078 59.0488C26.1595 59.0488 26.6875 59.5778 26.6875 60.2295V67.3096C26.6874 67.9612 26.1594 68.4892 25.5078 68.4893C24.8562 68.4893 24.3283 67.9612 24.3281 67.3096V60.2295C24.3281 59.5778 24.8561 59.0488 25.5078 59.0488ZM55.0059 59.0488C55.6576 59.0488 56.1865 59.5778 56.1865 60.2295V67.3096C56.1864 67.9612 55.6575 68.4893 55.0059 68.4893C54.3544 68.4891 53.8263 67.9611 53.8262 67.3096V60.2295C53.8262 59.5779 54.3543 59.049 55.0059 59.0488ZM40.8486 56.6855C41.5003 56.6855 42.0293 57.2145 42.0293 57.8662V64.9463C42.0292 65.5979 41.5003 66.126 40.8486 66.126C40.1972 66.1257 39.6691 65.5977 39.6689 64.9463V57.8662C39.6689 57.2146 40.1971 56.6858 40.8486 56.6855ZM32.5898 49.6064C33.2413 49.6067 33.7694 50.1347 33.7695 50.7861V57.8662C33.7695 58.5178 33.2414 59.0466 32.5898 59.0469C31.9381 59.0469 31.4092 58.5179 31.4092 57.8662V50.7861C31.4093 50.1345 31.9382 49.6064 32.5898 49.6064ZM47.9238 49.6064C48.5753 49.6066 49.1034 50.1346 49.1035 50.7861V57.8662C49.1035 58.5178 48.5754 59.0467 47.9238 59.0469C47.2721 59.0469 46.7432 58.5179 46.7432 57.8662V50.7861C46.7433 50.1345 47.2722 49.6064 47.9238 49.6064Z" fill="#8AB0DC"/>
</g>
<path d="M24.585 58.8994C25.2977 58.8994 25.8758 59.4768 25.876 60.1895V66.9014C25.8758 67.6141 25.2977 68.1914 24.585 68.1914C23.8724 68.1912 23.2951 67.6139 23.2949 66.9014V60.1895C23.2951 59.4769 23.8724 58.8996 24.585 58.8994ZM55.5605 58.8994C56.2733 58.8994 56.8514 59.4768 56.8516 60.1895V66.9014C56.8514 67.6141 56.2733 68.1914 55.5605 68.1914C54.848 68.1912 54.2706 67.614 54.2705 66.9014V60.1895C54.2706 59.4769 54.848 58.8996 55.5605 58.8994ZM39.9268 56.8359C40.6395 56.836 41.2168 57.4142 41.2168 58.127V64.8379C41.2168 65.5506 40.6395 66.1288 39.9268 66.1289C39.2139 66.1289 38.6357 65.5507 38.6357 64.8379V58.127C38.6357 57.4141 39.2139 56.8359 39.9268 56.8359ZM31.667 49.6064C32.3796 49.6065 32.9578 50.1839 32.958 50.8965V57.6084C32.958 58.3212 32.3798 58.8994 31.667 58.8994C30.9542 58.8994 30.376 58.3212 30.376 57.6084V50.8965C30.3762 50.1839 30.9543 49.6064 31.667 49.6064ZM48.334 49.6064C49.0466 49.6064 49.6248 50.1839 49.625 50.8965V57.6084C49.625 58.3212 49.0468 58.8994 48.334 58.8994C47.6213 58.8992 47.044 58.3211 47.0439 57.6084V50.8965C47.0442 50.184 47.6215 49.6066 48.334 49.6064Z" fill="#8AB0DC"/>
<defs>
<filter id="filter0_f_301_40858" x="2.97168" y="0.371094" width="74.7236" height="58.2031" filterUnits="userSpaceOnUse" color-interpolation-filters="sRGB">
<feFlood flood-opacity="0" result="BackgroundImageFix"/>
<feBlend mode="normal" in="SourceGraphic" in2="BackgroundImageFix" result="shape"/>
<feGaussianBlur stdDeviation="5" result="effect1_foregroundBlur_301_40858"/>
</filter>
<filter id="filter1_f_301_40858" x="14.3281" y="39.6064" width="51.8584" height="38.8828" filterUnits="userSpaceOnUse" color-interpolation-filters="sRGB">
<feFlood flood-opacity="0" result="BackgroundImageFix"/>
<feBlend mode="normal" in="SourceGraphic" in2="BackgroundImageFix" result="shape"/>
<feGaussianBlur stdDeviation="5" result="effect1_foregroundBlur_301_40858"/>
</filter>
<linearGradient id="paint0_linear_301_40858" x1="40.3335" y1="10.3711" x2="40.3335" y2="48.5742" gradientUnits="userSpaceOnUse">
<stop stop-color="white"/>
<stop offset="1" stop-color="white" stop-opacity="0"/>
</linearGradient>
<linearGradient id="paint1_linear_301_40858" x1="40.3335" y1="10.3711" x2="40.3335" y2="48.5742" gradientUnits="userSpaceOnUse">
<stop stop-color="white"/>
<stop offset="1" stop-color="white" stop-opacity="0"/>
</linearGradient>
</defs>
</svg>
