<svg width="57" height="60" viewBox="0 0 57 60" fill="none" xmlns="http://www.w3.org/2000/svg">
<g opacity="0.7">
<g filter="url(#filter0_f_267_40150)">
<path d="M28.8799 10.0127C33.6466 10.2526 37.5458 13.7388 38.3857 18.2861C43.1172 18.4389 46.9053 22.2899 46.9053 27.0205C46.9051 31.8479 42.9602 35.7617 38.0938 35.7617C37.7901 35.7617 37.4901 35.7456 37.1943 35.7158V35.7627H19.5713V35.7266C19.3208 35.7478 19.0676 35.7617 18.8115 35.7617C13.945 35.7617 10 31.848 10 27.0205C10 22.3568 13.6817 18.5463 18.3193 18.293C19.187 13.576 23.3489 10 28.3545 10L28.8799 10.0127Z" fill="url(#paint0_linear_267_40150)"/>
</g>
<path d="M28.8799 10.0127C33.6466 10.2526 37.5458 13.7388 38.3857 18.2861C43.1172 18.4389 46.9053 22.2899 46.9053 27.0205C46.9051 31.8479 42.9602 35.7617 38.0938 35.7617C37.7901 35.7617 37.4901 35.7456 37.1943 35.7158V35.7627H19.5713V35.7266C19.3208 35.7478 19.0676 35.7617 18.8115 35.7617C13.945 35.7617 10 31.848 10 27.0205C10 22.3568 13.6817 18.5463 18.3193 18.293C19.187 13.576 23.3489 10 28.3545 10L28.8799 10.0127Z" fill="url(#paint1_linear_267_40150)"/>
</g>
<g filter="url(#filter1_f_267_40150)">
<path d="M18.8086 42.9287C19.2481 42.9288 19.6045 43.2851 19.6045 43.7246V48.499C19.6045 48.9385 19.2481 49.2949 18.8086 49.2949C18.3691 49.2949 18.0127 48.9385 18.0127 48.499V43.7246C18.0127 43.2851 18.3691 42.9287 18.8086 42.9287ZM38.7021 42.9287C39.1416 42.9288 39.498 43.2851 39.498 43.7246V48.499C39.498 48.9385 39.1416 49.2948 38.7021 49.2949C38.2626 49.2949 37.9062 48.9385 37.9062 48.499V43.7246C37.9062 43.2851 38.2626 42.9287 38.7021 42.9287ZM29.1553 41.335C29.5947 41.335 29.9512 41.6914 29.9512 42.1309V46.9053C29.9512 47.3447 29.5947 47.7011 29.1553 47.7012C28.7158 47.7012 28.3594 47.3448 28.3594 46.9053V42.1309C28.3594 41.6914 28.7158 41.335 29.1553 41.335ZM23.585 36.5605C24.0244 36.5606 24.3809 36.917 24.3809 37.3564V42.1309C24.3809 42.5703 24.0244 42.9267 23.585 42.9268C23.1455 42.9268 22.7891 42.5704 22.7891 42.1309V37.3564C22.7891 36.9169 23.1455 36.5605 23.585 36.5605ZM33.9258 36.5605C34.3652 36.5606 34.7217 36.917 34.7217 37.3564V42.1309C34.7217 42.5703 34.3652 42.9267 33.9258 42.9268C33.4863 42.9268 33.1299 42.5704 33.1299 42.1309V37.3564C33.1299 36.9169 33.4863 36.5605 33.9258 36.5605Z" fill="url(#paint2_linear_267_40150)"/>
</g>
<path d="M18.8086 38.1514C19.2481 38.1514 19.6045 38.5078 19.6045 38.9473V48.4971C19.6043 48.9364 19.2479 49.2929 18.8086 49.293C18.3692 49.293 18.0129 48.9364 18.0127 48.4971V38.9473C18.0127 38.5078 18.3691 38.1514 18.8086 38.1514ZM38.7021 38.1514C39.1416 38.1514 39.498 38.5078 39.498 38.9473V48.4971C39.4979 48.9364 39.1415 49.2929 38.7021 49.293C38.2628 49.293 37.9064 48.9364 37.9062 48.4971V38.9473C37.9062 38.5078 38.2626 38.1514 38.7021 38.1514ZM29.1553 36.5596C29.5947 36.5596 29.9512 36.916 29.9512 37.3555V46.9053C29.951 47.3446 29.5946 47.7011 29.1553 47.7012C28.7159 47.7012 28.3596 47.3446 28.3594 46.9053V37.3555C28.3594 36.916 28.7158 36.5596 29.1553 36.5596ZM23.585 33.3779C24.0244 33.378 24.3809 33.7344 24.3809 34.1738V43.7236C24.3807 44.1629 24.0243 44.5195 23.585 44.5195C23.1456 44.5195 22.7893 44.163 22.7891 43.7236V34.1738C22.7891 33.7343 23.1455 33.3779 23.585 33.3779ZM33.9258 33.3779C34.3652 33.378 34.7217 33.7344 34.7217 34.1738V43.7236C34.7215 44.1629 34.3651 44.5195 33.9258 44.5195C33.4864 44.5195 33.1301 44.163 33.1299 43.7236V34.1738C33.1299 33.7343 33.4863 33.3779 33.9258 33.3779Z" fill="white"/>
<defs>
<filter id="filter0_f_267_40150" x="0" y="0" width="56.9053" height="45.7627" filterUnits="userSpaceOnUse" color-interpolation-filters="sRGB">
<feFlood flood-opacity="0" result="BackgroundImageFix"/>
<feBlend mode="normal" in="SourceGraphic" in2="BackgroundImageFix" result="shape"/>
<feGaussianBlur stdDeviation="5" result="effect1_foregroundBlur_267_40150"/>
</filter>
<filter id="filter1_f_267_40150" x="8.0127" y="26.5605" width="41.4854" height="32.7344" filterUnits="userSpaceOnUse" color-interpolation-filters="sRGB">
<feFlood flood-opacity="0" result="BackgroundImageFix"/>
<feBlend mode="normal" in="SourceGraphic" in2="BackgroundImageFix" result="shape"/>
<feGaussianBlur stdDeviation="5" result="effect1_foregroundBlur_267_40150"/>
</filter>
<linearGradient id="paint0_linear_267_40150" x1="28.4526" y1="10" x2="28.4526" y2="35.7627" gradientUnits="userSpaceOnUse">
<stop stop-color="white"/>
<stop offset="1" stop-color="white" stop-opacity="0"/>
</linearGradient>
<linearGradient id="paint1_linear_267_40150" x1="28.4526" y1="10" x2="28.4526" y2="35.7627" gradientUnits="userSpaceOnUse">
<stop stop-color="white"/>
<stop offset="1" stop-color="white" stop-opacity="0"/>
</linearGradient>
<linearGradient id="paint2_linear_267_40150" x1="28.7554" y1="36.5605" x2="28.7554" y2="49.2949" gradientUnits="userSpaceOnUse">
<stop stop-color="white"/>
<stop offset="1" stop-color="white" stop-opacity="0"/>
</linearGradient>
</defs>
</svg>
