<svg width="58" height="57" viewBox="0 0 58 57" fill="none" xmlns="http://www.w3.org/2000/svg">
<g opacity="0.7">
<g filter="url(#filter0_f_267_40071)">
<path d="M28.6455 10C33.7282 10 37.9534 13.6295 38.8379 18.418C43.6445 18.5734 47.4932 22.4861 47.4932 27.292C47.493 32.1963 43.485 36.1719 38.541 36.1719C38.2328 36.1719 37.9282 36.1561 37.6279 36.126V36.1729H19.7236V36.1367C19.4693 36.1583 19.2121 36.1719 18.9521 36.1719C14.0082 36.1719 10.0002 32.1963 10 27.292C10 22.5543 13.74 18.6835 18.4512 18.4258C19.3324 13.6335 23.5601 10.0001 28.6455 10Z" fill="url(#paint0_linear_267_40071)"/>
</g>
<path d="M28.6455 10C33.7282 10 37.9534 13.6295 38.8379 18.418C43.6445 18.5734 47.4932 22.4861 47.4932 27.292C47.493 32.1963 43.485 36.1719 38.541 36.1719C38.2328 36.1719 37.9282 36.1561 37.6279 36.126V36.1729H19.7236V36.1367C19.4693 36.1583 19.2121 36.1719 18.9521 36.1719C14.0082 36.1719 10.0002 32.1963 10 27.292C10 22.5543 13.74 18.6835 18.4512 18.4258C19.3324 13.6335 23.5601 10.0001 28.6455 10Z" fill="url(#paint1_linear_267_40071)"/>
</g>
<circle opacity="0.2" cx="34.0515" cy="33.3445" r="1.41483" fill="#D9D9D9"/>
<circle opacity="0.2" cx="23.4402" cy="33.3445" r="1.41483" fill="#D9D9D9"/>
<circle cx="40.4178" cy="46.7859" r="1.41483" fill="#D9D9D9"/>
<circle cx="29.0994" cy="46.7859" r="1.41483" fill="#D9D9D9"/>
<circle cx="17.074" cy="46.7859" r="1.41483" fill="#D9D9D9"/>
<circle opacity="0.6" cx="29.0994" cy="38.2957" r="1.41483" fill="#D9D9D9"/>
<circle opacity="0.7" cx="36.1736" cy="41.8328" r="1.41483" fill="#D9D9D9"/>
<circle opacity="0.7" cx="22.0252" cy="41.8328" r="1.41483" fill="#D9D9D9"/>
<circle opacity="0.5" cx="41.8338" cy="35.4666" r="1.41483" fill="#D9D9D9"/>
<circle opacity="0.5" cx="15.659" cy="35.4666" r="1.41483" fill="#D9D9D9"/>
<defs>
<filter id="filter0_f_267_40071" x="0" y="0" width="57.4932" height="46.1729" filterUnits="userSpaceOnUse" color-interpolation-filters="sRGB">
<feFlood flood-opacity="0" result="BackgroundImageFix"/>
<feBlend mode="normal" in="SourceGraphic" in2="BackgroundImageFix" result="shape"/>
<feGaussianBlur stdDeviation="5" result="effect1_foregroundBlur_267_40071"/>
</filter>
<linearGradient id="paint0_linear_267_40071" x1="28.7466" y1="10" x2="28.7466" y2="36.1729" gradientUnits="userSpaceOnUse">
<stop stop-color="white"/>
<stop offset="1" stop-color="white" stop-opacity="0"/>
</linearGradient>
<linearGradient id="paint1_linear_267_40071" x1="28.7466" y1="10" x2="28.7466" y2="36.1729" gradientUnits="userSpaceOnUse">
<stop stop-color="white"/>
<stop offset="1" stop-color="white" stop-opacity="0"/>
</linearGradient>
</defs>
</svg>
