<svg width="80" height="80" viewBox="0 0 80 80" fill="none" xmlns="http://www.w3.org/2000/svg">
<g opacity="0.7">
<g filter="url(#filter0_f_301_40901)">
<path d="M40.1846 10.4961C47.7253 10.4961 53.9981 15.8797 55.3115 22.9834C62.4409 23.2167 68.1482 29.0235 68.1484 36.1523C68.1484 43.4295 62.2012 49.3291 54.8652 49.3291C54.4083 49.3291 53.9568 49.3054 53.5117 49.2607V49.332H26.9453V49.2793C26.5678 49.3113 26.1856 49.3291 25.7998 49.3291C18.464 49.3289 12.5176 43.4294 12.5176 36.1523C12.5178 29.1232 18.0661 23.3791 25.0557 22.9961C26.3639 15.8862 32.6395 10.4963 40.1846 10.4961Z" fill="url(#paint0_linear_301_40901)"/>
</g>
<path d="M40.1846 10.4961C47.7253 10.4961 53.9981 15.8797 55.3115 22.9834C62.4409 23.2167 68.1482 29.0235 68.1484 36.1523C68.1484 43.4295 62.2012 49.3291 54.8652 49.3291C54.4083 49.3291 53.9568 49.3054 53.5117 49.2607V49.332H26.9453V49.2793C26.5678 49.3113 26.1856 49.3291 25.7998 49.3291C18.464 49.3289 12.5176 43.4294 12.5176 36.1523C12.5178 29.1232 18.0661 23.3791 25.0557 22.9961C26.3639 15.8862 32.6395 10.4963 40.1846 10.4961Z" fill="url(#paint1_linear_301_40901)"/>
</g>
<circle opacity="0.3" cx="48.148" cy="48.3199" r="2.22222" fill="#D9D9D9"/>
<circle opacity="0.3" cx="31.8521" cy="48.3199" r="2.22222" fill="#D9D9D9"/>
<circle opacity="0.5" cx="40.7408" cy="55.7281" r="2.22222" fill="#D9D9D9"/>
<circle opacity="0.7" cx="48.148" cy="64.6168" r="2.22222" fill="#D9D9D9"/>
<circle opacity="0.7" cx="31.8521" cy="64.6168" r="2.22222" fill="#D9D9D9"/>
<defs>
<filter id="filter0_f_301_40901" x="2.51758" y="0.496094" width="75.6309" height="58.8359" filterUnits="userSpaceOnUse" color-interpolation-filters="sRGB">
<feFlood flood-opacity="0" result="BackgroundImageFix"/>
<feBlend mode="normal" in="SourceGraphic" in2="BackgroundImageFix" result="shape"/>
<feGaussianBlur stdDeviation="5" result="effect1_foregroundBlur_301_40901"/>
</filter>
<linearGradient id="paint0_linear_301_40901" x1="40.333" y1="10.4961" x2="40.333" y2="49.332" gradientUnits="userSpaceOnUse">
<stop stop-color="white"/>
<stop offset="1" stop-color="white" stop-opacity="0"/>
</linearGradient>
<linearGradient id="paint1_linear_301_40901" x1="40.333" y1="10.4961" x2="40.333" y2="49.332" gradientUnits="userSpaceOnUse">
<stop stop-color="white"/>
<stop offset="1" stop-color="white" stop-opacity="0"/>
</linearGradient>
</defs>
</svg>
