<svg width="59" height="58" viewBox="0 0 59 58" fill="none" xmlns="http://www.w3.org/2000/svg">
<g filter="url(#filter0_f_267_40114)">
<path d="M25.0635 38.3236L31.5193 32.2373L27.5828 38.3236L31.5193 41.3667L25.6933 47.3009L29 41.6711L25.0635 38.3236Z" fill="url(#paint0_linear_267_40114)"/>
</g>
<path d="M25.7812 38.3345L31.5198 32.2373L28.1442 38.3236L31.5198 41.3667L26.0365 47.3009L29.1486 41.6711L25.7812 38.3345Z" fill="url(#paint1_linear_267_40114)"/>
<g opacity="0.7">
<g filter="url(#filter1_f_267_40114)">
<path d="M29.4492 10.0137C34.3598 10.2607 38.3781 13.8515 39.2432 18.5361C44.1163 18.6945 48.0176 22.6616 48.0176 27.5342C48.0174 32.507 43.9536 36.5381 38.9404 36.5381C38.6279 36.5381 38.319 36.5228 38.0146 36.4922V36.54H19.8604V36.5029C19.6022 36.5248 19.341 36.5381 19.0771 36.5381C14.0641 36.538 10.0002 32.507 10 27.5342C10 22.7296 13.7934 18.8044 18.5713 18.5439C19.4648 13.6844 23.7514 10 28.9082 10L29.4492 10.0137Z" fill="url(#paint2_linear_267_40114)"/>
</g>
<path d="M29.4492 10.0137C34.3598 10.2607 38.3781 13.8515 39.2432 18.5361C44.1163 18.6945 48.0176 22.6616 48.0176 27.5342C48.0174 32.507 43.9536 36.5381 38.9404 36.5381C38.6279 36.5381 38.319 36.5228 38.0146 36.4922V36.54H19.8604V36.5029C19.6022 36.5248 19.341 36.5381 19.0771 36.5381C14.0641 36.538 10.0002 32.507 10 27.5342C10 22.7296 13.7934 18.8044 18.5713 18.5439C19.4648 13.6844 23.7514 10 28.9082 10L29.4492 10.0137Z" fill="url(#paint3_linear_267_40114)"/>
</g>
<defs>
<filter id="filter0_f_267_40114" x="15.0635" y="22.2373" width="26.4561" height="35.0635" filterUnits="userSpaceOnUse" color-interpolation-filters="sRGB">
<feFlood flood-opacity="0" result="BackgroundImageFix"/>
<feBlend mode="normal" in="SourceGraphic" in2="BackgroundImageFix" result="shape"/>
<feGaussianBlur stdDeviation="5" result="effect1_foregroundBlur_267_40114"/>
</filter>
<filter id="filter1_f_267_40114" x="0" y="0" width="58.0176" height="46.54" filterUnits="userSpaceOnUse" color-interpolation-filters="sRGB">
<feFlood flood-opacity="0" result="BackgroundImageFix"/>
<feBlend mode="normal" in="SourceGraphic" in2="BackgroundImageFix" result="shape"/>
<feGaussianBlur stdDeviation="5" result="effect1_foregroundBlur_267_40114"/>
</filter>
<linearGradient id="paint0_linear_267_40114" x1="28.2914" y1="32.2373" x2="28.2914" y2="47.3009" gradientUnits="userSpaceOnUse">
<stop stop-color="white"/>
<stop offset="1" stop-color="#D3D3D3"/>
</linearGradient>
<linearGradient id="paint1_linear_267_40114" x1="28.6505" y1="32.2373" x2="28.6505" y2="47.3009" gradientUnits="userSpaceOnUse">
<stop stop-color="white"/>
<stop offset="1" stop-color="#D3D3D3"/>
</linearGradient>
<linearGradient id="paint2_linear_267_40114" x1="29.0088" y1="10" x2="29.0088" y2="36.54" gradientUnits="userSpaceOnUse">
<stop stop-color="white"/>
<stop offset="1" stop-color="white" stop-opacity="0"/>
</linearGradient>
<linearGradient id="paint3_linear_267_40114" x1="29.0088" y1="10" x2="29.0088" y2="36.54" gradientUnits="userSpaceOnUse">
<stop stop-color="white"/>
<stop offset="1" stop-color="white" stop-opacity="0"/>
</linearGradient>
</defs>
</svg>
