<svg width="24" height="24" viewBox="0 0 24 24" fill="none" xmlns="http://www.w3.org/2000/svg">
<mask id="mask0_246_63807" style="mask-type:alpha" maskUnits="userSpaceOnUse" x="0" y="0" width="24" height="24">
<rect width="24" height="24" fill="#D9D9D9"/>
</mask>
<g mask="url(#mask0_246_63807)">
<path d="M4.00195 20C3.45195 20 2.98112 19.8042 2.58945 19.4125C2.19779 19.0208 2.00195 18.55 2.00195 18V9C2.00195 8.68333 2.07279 8.38333 2.21445 8.1C2.35612 7.81667 2.55195 7.58333 2.80195 7.4L8.80195 2.9C8.98529 2.76667 9.17695 2.66667 9.37695 2.6C9.57695 2.53333 9.78528 2.5 10.002 2.5C10.2186 2.5 10.427 2.53333 10.627 2.6C10.827 2.66667 11.0186 2.76667 11.202 2.9L15.502 6.1C15.7353 6.26667 15.8145 6.48333 15.7395 6.75C15.6645 7.01667 15.4853 7.175 15.202 7.225C14.2353 7.45833 13.3436 7.84583 12.527 8.3875C11.7103 8.92917 11.0186 9.60833 10.452 10.425C9.98528 11.1083 9.63112 11.8375 9.38945 12.6125C9.14779 13.3875 9.02695 14.1833 9.02695 15C9.02695 15.6667 9.10612 16.325 9.26445 16.975C9.42279 17.625 9.66862 18.2417 10.002 18.825C10.152 19.0917 10.1561 19.3542 10.0145 19.6125C9.87279 19.8708 9.66028 20 9.37695 20H4.00195ZM17.002 10C15.6186 10 14.4395 10.4833 13.4645 11.45C12.4895 12.4167 12.002 13.6 12.002 15C12.002 15.5333 12.0853 16.05 12.252 16.55C12.4186 17.05 12.6603 17.5167 12.977 17.95C13.1103 18.1333 13.1728 18.325 13.1645 18.525C13.1561 18.725 13.077 18.9 12.927 19.05C12.777 19.2 12.602 19.2708 12.402 19.2625C12.202 19.2542 12.0353 19.1667 11.902 19C11.4686 18.4167 11.127 17.7875 10.877 17.1125C10.627 16.4375 10.502 15.7333 10.502 15C10.502 13.1833 11.1353 11.6458 12.402 10.3875C13.6686 9.12917 15.202 8.5 17.002 8.5C18.8186 8.5 20.3561 9.12917 21.6145 10.3875C22.8728 11.6458 23.5019 13.1833 23.5019 15C23.5019 15.7333 23.3853 16.4375 23.1519 17.1125C22.9186 17.7875 22.577 18.4167 22.1269 19C21.9936 19.1667 21.827 19.2542 21.6269 19.2625C21.427 19.2708 21.2519 19.2 21.1019 19.05C20.952 18.9 20.8728 18.7208 20.8645 18.5125C20.8561 18.3042 20.9186 18.1083 21.052 17.925C21.3686 17.4917 21.6061 17.0292 21.7645 16.5375C21.9228 16.0458 22.0019 15.5333 22.0019 15C22.0019 13.6 21.5186 12.4167 20.552 11.45C19.5853 10.4833 18.402 10 17.002 10ZM17.002 12.5C16.302 12.5 15.7103 12.7417 15.227 13.225C14.7436 13.7083 14.502 14.3 14.502 15C14.502 15.2 14.527 15.3917 14.577 15.575C14.627 15.7583 14.702 15.9417 14.802 16.125C14.902 16.3083 14.952 16.5125 14.952 16.7375C14.952 16.9625 14.877 17.15 14.727 17.3C14.577 17.45 14.3978 17.5208 14.1895 17.5125C13.9811 17.5042 13.8186 17.4083 13.702 17.225C13.4686 16.8917 13.2936 16.5375 13.177 16.1625C13.0603 15.7875 13.002 15.4 13.002 15C13.002 13.8833 13.3936 12.9375 14.177 12.1625C14.9603 11.3875 15.902 11 17.002 11C18.1186 11 19.0644 11.3875 19.8394 12.1625C20.6144 12.9375 21.0019 13.8833 21.0019 15C21.0019 15.3833 20.9478 15.7667 20.8394 16.15C20.7311 16.5333 20.5603 16.8917 20.327 17.225C20.2103 17.3917 20.052 17.4792 19.8519 17.4875C19.652 17.4958 19.477 17.425 19.327 17.275C19.177 17.125 19.0978 16.9417 19.0894 16.725C19.0811 16.5083 19.127 16.3083 19.2269 16.125C19.3103 15.9417 19.377 15.7583 19.427 15.575C19.477 15.3917 19.5019 15.2 19.5019 15C19.5019 14.3 19.2603 13.7083 18.7769 13.225C18.2936 12.7417 17.702 12.5 17.002 12.5ZM17.002 21C16.7853 21 16.6061 20.9292 16.4645 20.7875C16.3228 20.6458 16.252 20.4667 16.252 20.25V16C16.102 15.8667 15.9811 15.7125 15.8895 15.5375C15.7978 15.3625 15.752 15.1833 15.752 15C15.752 14.65 15.877 14.3542 16.127 14.1125C16.377 13.8708 16.6686 13.75 17.002 13.75C17.352 13.75 17.6478 13.8708 17.8895 14.1125C18.1311 14.3542 18.2519 14.65 18.2519 15C18.2519 15.1833 18.2145 15.3667 18.1395 15.55C18.0645 15.7333 17.9353 15.8833 17.752 16V20.25C17.752 20.4667 17.6811 20.6458 17.5395 20.7875C17.3978 20.9292 17.2186 21 17.002 21Z" fill="#878789"/>
</g>
</svg>
