<svg width="63" height="20" viewBox="0 0 63 20" fill="none" xmlns="http://www.w3.org/2000/svg">
<g opacity="0.6">
<path d="M47.867 18.3862C47.7458 18.8955 47.6397 19.2957 47.5336 19.7218H45.0486V0H47.9478V7.2755C48.0993 7.07802 48.1751 6.99488 48.2407 6.90653C48.7357 6.20496 49.3772 5.74765 50.2055 5.57096C51.5238 5.30592 52.6501 5.90355 53.0491 7.20794C53.3067 8.01864 53.4734 8.88651 53.4936 9.73358C53.534 11.911 53.5037 14.0833 53.428 16.2607C53.3977 16.9259 53.2007 17.6067 52.9532 18.2303C52.14 20.2883 49.4832 20.6001 48.165 18.8176C48.0842 18.7084 48.0084 18.5889 47.867 18.3862ZM48.0084 16.5674C48.0084 17.1546 48.3114 17.5132 48.8822 17.6483C49.4428 17.7834 49.8974 17.5599 50.1247 17.0247C50.2207 16.8012 50.3166 16.5674 50.3217 16.3335C50.3772 14.1301 50.4278 11.9266 50.4429 9.71799C50.4429 9.30745 50.3469 8.88131 50.2257 8.48116C49.9984 7.7588 49.3721 7.54573 48.7559 7.96667C48.2912 8.28887 48.0084 8.74619 48.0084 9.35422V16.5674ZM40.1291 5.85158H43.1646V19.7322H40.7958C40.7099 19.2073 40.624 18.6669 40.523 18.0329C40.3614 18.2771 40.2654 18.433 40.1644 18.5889C39.3765 19.7582 38.2602 20.1583 36.942 19.9453C35.8156 19.7582 35.1388 18.8643 34.9873 17.3988C34.9418 16.9623 34.9216 16.5206 34.9216 16.0841C34.9115 12.8361 34.9216 9.57768 34.9216 6.32969V5.84119H37.9925V6.40764C37.9925 9.5465 37.9824 12.6802 38.0026 15.819C38.0026 16.2659 38.0481 16.7285 38.1239 17.1754C38.2097 17.6327 38.533 17.799 38.9674 17.7678C39.6694 17.7106 40.1543 17.1754 40.1543 16.4582V6.4648C40.1291 6.26213 40.1291 6.07504 40.1291 5.85158ZM19.2286 5.84119H22.2793V6.42842C22.2793 9.55169 22.2692 12.6698 22.2894 15.7826C22.2894 16.2296 22.3298 16.6921 22.4208 17.1286C22.5369 17.6431 22.8299 17.8094 23.3299 17.7418C24.0219 17.6431 24.4411 17.1494 24.4461 16.427V5.86198H27.4817V19.7322H25.123C25.0371 19.2177 24.9512 18.6876 24.8401 18.0173C24.6886 18.2511 24.6027 18.3862 24.5169 18.5265C23.7289 19.7166 22.6228 20.1531 21.2742 19.9401C20.1933 19.7738 19.5317 18.9527 19.3296 17.6067C19.2741 17.1858 19.2337 16.77 19.2337 16.3491C19.2236 12.9764 19.2236 9.58807 19.2236 6.21536L19.2286 5.84119ZM17.6628 13.2518C17.6527 13.7195 17.6224 14.1872 17.5972 14.6549C17.481 16.0581 17.4255 18.0484 16.3244 19.0722C15.6223 19.7166 14.7333 19.9505 13.8141 19.9816C13.405 19.992 12.9908 19.992 12.5817 19.9349C10.6472 19.6335 9.74815 18.7552 9.4249 16.5674C9.05619 14.0417 9.02588 11.4745 9.46531 8.94887C9.91988 6.33488 11.4857 5.40986 13.9202 5.58135C16.193 5.74765 17.2083 7.2807 17.476 9.46335C17.6224 10.7158 17.6931 11.9838 17.6628 13.2518ZM14.5717 12.7737C14.5717 11.8851 14.5919 10.9912 14.5616 10.1026C14.5414 9.58807 14.4758 9.06839 14.3697 8.55911C14.2485 7.97187 13.8848 7.69124 13.4302 7.70164C12.9858 7.71203 12.6726 7.99266 12.511 8.53832C12.4554 8.741 12.3948 8.94887 12.3948 9.15154C12.3948 10.5443 12.3847 11.9422 12.3746 13.335C12.3645 14.6342 12.2029 15.9957 12.6019 17.2377C12.7231 17.6171 13.0363 17.825 13.4454 17.825C13.8444 17.825 14.107 17.6223 14.2535 17.2585C14.3697 16.9779 14.4707 16.6713 14.4707 16.3699C14.5061 15.1746 14.5717 13.9742 14.5717 12.7737ZM4.97004 10.1597C5.23774 8.81375 5.49028 7.49896 5.76808 6.17898C6.11659 4.50042 6.5055 2.82186 6.84896 1.1381C6.93483 0.72755 7.09645 0.628811 7.47527 0.639205C8.28846 0.670385 9.1168 0.649598 9.98554 0.649598C9.7027 1.72014 9.4249 2.73871 9.15215 3.74169C8.28846 6.89094 7.42476 10.0506 6.57117 13.2102C6.5055 13.4545 6.4752 13.7195 6.4752 13.9794C6.4651 15.7047 6.4752 17.4248 6.4752 19.1502V19.7114H3.51035C3.50024 19.5555 3.48004 19.3996 3.48004 19.2437C3.48004 18.2667 3.40428 17.2845 3.49014 16.3179C3.70733 13.9949 2.99011 11.8591 2.40926 9.6972C1.64153 6.83897 0.863698 3.97035 0.0959675 1.11211C0.0555607 0.976996 0.0404069 0.831486 0 0.665189H3.02546C3.66187 3.81964 4.30333 6.97409 4.97004 10.1597ZM62.9791 13.7819H57.8677C57.9232 14.8368 57.9434 15.8398 58.0495 16.8324C58.1253 17.5236 58.494 17.8198 59.0748 17.825C59.6809 17.8354 60.0345 17.5236 60.1759 16.8376C60.2214 16.6141 60.2517 16.3907 60.2719 16.162C60.2921 15.9593 60.3022 15.7411 60.3173 15.45C61.181 15.4968 62.0245 15.5488 62.8579 15.5852C63.3428 17.0662 62.469 18.9683 60.9992 19.5555C59.8425 20.0232 58.6556 20.0232 57.4737 19.6646C56.5999 19.3996 55.9483 18.828 55.6554 17.9497C55.3826 17.1286 55.1251 16.2711 55.0695 15.4137C54.918 13.2986 54.8624 11.1627 55.1756 9.04241C55.2311 8.68903 55.3271 8.35124 55.4332 8.00825C55.8574 6.59472 56.7817 5.72686 58.2111 5.58135C58.9889 5.5034 59.792 5.53458 60.5598 5.66969C61.8023 5.89316 62.4639 6.81299 62.7518 8.01864C62.8832 8.58509 62.9791 9.16713 62.9993 9.74398C63.0044 11.0692 62.9791 12.3839 62.9791 13.7819ZM60.0749 11.9578C60.0749 10.9133 60.085 9.93106 60.0648 8.94367C60.0648 8.70982 59.9789 8.46557 59.8931 8.2421C59.7213 7.80557 59.3627 7.68605 58.9334 7.68605C58.5041 7.68605 58.2313 7.90951 58.1253 8.30966C57.802 9.51012 57.9081 10.7366 57.9182 11.9682C58.691 11.9578 59.393 11.9578 60.0749 11.9578Z" fill="white"/>
<path d="M29.8252 3.196H26.82V0.691146H35.7903V3.18041H32.8052V19.7114H29.8303L29.8252 3.196Z" fill="white"/>
</g>
</svg>
