<svg width="24" height="24" viewBox="0 0 24 24" fill="none" xmlns="http://www.w3.org/2000/svg">
<mask id="mask0_246_65952" style="mask-type:alpha" maskUnits="userSpaceOnUse" x="0" y="0" width="24" height="24">
<rect width="24" height="24" fill="#D9D9D9"/>
</mask>
<g mask="url(#mask0_246_65952)">
<path d="M4.30775 21.4992C3.80258 21.4992 3.375 21.3242 3.025 20.9742C2.675 20.6242 2.5 20.1966 2.5 19.6914V8.30691C2.5 7.87091 2.6285 7.48149 2.8855 7.13866C3.14267 6.79566 3.4725 6.54274 3.875 6.37991L15.4 1.69141L15.896 2.95691L7.16525 6.49916H19.6923C20.1974 6.49916 20.625 6.67416 20.975 7.02416C21.325 7.37416 21.5 7.80174 21.5 8.30691V19.6914C21.5 20.1966 21.325 20.6242 20.975 20.9742C20.625 21.3242 20.1974 21.4992 19.6923 21.4992H4.30775ZM4.30775 19.9992H19.6923C19.7693 19.9992 19.8398 19.9671 19.9038 19.9029C19.9679 19.8389 20 19.7684 20 19.6914V12.7684H4V19.6914C4 19.7684 4.03208 19.8389 4.09625 19.9029C4.16025 19.9671 4.23075 19.9992 4.30775 19.9992ZM7.923 18.6914C8.56533 18.6914 9.11058 18.4674 9.55875 18.0194C10.0068 17.5712 10.2308 17.026 10.2308 16.3837C10.2308 15.7415 10.0068 15.1963 9.55875 14.7482C9.11058 14.3002 8.56533 14.0762 7.923 14.0762C7.28067 14.0762 6.7355 14.3002 6.2875 14.7482C5.8395 15.1963 5.6155 15.7415 5.6155 16.3837C5.6155 17.026 5.8395 17.5712 6.2875 18.0194C6.7355 18.4674 7.28067 18.6914 7.923 18.6914ZM4 11.2684H16.25V9.34541H17.75V11.2684H20V8.30691C20 8.22991 19.9679 8.15941 19.9038 8.09541C19.8398 8.03124 19.7693 7.99916 19.6923 7.99916H4.30775C4.23075 7.99916 4.16025 8.03124 4.09625 8.09541C4.03208 8.15941 4 8.22991 4 8.30691V11.2684Z" fill="#878789"/>
</g>
</svg>
