<svg width="30" height="30" viewBox="0 0 30 30" fill="none" xmlns="http://www.w3.org/2000/svg">
<mask id="mask0_158_181770" style="mask-type:alpha" maskUnits="userSpaceOnUse" x="0" y="0" width="30" height="30">
<rect width="30" height="30" rx="1" fill="#D9D9D9"/>
</mask>
<g mask="url(#mask0_158_181770)">
<path d="M18.5 23.125C17.9477 23.125 17.5 22.6773 17.5 22.125V7.875C17.5 7.32272 17.9477 6.875 18.5 6.875H21.1875C21.7398 6.875 22.1875 7.32272 22.1875 7.875V22.125C22.1875 22.6773 21.7398 23.125 21.1875 23.125H18.5ZM8.8125 23.125C8.26022 23.125 7.8125 22.6773 7.8125 22.125V7.875C7.8125 7.32272 8.26022 6.875 8.8125 6.875H11.5C12.0523 6.875 12.5 7.32272 12.5 7.875V22.125C12.5 22.6773 12.0523 23.125 11.5 23.125H8.8125Z" fill="white"/>
</g>
</svg>
