<svg width="48" height="48" viewBox="0 0 48 48" fill="none" xmlns="http://www.w3.org/2000/svg">
<mask id="mask0_158_181370" style="mask-type:alpha" maskUnits="userSpaceOnUse" x="0" y="0" width="48" height="48">
<rect width="48" height="48" fill="#D9D9D9"/>
</mask>
<g mask="url(#mask0_158_181370)">
<path d="M28.0416 38V35.3323C30.5475 34.5427 32.566 33.1084 34.0972 31.0297C35.6287 28.9512 36.3944 26.608 36.3944 24C36.3944 21.392 35.6287 19.0488 34.0972 16.9703C32.566 14.8916 30.5475 13.4573 28.0416 12.6676V10C31.2757 10.8582 33.9107 12.5782 35.9466 15.1598C37.9822 17.7413 39 20.6881 39 24C39 27.3119 37.9822 30.2586 35.9466 32.8402C33.9107 35.4218 31.2757 37.1418 28.0416 38ZM10 28.3457V19.7404H16.4482L23.8984 12.36V35.726L16.4482 28.3457H10ZM28.0416 30.3314V17.6686C29.2132 18.2997 30.1186 19.1883 30.758 20.3346C31.397 21.4808 31.7166 22.7169 31.7166 24.043C31.7166 25.3513 31.3941 26.5687 30.7493 27.6951C30.1044 28.8216 29.2019 29.7003 28.0416 30.3314Z" fill="white"/>
</g>
</svg>
