<svg width="48" height="48" viewBox="0 0 48 48" fill="none" xmlns="http://www.w3.org/2000/svg">
<mask id="mask0_158_181746" style="mask-type:alpha" maskUnits="userSpaceOnUse" x="0" y="0" width="48" height="48">
<rect width="48" height="48" fill="#D9D9D9"/>
</mask>
<g mask="url(#mask0_158_181746)">
<path d="M13.2344 34.6138C12.6821 34.6138 12.2344 34.1661 12.2344 33.6138V14.3828C12.2344 13.8305 12.6821 13.3828 13.2344 13.3828H14.2344C14.7867 13.3828 15.2344 13.8305 15.2344 14.3828V33.6138C15.2344 34.1661 14.7867 34.6138 14.2344 34.6138H13.2344ZM35.7724 32.7453C35.7724 33.544 34.8822 34.0204 34.2177 33.5773L21.0974 24.8304C20.5037 24.4345 20.5037 23.5621 21.0974 23.1663L34.2177 14.4193C34.8822 13.9763 35.7724 14.4526 35.7724 15.2513V32.7453Z" fill="white"/>
</g>
</svg>
