<svg width="60" height="60" viewBox="0 0 60 60" fill="none" xmlns="http://www.w3.org/2000/svg">
<path d="M29.3446 10.4563C29.5698 9.8479 30.4302 9.8479 30.6554 10.4563L33.5271 18.2159C34.9427 22.0412 37.9588 25.0573 41.7841 26.4729L49.5437 29.3446C50.1521 29.5698 50.1521 30.4302 49.5437 30.6554L41.7841 33.5271C37.9588 34.9427 34.9427 37.9588 33.5271 41.7841L30.6554 49.5437C30.4302 50.1521 29.5698 50.1521 29.3446 49.5437L26.4729 41.7841C25.0573 37.9588 22.0412 34.9427 18.2159 33.5271L10.4563 30.6554C9.8479 30.4302 9.8479 29.5698 10.4563 29.3446L18.2159 26.4729C22.0412 25.0573 25.0573 22.0412 26.4729 18.2159L29.3446 10.4563Z" fill="url(#paint0_linear_158_154732)"/>
<defs>
<linearGradient id="paint0_linear_158_154732" x1="23.125" y1="38.125" x2="45" y2="15" gradientUnits="userSpaceOnUse">
<stop stop-color="#1783FF"/>
<stop offset="0.5" stop-color="#308EFA"/>
<stop offset="1" stop-color="#AB96FD"/>
</linearGradient>
</defs>
</svg>
