<svg width="20" height="20" viewBox="0 0 20 20" fill="none" xmlns="http://www.w3.org/2000/svg">
<mask id="mask0_939_11" style="mask-type:alpha" maskUnits="userSpaceOnUse" x="0" y="0" width="20" height="20">
<rect width="20" height="20" fill="#272727"/>
</mask>
<g mask="url(#mask0_939_11)">
<path d="M10.0007 2.90574C12.1148 0.966595 15.3817 1.03097 17.418 3.11618C19.4544 5.20139 19.5244 8.52348 17.6304 10.6902L9.99974 18.5L2.36921 10.6902C0.475353 8.52348 0.546146 5.19614 2.58159 3.11618C4.61934 1.03387 7.88054 0.963717 10.0007 2.90574ZM16.144 4.41543C14.7949 3.03395 12.6166 2.97791 11.2031 4.27451L10.0015 5.37661L8.79934 4.27537C7.38176 2.97695 5.20747 3.03407 3.85436 4.41678C2.51362 5.78684 2.44631 7.98115 3.68189 9.43045L9.99974 15.8967L16.3178 9.43045C17.5538 7.9806 17.4868 5.79047 16.144 4.41543Z" fill="white"/>
<path d="M10.0007 2.90574C12.1148 0.966595 15.3817 1.03097 17.418 3.11618C19.4544 5.20139 19.5244 8.52348 17.6304 10.6902L9.99974 18.5L2.36921 10.6902C0.475353 8.52348 0.546146 5.19614 2.58159 3.11618C4.61934 1.03387 7.88054 0.963717 10.0007 2.90574Z" fill="white"/>
</g>
</svg>
