<svg width="18" height="18" viewBox="0 0 18 18" fill="none" xmlns="http://www.w3.org/2000/svg">
<path d="M9.00073 1.90574C11.1148 -0.0334048 14.3817 0.0309717 16.418 2.11618C18.4544 4.20139 18.5244 7.52348 16.6304 9.69021L8.99974 17.5L1.36921 9.69021C-0.524647 7.52348 -0.453854 4.19614 1.58159 2.11618C3.61934 0.0338685 6.88054 -0.0362833 9.00073 1.90574ZM15.144 3.41543C13.7949 2.03395 11.6166 1.97791 10.2031 3.27451L9.00154 4.37661L7.79934 3.27537C6.38176 1.97695 4.20747 2.03407 2.85436 3.41678C1.51362 4.78684 1.44631 6.98115 2.68189 8.43045L8.99974 14.8967L15.3178 8.43045C16.5538 6.9806 16.4868 4.79047 15.144 3.41543Z" fill="white"/>
</svg>
