<svg width="14" height="14" viewBox="0 0 14 14" fill="none" xmlns="http://www.w3.org/2000/svg">
<g opacity="0.6">
<mask id="path-1-outside-1_587_2919" maskUnits="userSpaceOnUse" x="4.6875" y="3.06738" width="10" height="8" fill="black">
<rect fill="white" x="4.6875" y="3.06738" width="10" height="8"/>
<path d="M5.6875 7.43926V6.56426L12.9782 6.56426V7.43926L5.6875 7.43926Z"/>
<path fill-rule="evenodd" clip-rule="evenodd" d="M12.3939 7.00174L10.3045 4.6861L10.8888 4.06738L13.5625 7.00174L10.8888 9.9361L10.3045 9.31738L12.3939 7.00174Z"/>
</mask>
<path d="M5.6875 7.43926V6.56426L12.9782 6.56426V7.43926L5.6875 7.43926Z" fill="#262626"/>
<path fill-rule="evenodd" clip-rule="evenodd" d="M12.3939 7.00174L10.3045 4.6861L10.8888 4.06738L13.5625 7.00174L10.8888 9.9361L10.3045 9.31738L12.3939 7.00174Z" fill="#262626"/>
<path d="M5.6875 7.43926H5.4875V7.63926H5.6875L5.6875 7.43926ZM5.6875 6.56426L5.6875 6.36426H5.4875V6.56426H5.6875ZM12.9782 6.56426H13.1782V6.36426H12.9782V6.56426ZM12.9782 7.43926V7.63926H13.1782V7.43926H12.9782ZM10.3045 4.6861L10.1591 4.54878L10.0324 4.68301L10.156 4.82008L10.3045 4.6861ZM12.3939 7.00174L12.5424 7.13572L12.6633 7.00174L12.5424 6.86776L12.3939 7.00174ZM10.8888 4.06738L11.0366 3.93268L10.8914 3.77331L10.7434 3.93007L10.8888 4.06738ZM13.5625 7.00174L13.7103 7.13644L13.8331 7.00174L13.7103 6.86704L13.5625 7.00174ZM10.8888 9.9361L10.7434 10.0734L10.8914 10.2302L11.0366 10.0708L10.8888 9.9361ZM10.3045 9.31738L10.156 9.1834L10.0324 9.32047L10.1591 9.4547L10.3045 9.31738ZM5.8875 7.43926V6.56426H5.4875V7.43926H5.8875ZM5.6875 6.76426L12.9782 6.76426V6.36426L5.6875 6.36426L5.6875 6.76426ZM12.7782 6.56426V7.43926H13.1782V6.56426H12.7782ZM12.9782 7.23926L5.6875 7.23926L5.6875 7.63926L12.9782 7.63926V7.23926ZM10.156 4.82008L12.2454 7.13572L12.5424 6.86776L10.453 4.55212L10.156 4.82008ZM10.7434 3.93007L10.1591 4.54878L10.4499 4.82342L11.0342 4.2047L10.7434 3.93007ZM10.1591 9.4547L10.7434 10.0734L11.0342 9.79878L10.4499 9.18007L10.1591 9.4547ZM12.2454 6.86776L10.156 9.1834L10.453 9.45136L12.5424 7.13572L12.2454 6.86776ZM13.7103 6.86704L11.0366 3.93268L10.741 4.20209L13.4147 7.13644L13.7103 6.86704ZM11.0366 10.0708L13.7103 7.13644L13.4147 6.86704L10.741 9.8014L11.0366 10.0708Z" fill="#262626" mask="url(#path-1-outside-1_587_2919)"/>
<path d="M4.52361 13.125V13.225H4.42361H2.47917C1.77506 13.225 1.2125 12.6271 1.2125 11.9V2.1C1.2125 1.37288 1.77506 0.775 2.47917 0.775H4.8125H4.9125V0.875V1.69167V1.79167H4.8125H2.47917C2.32416 1.79167 2.19028 1.92506 2.19028 2.1V11.9C2.19028 12.0749 2.32416 12.2083 2.47917 12.2083H4.42361H4.52361V12.3083V13.125Z" fill="#262626" stroke="#262626" stroke-width="0.2"/>
</g>
</svg>
