<svg width="20" height="19" viewBox="0 0 20 19" fill="none" xmlns="http://www.w3.org/2000/svg">
<mask id="mask0_1026_143" style="mask-type:alpha" maskUnits="userSpaceOnUse" x="0" y="0" width="20" height="19">
<rect width="20" height="19" fill="#727F91"/>
</mask>
<g mask="url(#mask0_1026_143)">
<path d="M9.99991 10.9975C12.6107 10.9975 14.7272 8.88104 14.7272 6.27024C14.7272 3.65944 12.6107 1.54297 9.99991 1.54297C7.38915 1.54297 5.27264 3.65944 5.27264 6.27024C5.27264 8.88104 7.38915 10.9975 9.99991 10.9975Z" fill="#727F91"/>
<path d="M9.99933 12.1793C5.31505 12.1793 1.42654 15.5859 0.675781 20.0568C3.03798 22.4874 6.34222 23.9975 9.99933 23.9975C13.6565 23.9975 16.9607 22.4874 19.3229 20.0568C18.5721 15.5859 14.6836 12.1793 9.99933 12.1793Z" fill="#727F91"/>
</g>
</svg>
