<svg width="12" height="12" viewBox="0 0 12 12" fill="none" xmlns="http://www.w3.org/2000/svg">
<circle cx="6" cy="6" r="6" fill="#262626"/>
<path d="M3.89062 3H6.36804C6.85988 3 7.27886 3.08425 7.62497 3.25276C7.97412 3.42127 8.23825 3.65608 8.41738 3.95718C8.59651 4.25552 8.68759 4.59945 8.69062 4.98895C8.68759 5.37569 8.59499 5.71823 8.41283 6.01657C8.2337 6.31492 7.96804 6.54834 7.61586 6.71685C7.26672 6.88536 6.8447 6.96961 6.34983 6.96961H5.07469V9H3.89062V3ZM6.18588 6.08287C6.617 6.08011 6.94034 5.98066 7.1559 5.78453C7.37146 5.58564 7.47924 5.32044 7.47924 4.98895C7.47924 4.6547 7.37146 4.39088 7.1559 4.19751C6.94034 4.00138 6.617 3.90331 6.18588 3.90331H5.07469V6.08287H6.18588Z" fill="white"/>
</svg>
