<svg width="20" height="20" viewBox="0 0 20 20" fill="none" xmlns="http://www.w3.org/2000/svg">
<path fill-rule="evenodd" clip-rule="evenodd" d="M8.95026 2.36709C5.31216 2.36709 2.3629 5.32541 2.3629 8.97468C2.3629 12.624 5.31216 15.5823 8.95026 15.5823C12.5884 15.5823 15.5376 12.624 15.5376 8.97468C15.5376 5.32541 12.5884 2.36709 8.95026 2.36709ZM1 8.97468C1 4.57039 4.55945 1 8.95026 1C13.3411 1 16.9005 4.57039 16.9005 8.97468C16.9005 10.9166 16.2085 12.6965 15.0584 14.0796L19 18.0333L18.0363 19L14.0994 15.051C12.7122 16.2349 10.9144 16.9494 8.95026 16.9494C4.55945 16.9494 1 13.379 1 8.97468Z" fill="black"/>
</svg>
