<svg width="18" height="18" viewBox="0 0 18 18" fill="none" xmlns="http://www.w3.org/2000/svg">
<circle cx="9" cy="9" r="8.5" fill="#5D6477" stroke="#5D6477"/>
<path d="M9.00204 8.99956C10.8095 8.99956 12.2748 7.53431 12.2748 5.72683C12.2748 3.91935 10.8095 2.4541 9.00204 2.4541C7.19459 2.4541 5.72931 3.91935 5.72931 5.72683C5.72931 7.53431 7.19459 8.99956 9.00204 8.99956Z" fill="white"/>
<path d="M9.00164 9.81774C5.75868 9.81774 3.06663 12.1761 2.54688 15.2714C4.18224 16.9541 6.46979 17.9996 9.00164 17.9996C11.5335 17.9996 13.821 16.9541 15.4564 15.2714C14.9367 12.1761 12.2446 9.81774 9.00164 9.81774Z" fill="white"/>
<circle cx="9" cy="9" r="8.5" stroke="#5D6477"/>
</svg>
