<svg width="68" height="68" viewBox="0 0 68 68" fill="none" xmlns="http://www.w3.org/2000/svg">
<circle cx="34" cy="34" r="34" fill="#D9D9D9"/>
<path d="M34.0053 33.9988C40.8335 33.9988 46.369 28.4634 46.369 21.6351C46.369 14.8069 40.8335 9.27148 34.0053 9.27148C27.1772 9.27148 21.6417 14.8069 21.6417 21.6351C21.6417 28.4634 27.1772 33.9988 34.0053 33.9988Z" fill="white"/>
<path d="M34.0038 37.0897C21.7526 37.0897 11.5827 45.9991 9.61914 57.6922C15.7972 64.0493 24.4391 67.9988 34.0038 67.9988C43.5686 67.9988 52.2105 64.0493 58.3885 57.6922C56.425 45.9991 46.255 37.0897 34.0038 37.0897Z" fill="white"/>
<circle cx="34" cy="34" r="33" stroke="#D9D9D9" stroke-width="2"/>
</svg>
