<svg width="40" height="40" viewBox="0 0 40 40" fill="none" xmlns="http://www.w3.org/2000/svg">
<mask id="mask0_158_179691" style="mask-type:alpha" maskUnits="userSpaceOnUse" x="0" y="0" width="40" height="40">
<rect width="40" height="40" fill="#D9D9D9"/>
</mask>
<g mask="url(#mask0_158_179691)">
<path d="M6.66927 33.3346C5.7526 33.3346 4.96788 33.0082 4.3151 32.3555C3.66233 31.7027 3.33594 30.918 3.33594 30.0013V15.0013C3.33594 14.4735 3.45399 13.9735 3.6901 13.5013C3.92622 13.0291 4.2526 12.6402 4.66927 12.3346L14.6693 4.83464C14.9748 4.61241 15.2943 4.44575 15.6276 4.33464C15.9609 4.22352 16.3082 4.16797 16.6693 4.16797C17.0304 4.16797 17.3776 4.22352 17.7109 4.33464C18.0443 4.44575 18.3637 4.61241 18.6693 4.83464L25.8359 10.168C26.2248 10.4457 26.3568 10.8069 26.2318 11.2513C26.1068 11.6957 25.8082 11.9596 25.3359 12.043C23.7248 12.4319 22.2387 13.0777 20.8776 13.9805C19.5165 14.8832 18.3637 16.0152 17.4193 17.3763C16.6415 18.5152 16.0512 19.7305 15.6484 21.0221C15.2457 22.3138 15.0443 23.6402 15.0443 25.0013C15.0443 26.1124 15.1762 27.2096 15.4401 28.293C15.704 29.3763 16.1137 30.4041 16.6693 31.3763C16.9193 31.8207 16.9262 32.2582 16.6901 32.6888C16.454 33.1194 16.0998 33.3346 15.6276 33.3346H6.66927ZM28.3359 16.668C26.0304 16.668 24.0651 17.4735 22.4401 19.0846C20.8151 20.6957 20.0026 22.668 20.0026 25.0013C20.0026 25.8902 20.1415 26.7513 20.4193 27.5846C20.697 28.418 21.0998 29.1957 21.6276 29.918C21.8498 30.2235 21.954 30.543 21.9401 30.8763C21.9262 31.2096 21.7943 31.5013 21.5443 31.7513C21.2943 32.0013 21.0026 32.1194 20.6693 32.1055C20.3359 32.0916 20.0582 31.9457 19.8359 31.668C19.1137 30.6957 18.5443 29.6471 18.1276 28.5221C17.7109 27.3971 17.5026 26.2235 17.5026 25.0013C17.5026 21.9735 18.5582 19.411 20.6693 17.3138C22.7804 15.2166 25.3359 14.168 28.3359 14.168C31.3637 14.168 33.9262 15.2166 36.0234 17.3138C38.1207 19.411 39.1693 21.9735 39.1693 25.0013C39.1693 26.2235 38.9748 27.3971 38.5859 28.5221C38.197 29.6471 37.6276 30.6957 36.8776 31.668C36.6554 31.9457 36.3776 32.0916 36.0443 32.1055C35.7109 32.1194 35.4193 32.0013 35.1693 31.7513C34.9193 31.5013 34.7873 31.2027 34.7734 30.8555C34.7595 30.5082 34.8637 30.1819 35.0859 29.8763C35.6137 29.1541 36.0095 28.3832 36.2734 27.5638C36.5373 26.7444 36.6693 25.8902 36.6693 25.0013C36.6693 22.668 35.8637 20.6957 34.2526 19.0846C32.6415 17.4735 30.6693 16.668 28.3359 16.668ZM28.3359 20.8346C27.1693 20.8346 26.1832 21.2374 25.3776 22.043C24.572 22.8485 24.1693 23.8346 24.1693 25.0013C24.1693 25.3346 24.2109 25.6541 24.2943 25.9596C24.3776 26.2652 24.5026 26.5707 24.6693 26.8763C24.8359 27.1819 24.9193 27.5221 24.9193 27.8971C24.9193 28.2721 24.7943 28.5846 24.5443 28.8346C24.2943 29.0846 23.9957 29.2027 23.6484 29.1888C23.3012 29.1749 23.0304 29.0152 22.8359 28.7096C22.447 28.1541 22.1554 27.5638 21.9609 26.9388C21.7665 26.3138 21.6693 25.668 21.6693 25.0013C21.6693 23.1402 22.322 21.5638 23.6276 20.2721C24.9332 18.9805 26.5026 18.3346 28.3359 18.3346C30.197 18.3346 31.7734 18.9805 33.0651 20.2721C34.3568 21.5638 35.0026 23.1402 35.0026 25.0013C35.0026 25.6402 34.9123 26.2791 34.7318 26.918C34.5512 27.5569 34.2665 28.1541 33.8776 28.7096C33.6832 28.9874 33.4193 29.1332 33.0859 29.1471C32.7526 29.161 32.4609 29.043 32.2109 28.793C31.9609 28.543 31.829 28.2374 31.8151 27.8763C31.8012 27.5152 31.8776 27.1819 32.0443 26.8763C32.1832 26.5707 32.2943 26.2652 32.3776 25.9596C32.4609 25.6541 32.5026 25.3346 32.5026 25.0013C32.5026 23.8346 32.0998 22.8485 31.2943 22.043C30.4887 21.2374 29.5026 20.8346 28.3359 20.8346ZM28.3359 35.0013C27.9748 35.0013 27.6762 34.8832 27.4401 34.6471C27.204 34.411 27.0859 34.1124 27.0859 33.7513V26.668C26.8359 26.4457 26.6345 26.1888 26.4818 25.8971C26.329 25.6055 26.2526 25.3069 26.2526 25.0013C26.2526 24.418 26.4609 23.9249 26.8776 23.5221C27.2943 23.1194 27.7804 22.918 28.3359 22.918C28.9193 22.918 29.4123 23.1194 29.8151 23.5221C30.2179 23.9249 30.4193 24.418 30.4193 25.0013C30.4193 25.3069 30.3568 25.6124 30.2318 25.918C30.1068 26.2235 29.8915 26.4735 29.5859 26.668V33.7513C29.5859 34.1124 29.4679 34.411 29.2318 34.6471C28.9957 34.8832 28.697 35.0013 28.3359 35.0013Z" fill="#1C1B1F"/>
<path d="M6.66927 33.3346C5.7526 33.3346 4.96788 33.0082 4.3151 32.3555C3.66233 31.7027 3.33594 30.918 3.33594 30.0013V15.0013C3.33594 14.4735 3.45399 13.9735 3.6901 13.5013C3.92622 13.0291 4.2526 12.6402 4.66927 12.3346L14.6693 4.83464C14.9748 4.61241 15.2943 4.44575 15.6276 4.33464C15.9609 4.22352 16.3082 4.16797 16.6693 4.16797C17.0304 4.16797 17.3776 4.22352 17.7109 4.33464C18.0443 4.44575 18.3637 4.61241 18.6693 4.83464L25.8359 10.168C26.2248 10.4457 26.3568 10.8069 26.2318 11.2513C26.1068 11.6957 25.8082 11.9596 25.3359 12.043C23.7248 12.4319 22.2387 13.0777 20.8776 13.9805C19.5165 14.8832 18.3637 16.0152 17.4193 17.3763C16.6415 18.5152 16.0512 19.7305 15.6484 21.0221C15.2457 22.3138 15.0443 23.6402 15.0443 25.0013C15.0443 26.1124 15.1762 27.2096 15.4401 28.293C15.704 29.3763 16.1137 30.4041 16.6693 31.3763C16.9193 31.8207 16.9262 32.2582 16.6901 32.6888C16.454 33.1194 16.0998 33.3346 15.6276 33.3346H6.66927ZM28.3359 16.668C26.0304 16.668 24.0651 17.4735 22.4401 19.0846C20.8151 20.6957 20.0026 22.668 20.0026 25.0013C20.0026 25.8902 20.1415 26.7513 20.4193 27.5846C20.697 28.418 21.0998 29.1957 21.6276 29.918C21.8498 30.2235 21.954 30.543 21.9401 30.8763C21.9262 31.2096 21.7943 31.5013 21.5443 31.7513C21.2943 32.0013 21.0026 32.1194 20.6693 32.1055C20.3359 32.0916 20.0582 31.9457 19.8359 31.668C19.1137 30.6957 18.5443 29.6471 18.1276 28.5221C17.7109 27.3971 17.5026 26.2235 17.5026 25.0013C17.5026 21.9735 18.5582 19.411 20.6693 17.3138C22.7804 15.2166 25.3359 14.168 28.3359 14.168C31.3637 14.168 33.9262 15.2166 36.0234 17.3138C38.1207 19.411 39.1693 21.9735 39.1693 25.0013C39.1693 26.2235 38.9748 27.3971 38.5859 28.5221C38.197 29.6471 37.6276 30.6957 36.8776 31.668C36.6554 31.9457 36.3776 32.0916 36.0443 32.1055C35.7109 32.1194 35.4193 32.0013 35.1693 31.7513C34.9193 31.5013 34.7873 31.2027 34.7734 30.8555C34.7595 30.5082 34.8637 30.1819 35.0859 29.8763C35.6137 29.1541 36.0095 28.3832 36.2734 27.5638C36.5373 26.7444 36.6693 25.8902 36.6693 25.0013C36.6693 22.668 35.8637 20.6957 34.2526 19.0846C32.6415 17.4735 30.6693 16.668 28.3359 16.668ZM28.3359 20.8346C27.1693 20.8346 26.1832 21.2374 25.3776 22.043C24.572 22.8485 24.1693 23.8346 24.1693 25.0013C24.1693 25.3346 24.2109 25.6541 24.2943 25.9596C24.3776 26.2652 24.5026 26.5707 24.6693 26.8763C24.8359 27.1819 24.9193 27.5221 24.9193 27.8971C24.9193 28.2721 24.7943 28.5846 24.5443 28.8346C24.2943 29.0846 23.9957 29.2027 23.6484 29.1888C23.3012 29.1749 23.0304 29.0152 22.8359 28.7096C22.447 28.1541 22.1554 27.5638 21.9609 26.9388C21.7665 26.3138 21.6693 25.668 21.6693 25.0013C21.6693 23.1402 22.322 21.5638 23.6276 20.2721C24.9332 18.9805 26.5026 18.3346 28.3359 18.3346C30.197 18.3346 31.7734 18.9805 33.0651 20.2721C34.3568 21.5638 35.0026 23.1402 35.0026 25.0013C35.0026 25.6402 34.9123 26.2791 34.7318 26.918C34.5512 27.5569 34.2665 28.1541 33.8776 28.7096C33.6832 28.9874 33.4193 29.1332 33.0859 29.1471C32.7526 29.161 32.4609 29.043 32.2109 28.793C31.9609 28.543 31.829 28.2374 31.8151 27.8763C31.8012 27.5152 31.8776 27.1819 32.0443 26.8763C32.1832 26.5707 32.2943 26.2652 32.3776 25.9596C32.4609 25.6541 32.5026 25.3346 32.5026 25.0013C32.5026 23.8346 32.0998 22.8485 31.2943 22.043C30.4887 21.2374 29.5026 20.8346 28.3359 20.8346ZM28.3359 35.0013C27.9748 35.0013 27.6762 34.8832 27.4401 34.6471C27.204 34.411 27.0859 34.1124 27.0859 33.7513V26.668C26.8359 26.4457 26.6345 26.1888 26.4818 25.8971C26.329 25.6055 26.2526 25.3069 26.2526 25.0013C26.2526 24.418 26.4609 23.9249 26.8776 23.5221C27.2943 23.1194 27.7804 22.918 28.3359 22.918C28.9193 22.918 29.4123 23.1194 29.8151 23.5221C30.2179 23.9249 30.4193 24.418 30.4193 25.0013C30.4193 25.3069 30.3568 25.6124 30.2318 25.918C30.1068 26.2235 29.8915 26.4735 29.5859 26.668V33.7513C29.5859 34.1124 29.4679 34.411 29.2318 34.6471C28.9957 34.8832 28.697 35.0013 28.3359 35.0013Z" fill="url(#paint0_linear_158_179691)"/>
</g>
<defs>
<linearGradient id="paint0_linear_158_179691" x1="21.2526" y1="4.16797" x2="21.2526" y2="35.0013" gradientUnits="userSpaceOnUse">
<stop stop-color="#F7F7F7"/>
<stop offset="1" stop-color="#ACACAC"/>
</linearGradient>
</defs>
</svg>
