<svg width="30" height="30" viewBox="0 0 30 30" fill="none" xmlns="http://www.w3.org/2000/svg">
<mask id="mask0_158_179695" style="mask-type:alpha" maskUnits="userSpaceOnUse" x="0" y="0" width="30" height="30">
<rect width="30" height="30" fill="#D9D9D9"/>
</mask>
<g mask="url(#mask0_158_179695)">
<path d="M5.625 27.5C5.125 27.5 4.6875 27.3125 4.3125 26.9375C3.9375 26.5625 3.75 26.125 3.75 25.625V6.25C3.75 5.75 3.9375 5.3125 4.3125 4.9375C4.6875 4.5625 5.125 4.375 5.625 4.375H7.65625V3.5C7.65625 3.21667 7.75208 2.97917 7.94375 2.7875C8.13542 2.59583 8.37292 2.5 8.65625 2.5C8.94833 2.5 9.19323 2.59583 9.39094 2.7875C9.58865 2.97917 9.6875 3.21667 9.6875 3.5V4.375H20.3125V3.5C20.3125 3.21667 20.4083 2.97917 20.6 2.7875C20.7917 2.59583 21.0292 2.5 21.3125 2.5C21.6048 2.5 21.8497 2.59583 22.0472 2.7875C22.2449 2.97917 22.3438 3.21667 22.3438 3.5V4.375H24.375C24.875 4.375 25.3125 4.5625 25.6875 4.9375C26.0625 5.3125 26.25 5.75 26.25 6.25V25.625C26.25 26.125 26.0625 26.5625 25.6875 26.9375C25.3125 27.3125 24.875 27.5 24.375 27.5H5.625ZM5.625 25.625H24.375V12.1875H5.625V25.625ZM15 17.5C14.6458 17.5 14.349 17.3802 14.1094 17.1406C13.8698 16.901 13.75 16.6042 13.75 16.25C13.75 15.8958 13.8698 15.599 14.1094 15.3594C14.349 15.1198 14.6458 15 15 15C15.3542 15 15.651 15.1198 15.8906 15.3594C16.1302 15.599 16.25 15.8958 16.25 16.25C16.25 16.6042 16.1302 16.901 15.8906 17.1406C15.651 17.3802 15.3542 17.5 15 17.5ZM10 17.5C9.64583 17.5 9.34896 17.3802 9.10938 17.1406C8.86979 16.901 8.75 16.6042 8.75 16.25C8.75 15.8958 8.86979 15.599 9.10938 15.3594C9.34896 15.1198 9.64583 15 10 15C10.3542 15 10.651 15.1198 10.8906 15.3594C11.1302 15.599 11.25 15.8958 11.25 16.25C11.25 16.6042 11.1302 16.901 10.8906 17.1406C10.651 17.3802 10.3542 17.5 10 17.5ZM20 17.5C19.6458 17.5 19.349 17.3802 19.1094 17.1406C18.8698 16.901 18.75 16.6042 18.75 16.25C18.75 15.8958 18.8698 15.599 19.1094 15.3594C19.349 15.1198 19.6458 15 20 15C20.3542 15 20.651 15.1198 20.8906 15.3594C21.1302 15.599 21.25 15.8958 21.25 16.25C21.25 16.6042 21.1302 16.901 20.8906 17.1406C20.651 17.3802 20.3542 17.5 20 17.5ZM15 22.5C14.6458 22.5 14.349 22.3802 14.1094 22.1406C13.8698 21.901 13.75 21.6042 13.75 21.25C13.75 20.8958 13.8698 20.599 14.1094 20.3594C14.349 20.1198 14.6458 20 15 20C15.3542 20 15.651 20.1198 15.8906 20.3594C16.1302 20.599 16.25 20.8958 16.25 21.25C16.25 21.6042 16.1302 21.901 15.8906 22.1406C15.651 22.3802 15.3542 22.5 15 22.5ZM10 22.5C9.64583 22.5 9.34896 22.3802 9.10938 22.1406C8.86979 21.901 8.75 21.6042 8.75 21.25C8.75 20.8958 8.86979 20.599 9.10938 20.3594C9.34896 20.1198 9.64583 20 10 20C10.3542 20 10.651 20.1198 10.8906 20.3594C11.1302 20.599 11.25 20.8958 11.25 21.25C11.25 21.6042 11.1302 21.901 10.8906 22.1406C10.651 22.3802 10.3542 22.5 10 22.5ZM20 22.5C19.6458 22.5 19.349 22.3802 19.1094 22.1406C18.8698 21.901 18.75 21.6042 18.75 21.25C18.75 20.8958 18.8698 20.599 19.1094 20.3594C19.349 20.1198 19.6458 20 20 20C20.3542 20 20.651 20.1198 20.8906 20.3594C21.1302 20.599 21.25 20.8958 21.25 21.25C21.25 21.6042 21.1302 21.901 20.8906 22.1406C20.651 22.3802 20.3542 22.5 20 22.5Z" fill="#3F3F3F"/>
</g>
</svg>
