<svg width="40" height="40" viewBox="0 0 40 40" fill="none" xmlns="http://www.w3.org/2000/svg">
<mask id="mask0_158_147784" style="mask-type:alpha" maskUnits="userSpaceOnUse" x="0" y="0" width="40" height="40">
<rect width="40" height="40" fill="#D9D9D9"/>
</mask>
<g mask="url(#mask0_158_147784)">
<path d="M7.5 36.6668C6.83333 36.6668 6.25 36.4168 5.75 35.9168C5.25 35.4168 5 34.8335 5 34.1668V8.3335C5 7.66683 5.25 7.0835 5.75 6.5835C6.25 6.0835 6.83333 5.8335 7.5 5.8335H10.2083V4.66683C10.2083 4.28905 10.3361 3.97239 10.5917 3.71683C10.8472 3.46127 11.1639 3.3335 11.5417 3.3335C11.9311 3.3335 12.2576 3.46127 12.5213 3.71683C12.7849 3.97239 12.9167 4.28905 12.9167 4.66683V5.8335H27.0833V4.66683C27.0833 4.28905 27.2111 3.97239 27.4667 3.71683C27.7222 3.46127 28.0389 3.3335 28.4167 3.3335C28.8064 3.3335 29.1329 3.46127 29.3962 3.71683C29.6599 3.97239 29.7917 4.28905 29.7917 4.66683V5.8335H32.5C33.1667 5.8335 33.75 6.0835 34.25 6.5835C34.75 7.0835 35 7.66683 35 8.3335V34.1668C35 34.8335 34.75 35.4168 34.25 35.9168C33.75 36.4168 33.1667 36.6668 32.5 36.6668H7.5ZM7.5 34.1668H32.5V16.2502H7.5V34.1668ZM20 23.3335C19.5278 23.3335 19.1319 23.1738 18.8125 22.8543C18.4931 22.5349 18.3333 22.1391 18.3333 21.6668C18.3333 21.1946 18.4931 20.7988 18.8125 20.4793C19.1319 20.1599 19.5278 20.0002 20 20.0002C20.4722 20.0002 20.8681 20.1599 21.1875 20.4793C21.5069 20.7988 21.6667 21.1946 21.6667 21.6668C21.6667 22.1391 21.5069 22.5349 21.1875 22.8543C20.8681 23.1738 20.4722 23.3335 20 23.3335ZM13.3333 23.3335C12.8611 23.3335 12.4653 23.1738 12.1458 22.8543C11.8264 22.5349 11.6667 22.1391 11.6667 21.6668C11.6667 21.1946 11.8264 20.7988 12.1458 20.4793C12.4653 20.1599 12.8611 20.0002 13.3333 20.0002C13.8056 20.0002 14.2014 20.1599 14.5208 20.4793C14.8403 20.7988 15 21.1946 15 21.6668C15 22.1391 14.8403 22.5349 14.5208 22.8543C14.2014 23.1738 13.8056 23.3335 13.3333 23.3335ZM26.6667 23.3335C26.1944 23.3335 25.7986 23.1738 25.4792 22.8543C25.1597 22.5349 25 22.1391 25 21.6668C25 21.1946 25.1597 20.7988 25.4792 20.4793C25.7986 20.1599 26.1944 20.0002 26.6667 20.0002C27.1389 20.0002 27.5347 20.1599 27.8542 20.4793C28.1736 20.7988 28.3333 21.1946 28.3333 21.6668C28.3333 22.1391 28.1736 22.5349 27.8542 22.8543C27.5347 23.1738 27.1389 23.3335 26.6667 23.3335ZM20 30.0002C19.5278 30.0002 19.1319 29.8404 18.8125 29.521C18.4931 29.2016 18.3333 28.8057 18.3333 28.3335C18.3333 27.8613 18.4931 27.4654 18.8125 27.146C19.1319 26.8266 19.5278 26.6668 20 26.6668C20.4722 26.6668 20.8681 26.8266 21.1875 27.146C21.5069 27.4654 21.6667 27.8613 21.6667 28.3335C21.6667 28.8057 21.5069 29.2016 21.1875 29.521C20.8681 29.8404 20.4722 30.0002 20 30.0002ZM13.3333 30.0002C12.8611 30.0002 12.4653 29.8404 12.1458 29.521C11.8264 29.2016 11.6667 28.8057 11.6667 28.3335C11.6667 27.8613 11.8264 27.4654 12.1458 27.146C12.4653 26.8266 12.8611 26.6668 13.3333 26.6668C13.8056 26.6668 14.2014 26.8266 14.5208 27.146C14.8403 27.4654 15 27.8613 15 28.3335C15 28.8057 14.8403 29.2016 14.5208 29.521C14.2014 29.8404 13.8056 30.0002 13.3333 30.0002ZM26.6667 30.0002C26.1944 30.0002 25.7986 29.8404 25.4792 29.521C25.1597 29.2016 25 28.8057 25 28.3335C25 27.8613 25.1597 27.4654 25.4792 27.146C25.7986 26.8266 26.1944 26.6668 26.6667 26.6668C27.1389 26.6668 27.5347 26.8266 27.8542 27.146C28.1736 27.4654 28.3333 27.8613 28.3333 28.3335C28.3333 28.8057 28.1736 29.2016 27.8542 29.521C27.5347 29.8404 27.1389 30.0002 26.6667 30.0002Z" fill="black"/>
</g>
</svg>
