<svg width="30" height="30" viewBox="0 0 30 30" fill="none" xmlns="http://www.w3.org/2000/svg">
<path d="M26.25 14.0616V25.3116C26.25 25.5603 26.1512 25.7987 25.9754 25.9745C25.7996 26.1504 25.5611 26.2491 25.3125 26.2491H18.75C18.5014 26.2491 18.2629 26.1504 18.0871 25.9745C17.9113 25.7987 17.8125 25.5603 17.8125 25.3116V19.2179C17.8125 19.0936 17.7631 18.9743 17.6752 18.8864C17.5873 18.7985 17.4681 18.7491 17.3438 18.7491H12.6562C12.5319 18.7491 12.4127 18.7985 12.3248 18.8864C12.2369 18.9743 12.1875 19.0936 12.1875 19.2179V25.3116C12.1875 25.5603 12.0887 25.7987 11.9129 25.9745C11.7371 26.1504 11.4986 26.2491 11.25 26.2491H4.6875C4.43886 26.2491 4.2004 26.1504 4.02459 25.9745C3.84877 25.7987 3.75 25.5603 3.75 25.3116V14.0616C3.75023 13.5644 3.94793 13.0877 4.29961 12.7362L13.6746 3.36124C14.0262 3.00988 14.5029 2.8125 15 2.8125C15.4971 2.8125 15.9738 3.00988 16.3254 3.36124L25.7004 12.7362C26.0521 13.0877 26.2498 13.5644 26.25 14.0616Z" fill="white"/>
</svg>
