<svg width="40" height="40" viewBox="0 0 40 40" fill="none" xmlns="http://www.w3.org/2000/svg">
<path d="M35 18.7488V33.7488C35 34.0804 34.8683 34.3983 34.6339 34.6327C34.3995 34.8671 34.0815 34.9988 33.75 34.9988H25C24.6685 34.9988 24.3505 34.8671 24.1161 34.6327C23.8817 34.3983 23.75 34.0804 23.75 33.7488V25.6238C23.75 25.4581 23.6842 25.2991 23.5669 25.1819C23.4497 25.0647 23.2908 24.9988 23.125 24.9988H16.875C16.7092 24.9988 16.5503 25.0647 16.4331 25.1819C16.3158 25.2991 16.25 25.4581 16.25 25.6238V33.7488C16.25 34.0804 16.1183 34.3983 15.8839 34.6327C15.6495 34.8671 15.3315 34.9988 15 34.9988H6.25C5.91848 34.9988 5.60054 34.8671 5.36612 34.6327C5.1317 34.3983 5 34.0804 5 33.7488V18.7488C5.00031 18.0859 5.2639 17.4503 5.73281 16.9817L18.2328 4.48165C18.7016 4.01317 19.3372 3.75 20 3.75C20.6628 3.75 21.2984 4.01317 21.7672 4.48165L34.2672 16.9817C34.7361 17.4503 34.9997 18.0859 35 18.7488Z" fill="#A1A1A1"/>
</svg>
