<svg width="40" height="40" viewBox="0 0 40 40" fill="none" xmlns="http://www.w3.org/2000/svg">
<mask id="mask0_158_105804" style="mask-type:alpha" maskUnits="userSpaceOnUse" x="0" y="0" width="40" height="40">
<rect width="40" height="40" fill="#3F3F3F"/>
</mask>
<g mask="url(#mask0_158_105804)">
<path d="M18.5309 32.499C17.9684 32.499 17.484 32.3115 17.0777 31.9365C16.6715 31.5615 16.4267 31.1032 16.3434 30.5615L16.0621 28.499C15.7913 28.3949 15.5361 28.2699 15.2965 28.124C15.0569 27.9782 14.8225 27.8219 14.5934 27.6553L12.6559 28.4678C12.135 28.6969 11.6142 28.7178 11.0934 28.5303C10.5725 28.3428 10.1663 28.0094 9.87461 27.5303L8.40586 24.9678C8.11419 24.4886 8.03086 23.9782 8.15586 23.4365C8.28086 22.8949 8.56211 22.4469 8.99961 22.0928L10.6559 20.8428C10.635 20.6969 10.6246 20.5563 10.6246 20.4209V19.5771C10.6246 19.4417 10.635 19.3011 10.6559 19.1553L8.99961 17.9053C8.56211 17.5511 8.28086 17.1032 8.15586 16.5615C8.03086 16.0199 8.11419 15.5094 8.40586 15.0303L9.87461 12.4678C10.1663 11.9886 10.5725 11.6553 11.0934 11.4678C11.6142 11.2803 12.135 11.3011 12.6559 11.5303L14.5934 12.3428C14.8225 12.1761 15.0621 12.0199 15.3121 11.874C15.5621 11.7282 15.8121 11.6032 16.0621 11.499L16.3434 9.43652C16.4267 8.89486 16.6715 8.43652 17.0777 8.06152C17.484 7.68652 17.9684 7.49902 18.5309 7.49902H21.4684C22.0309 7.49902 22.5152 7.68652 22.9215 8.06152C23.3277 8.43652 23.5725 8.89486 23.6559 9.43652L23.9371 11.499C24.2079 11.6032 24.4632 11.7282 24.7027 11.874C24.9423 12.0199 25.1767 12.1761 25.4059 12.3428L27.3434 11.5303C27.8642 11.3011 28.385 11.2803 28.9059 11.4678C29.4267 11.6553 29.8329 11.9886 30.1246 12.4678L31.5934 15.0303C31.885 15.5094 31.9684 16.0199 31.8434 16.5615C31.7184 17.1032 31.4371 17.5511 30.9996 17.9053L29.3434 19.1553C29.3642 19.3011 29.3746 19.4417 29.3746 19.5771V20.4209C29.3746 20.5563 29.3538 20.6969 29.3121 20.8428L30.9684 22.0928C31.4059 22.4469 31.6871 22.8949 31.8121 23.4365C31.9371 23.9782 31.8538 24.4886 31.5621 24.9678L30.0621 27.5303C29.7704 28.0094 29.3642 28.3428 28.8434 28.5303C28.3225 28.7178 27.8017 28.6969 27.2809 28.4678L25.4059 27.6553C25.1767 27.8219 24.9371 27.9782 24.6871 28.124C24.4371 28.2699 24.1871 28.3949 23.9371 28.499L23.6559 30.5615C23.5725 31.1032 23.3277 31.5615 22.9215 31.9365C22.5152 32.3115 22.0309 32.499 21.4684 32.499H18.5309ZM20.0621 24.374C21.2704 24.374 22.3017 23.9469 23.1559 23.0928C24.01 22.2386 24.4371 21.2074 24.4371 19.999C24.4371 18.7907 24.01 17.7594 23.1559 16.9053C22.3017 16.0511 21.2704 15.624 20.0621 15.624C18.8329 15.624 17.7965 16.0511 16.9527 16.9053C16.109 17.7594 15.6871 18.7907 15.6871 19.999C15.6871 21.2074 16.109 22.2386 16.9527 23.0928C17.7965 23.9469 18.8329 24.374 20.0621 24.374Z" fill="url(#paint0_linear_158_105804)"/>
</g>
<defs>
<linearGradient id="paint0_linear_158_105804" x1="19.9996" y1="7.49902" x2="19.9996" y2="32.499" gradientUnits="userSpaceOnUse">
<stop stop-color="#F7F7F7"/>
<stop offset="1" stop-color="#ACACAC"/>
</linearGradient>
</defs>
</svg>
