<svg width="40" height="40" viewBox="0 0 40 40" fill="none" xmlns="http://www.w3.org/2000/svg">
<mask id="mask0_641_47044" style="mask-type:alpha" maskUnits="userSpaceOnUse" x="0" y="0" width="40" height="40">
<rect width="40" height="40" fill="#3F3F3F"/>
</mask>
<g mask="url(#mask0_641_47044)">
<path d="M18.2721 35C17.6103 35 17.0404 34.7825 16.5625 34.3475C16.0846 33.9125 15.7966 33.3808 15.6985 32.7525L15.3676 30.36C15.049 30.2392 14.7488 30.0942 14.4669 29.925C14.185 29.7558 13.9093 29.5746 13.6397 29.3813L11.3603 30.3237C10.7475 30.5896 10.1348 30.6138 9.52206 30.3963C8.90931 30.1788 8.43137 29.7921 8.08824 29.2362L6.36029 26.2638C6.01716 25.7079 5.91912 25.1158 6.06618 24.4875C6.21324 23.8592 6.54412 23.3396 7.05882 22.9288L9.00735 21.4788C8.98284 21.3096 8.97059 21.1465 8.97059 20.9894V20.0106C8.97059 19.8535 8.98284 19.6904 9.00735 19.5212L7.05882 18.0712C6.54412 17.6604 6.21324 17.1408 6.06618 16.5125C5.91912 15.8842 6.01716 15.2921 6.36029 14.7363L8.08824 11.7638C8.43137 11.2079 8.90931 10.8212 9.52206 10.6038C10.1348 10.3863 10.7475 10.4104 11.3603 10.6763L13.6397 11.6188C13.9093 11.4254 14.1912 11.2442 14.4853 11.075C14.7794 10.9058 15.0735 10.7608 15.3676 10.64L15.6985 8.2475C15.7966 7.61917 16.0846 7.0875 16.5625 6.6525C17.0404 6.2175 17.6103 6 18.2721 6H21.7279C22.3897 6 22.9596 6.2175 23.4375 6.6525C23.9154 7.0875 24.2034 7.61917 24.3015 8.2475L24.6324 10.64C24.951 10.7608 25.2512 10.9058 25.5331 11.075C25.815 11.2442 26.0907 11.4254 26.3603 11.6188L28.6397 10.6763C29.2524 10.4104 29.8652 10.3863 30.4779 10.6038C31.0907 10.8212 31.5686 11.2079 31.9118 11.7638L33.6397 14.7363C33.9828 15.2921 34.0809 15.8842 33.9338 16.5125C33.7868 17.1408 33.4559 17.6604 32.9412 18.0712L30.9926 19.5212C31.0172 19.6904 31.0294 19.8535 31.0294 20.0106V20.9894C31.0294 21.1465 31.0049 21.3096 30.9559 21.4788L32.9044 22.9288C33.4191 23.3396 33.75 23.8592 33.8971 24.4875C34.0441 25.1158 33.9461 25.7079 33.6029 26.2638L31.8382 29.2362C31.4951 29.7921 31.0172 30.1788 30.4044 30.3963C29.7917 30.6138 29.1789 30.5896 28.5662 30.3237L26.3603 29.3813C26.0907 29.5746 25.8088 29.7558 25.5147 29.925C25.2206 30.0942 24.9265 30.2392 24.6324 30.36L24.3015 32.7525C24.2034 33.3808 23.9154 33.9125 23.4375 34.3475C22.9596 34.7825 22.3897 35 21.7279 35H18.2721ZM20.0735 25.575C21.4951 25.575 22.7083 25.0796 23.7132 24.0888C24.7181 23.0979 25.2206 21.9017 25.2206 20.5C25.2206 19.0983 24.7181 17.9021 23.7132 16.9113C22.7083 15.9204 21.4951 15.425 20.0735 15.425C18.6274 15.425 17.4081 15.9204 16.4154 16.9113C15.4228 17.9021 14.9265 19.0983 14.9265 20.5C14.9265 21.9017 15.4228 23.0979 16.4154 24.0888C17.4081 25.0796 18.6274 25.575 20.0735 25.575Z" fill="url(#paint0_linear_641_47044)"/>
</g>
<defs>
<linearGradient id="paint0_linear_641_47044" x1="20" y1="6" x2="20" y2="35" gradientUnits="userSpaceOnUse">
<stop stop-color="#2D2D2D"/>
<stop offset="1" stop-color="#515151"/>
</linearGradient>
</defs>
</svg>
