<svg width="40" height="40" viewBox="0 0 40 40" fill="none" xmlns="http://www.w3.org/2000/svg">
<mask id="mask0_763_90075" style="mask-type:alpha" maskUnits="userSpaceOnUse" x="0" y="0" width="40" height="40">
<rect x="40" y="40" width="40" height="40" transform="rotate(-180 40 40)" fill="#3F3F3F"/>
</mask>
<g mask="url(#mask0_763_90075)">
<path d="M21.7279 5C22.3897 5 22.9596 5.225 23.4375 5.675C23.9154 6.125 24.2034 6.675 24.3015 7.325L24.6324 9.8C24.951 9.925 25.2512 10.075 25.5331 10.25C25.815 10.425 26.0907 10.6125 26.3603 10.8125L28.6397 9.8375C29.2525 9.5625 29.8652 9.5375 30.4779 9.7625C31.0907 9.9875 31.5686 10.3875 31.9118 10.9625L33.6397 14.0375C33.9828 14.6125 34.0809 15.225 33.9338 15.875C33.7868 16.525 33.4559 17.0625 32.9412 17.4875L30.9926 18.9875C31.0172 19.1625 31.0294 19.3312 31.0294 19.4937V20.5062C31.0294 20.6687 31.0172 20.8375 30.9926 21.0125L32.9412 22.5125C33.4559 22.9375 33.7868 23.475 33.9338 24.125C34.0809 24.775 33.9828 25.3875 33.6397 25.9625L31.9118 29.0375C31.5686 29.6125 31.0907 30.0125 30.4779 30.2375C29.8652 30.4625 29.2525 30.4375 28.6397 30.1625L26.3603 29.1875C26.0907 29.3875 25.8088 29.575 25.5147 29.75C25.2206 29.925 24.9265 30.075 24.6324 30.2L24.3015 32.675C24.2034 33.325 23.9154 33.875 23.4375 34.325C22.9596 34.775 22.3897 35 21.7279 35H18.2721C17.6103 35 17.0404 34.775 16.5625 34.325C16.0846 33.875 15.7966 33.325 15.6985 32.675L15.3676 30.2C15.049 30.075 14.7488 29.925 14.4669 29.75C14.185 29.575 13.9093 29.3875 13.6397 29.1875L11.3603 30.1625C10.7476 30.4375 10.1348 30.4625 9.52206 30.2375C8.90931 30.0125 8.43137 29.6125 8.08823 29.0375L6.36029 25.9625C6.01716 25.3875 5.91912 24.775 6.06618 24.125C6.21323 23.475 6.54412 22.9375 7.05882 22.5125L9.00735 21.0125C8.98284 20.8375 8.97059 20.6687 8.97059 20.5062V19.4937C8.97059 19.3312 8.9951 19.1625 9.04412 18.9875L7.09559 17.4875C6.58088 17.0625 6.25 16.525 6.10294 15.875C5.95588 15.225 6.05392 14.6125 6.39706 14.0375L8.16177 10.9625C8.5049 10.3875 8.98285 9.9875 9.59559 9.7625C10.2083 9.5375 10.8211 9.5625 11.4338 9.8375L13.6397 10.8125C13.9093 10.6125 14.1912 10.425 14.4853 10.25C14.7794 10.075 15.0735 9.925 15.3676 9.8L15.6985 7.325C15.7966 6.675 16.0846 6.125 16.5625 5.675C17.0404 5.225 17.6103 5 18.2721 5H21.7279ZM19.9265 14.75C18.5049 14.75 17.2917 15.2625 16.2868 16.2875C15.2819 17.3125 14.7794 18.55 14.7794 20C14.7794 21.45 15.2819 22.6875 16.2868 23.7125C17.2917 24.7375 18.5049 25.25 19.9265 25.25C21.3726 25.25 22.5919 24.7375 23.5846 23.7125C24.5772 22.6875 25.0735 21.45 25.0735 20C25.0735 18.55 24.5772 17.3125 23.5846 16.2875C22.5919 15.2625 21.3726 14.75 19.9265 14.75Z" fill="url(#paint0_linear_763_90075)"/>
</g>
<defs>
<linearGradient id="paint0_linear_763_90075" x1="20" y1="35" x2="20" y2="5" gradientUnits="userSpaceOnUse">
<stop stop-color="#606060"/>
<stop offset="1" stop-color="#515151"/>
</linearGradient>
</defs>
</svg>
