<svg width="40" height="40" viewBox="0 0 40 40" fill="none" xmlns="http://www.w3.org/2000/svg">
<mask id="mask0_158_144322" style="mask-type:alpha" maskUnits="userSpaceOnUse" x="0" y="0" width="40" height="40">
<rect y="40" width="40" height="40" transform="rotate(-90 0 40)" fill="#3F3F3F"/>
</mask>
<g mask="url(#mask0_158_144322)">
<path d="M33.3337 23.3333C33.3337 26.0948 31.0951 28.3333 28.3337 28.3333H11.667C8.90557 28.3333 6.66699 26.0948 6.66699 23.3333V16.6667C6.66699 13.9052 8.90557 11.6667 11.667 11.6667H28.3337C31.0951 11.6667 33.3337 13.9052 33.3337 16.6667V23.3333ZM30.0003 33.75C30.0003 34.4404 29.4407 35 28.7503 35H11.2503C10.56 35 10.0003 34.4404 10.0003 33.75C10.0003 33.0596 10.56 32.5 11.2503 32.5H28.7503C29.4407 32.5 30.0003 33.0596 30.0003 33.75ZM30.0003 6.25C30.0003 6.94036 29.4407 7.5 28.7503 7.5H11.2503C10.56 7.5 10.0003 6.94036 10.0003 6.25C10.0003 5.55964 10.56 5 11.2503 5H28.7503C29.4407 5 30.0003 5.55964 30.0003 6.25Z" fill="#A1A1A1"/>
</g>
</svg>
