<svg width="30" height="30" viewBox="0 0 30 30" fill="none" xmlns="http://www.w3.org/2000/svg">
<mask id="mask0_158_179700" style="mask-type:alpha" maskUnits="userSpaceOnUse" x="0" y="0" width="30" height="30">
<rect y="30" width="30" height="30" transform="rotate(-90 0 30)" fill="#3F3F3F"/>
</mask>
<g mask="url(#mask0_158_179700)">
<path d="M25 16.25C25 19.0114 22.7614 21.25 20 21.25H10C7.23858 21.25 5 19.0114 5 16.25V13.75C5 10.9886 7.23858 8.75 10 8.75H20C22.7614 8.75 25 10.9886 25 13.75V16.25ZM22.5 25.3125C22.5 25.8303 22.0803 26.25 21.5625 26.25H8.4375C7.91973 26.25 7.5 25.8303 7.5 25.3125C7.5 24.7947 7.91973 24.375 8.4375 24.375H21.5625C22.0803 24.375 22.5 24.7947 22.5 25.3125ZM22.5 4.6875C22.5 5.20527 22.0803 5.625 21.5625 5.625H8.4375C7.91973 5.625 7.5 5.20527 7.5 4.6875C7.5 4.16973 7.91973 3.75 8.4375 3.75H21.5625C22.0803 3.75 22.5 4.16973 22.5 4.6875Z" fill="#3F3F3F"/>
</g>
</svg>
