<svg width="32" height="32" viewBox="0 0 32 32" fill="none" xmlns="http://www.w3.org/2000/svg">
<path d="M16.0013 12.0003C13.7915 12.0003 12.0013 13.7911 12.0013 16.0003C12.0013 18.2101 13.7921 20.0003 16.0013 20.0003C18.2111 20.0003 20.0013 18.2095 20.0013 16.0003C20.0013 13.7906 18.2105 12.0003 16.0013 12.0003ZM16.0013 9.33366C19.6819 9.33366 22.668 12.3165 22.668 16.0003C22.668 19.681 19.6852 22.667 16.0013 22.667C12.3207 22.667 9.33464 19.6842 9.33464 16.0003C9.33464 12.3197 12.3174 9.33366 16.0013 9.33366ZM24.668 8.99919C24.668 9.91934 23.9203 10.6659 23.0013 10.6659C22.0812 10.6659 21.3347 9.91819 21.3347 8.99919C21.3347 8.08019 22.0823 7.33366 23.0013 7.33366C23.9191 7.3325 24.668 8.08019 24.668 8.99919ZM16.0013 5.33366C12.702 5.33366 12.1642 5.34239 10.6297 5.41073C9.5842 5.45981 8.88337 5.60042 8.23221 5.85322C7.65354 6.07765 7.23612 6.34563 6.79136 6.79039C6.34489 7.23686 6.07738 7.65317 5.85386 8.2321C5.60048 8.88475 5.4599 9.58447 5.4117 10.6285C5.3427 12.1006 5.33464 12.6151 5.33464 16.0003C5.33464 19.2997 5.34337 19.8374 5.41169 21.3718C5.4608 22.4169 5.6016 23.1187 5.85378 23.7683C6.0788 24.3478 6.34733 24.7662 6.78994 25.2089C7.23817 25.6565 7.65572 25.9249 8.22916 26.1462C8.88825 26.401 9.58864 26.5418 10.6295 26.5899C12.1016 26.6589 12.616 26.667 16.0013 26.667C19.3007 26.667 19.8384 26.6582 21.3728 26.5899C22.4156 26.541 23.118 26.3998 23.7693 26.1478C24.3472 25.9234 24.7669 25.6539 25.2099 25.2117C25.6581 24.7627 25.926 24.3462 26.1476 23.7714C26.4017 23.1147 26.5428 22.4134 26.5909 21.3722C26.6599 19.9001 26.668 19.3855 26.668 16.0003C26.668 12.701 26.6592 12.1633 26.5909 10.6288C26.5419 9.58574 26.4007 8.88231 26.1484 8.23123C25.9245 7.65417 25.6556 7.23546 25.2112 6.79039C24.764 6.34319 24.3488 6.07623 23.7695 5.85289C23.1173 5.59971 22.4165 5.45894 21.3731 5.41074C19.9011 5.34173 19.3865 5.33366 16.0013 5.33366ZM16.0013 2.66699C19.6235 2.66699 20.0757 2.68033 21.498 2.74699C22.9168 2.81255 23.8847 3.03699 24.7347 3.36699C25.6135 3.70589 26.3557 4.16366 27.0968 4.90477C27.8368 5.64589 28.2947 6.39033 28.6347 7.26699C28.9635 8.11588 29.188 9.08477 29.2547 10.5037C29.318 11.9259 29.3347 12.3781 29.3347 16.0003C29.3347 19.6226 29.3213 20.0747 29.2547 21.497C29.1891 22.9159 28.9635 23.8837 28.6347 24.7337C28.2957 25.6126 27.8368 26.3547 27.0968 27.0959C26.3557 27.8359 25.6101 28.2937 24.7347 28.6337C23.8847 28.9626 22.9168 29.187 21.498 29.2537C20.0757 29.317 19.6235 29.3337 16.0013 29.3337C12.3791 29.3337 11.9268 29.3203 10.5046 29.2537C9.08574 29.1881 8.11908 28.9626 7.26797 28.6337C6.39018 28.2947 5.64685 27.8359 4.90574 27.0959C4.16464 26.3547 3.70797 25.6093 3.36797 24.7337C3.03797 23.8837 2.81464 22.9159 2.74797 21.497C2.68464 20.0747 2.66797 19.6226 2.66797 16.0003C2.66797 12.3781 2.6813 11.9259 2.74797 10.5037C2.81352 9.08366 3.03797 8.11699 3.36797 7.26699C3.70685 6.38922 4.16464 5.64589 4.90574 4.90477C5.64685 4.16366 6.3913 3.70699 7.26797 3.36699C8.11797 3.03699 9.08464 2.81366 10.5046 2.74699C11.9268 2.68366 12.3791 2.66699 16.0013 2.66699Z" fill="white"/>
</svg>
