<svg width="20" height="20" viewBox="0 0 20 20" fill="none" xmlns="http://www.w3.org/2000/svg">
<path fill-rule="evenodd" clip-rule="evenodd" d="M10 1.5C9.44771 1.5 9 1.94772 9 2.5V17.5C9 18.0523 9.44771 18.5 10 18.5C10.5523 18.5 11 18.0523 11 17.5V2.5C11 1.94772 10.5523 1.5 10 1.5ZM5 6.5C5 5.94772 5.44772 5.5 6 5.5C6.55228 5.5 7 5.94772 7 6.5V17.5C7 18.0523 6.55228 18.5 6 18.5C5.44772 18.5 5 18.0523 5 17.5V6.5ZM13 6.5C13 5.94772 13.4477 5.5 14 5.5C14.5523 5.5 15 5.94772 15 6.5V17.5C15 18.0523 14.5523 18.5 14 18.5C13.4477 18.5 13 18.0523 13 17.5V6.5ZM18 7.5C17.4477 7.5 17 7.94771 17 8.5V17.5C17 18.0523 17.4477 18.5 18 18.5C18.5523 18.5 19 18.0523 19 17.5V8.5C19 7.94772 18.5523 7.5 18 7.5ZM1 8.5C1 7.94771 1.44772 7.5 2 7.5C2.55228 7.5 3 7.94772 3 8.5V17.5C3 18.0523 2.55228 18.5 2 18.5C1.44772 18.5 1 18.0523 1 17.5V8.5Z" fill="#3D62E4"/>
</svg>
