<svg width="12" height="15" viewBox="0 0 12 15" fill="none" xmlns="http://www.w3.org/2000/svg">
<path fill-rule="evenodd" clip-rule="evenodd" d="M1.9375 1.20184C1.76491 1.20184 1.625 1.35895 1.625 1.55276V13.4453C1.625 13.738 1.92528 13.902 2.13036 13.7214L5.42143 10.8228C5.76113 10.5236 6.23887 10.5236 6.57857 10.8228L9.86965 13.7214C10.0747 13.902 10.375 13.738 10.375 13.4453V1.55276C10.375 1.35895 10.2351 1.20184 10.0625 1.20184H1.9375ZM1 1.55276C1 0.971336 1.41973 0.5 1.9375 0.5H10.0625C10.5803 0.5 11 0.971336 11 1.55276V13.4453C11 14.3233 10.0992 14.8155 9.48393 14.2737L6.19286 11.3751C6.07962 11.2753 5.92038 11.2753 5.80714 11.3751L2.51607 14.2737C1.90082 14.8155 1 14.3233 1 13.4453V1.55276Z" fill="white" stroke="white"/>
</svg>
