<svg width="20" height="20" viewBox="0 0 20 20" fill="none" xmlns="http://www.w3.org/2000/svg">
<path d="M16.4159 12.8013L16.5138 12.8578L16.5579 12.7536C17.9332 9.50251 16.6989 5.66221 13.5582 3.85219C11.3195 2.562 8.67031 2.62506 6.56109 3.78665L5.79067 2.44067C8.3641 1.01518 11.6008 0.934547 14.3347 2.51018C18.2255 4.75249 19.7148 9.55213 17.9022 13.5538L17.8648 13.6364L17.9434 13.6817L18.9627 14.2692L15.6133 16.0465L15.4806 12.2623L16.4159 12.8013ZM3.58934 7.19866L3.49136 7.1422L3.4473 7.24635C2.07205 10.4975 3.30638 14.3378 6.44702 16.1478C8.68566 17.438 11.3348 17.375 13.4439 16.2134L14.2144 17.5594C11.641 18.9848 8.40441 19.0654 5.67047 17.4898C1.77976 15.2475 0.290461 10.4479 2.103 6.44623L2.14042 6.36362L2.06184 6.31833L1.04247 5.73085L4.39193 3.95349L4.52467 7.73771L3.58934 7.19866Z" fill="#616472" stroke="#616472" stroke-width="0.2"/>
</svg>
