<svg width="14" height="14" viewBox="0 0 14 14" fill="none" xmlns="http://www.w3.org/2000/svg">
<path fill-rule="evenodd" clip-rule="evenodd" d="M7.00511 2C7.21073 2 7.37742 2.16968 7.37742 2.37899V6.77706L8.75885 5.57171C8.91497 5.4355 9.15 5.4539 9.28382 5.61282C9.41763 5.77174 9.39955 6.011 9.24344 6.14722L7.24933 7.88713C7.15047 7.97339 7.01827 7.99849 6.90001 7.96242C6.84093 7.94476 6.78796 7.91259 6.74506 7.86996L4.77064 6.14722C4.61453 6.011 4.59645 5.77174 4.73026 5.61282C4.86408 5.4539 5.09911 5.4355 5.25523 5.57171L6.63281 6.77369V2.37899C6.63281 2.16968 6.79949 2 7.00511 2ZM2.24461 8.30086C2.24461 8.09155 2.07792 7.92188 1.87231 7.92188C1.66669 7.92188 1.5 8.09155 1.5 8.30086V10.6208C1.5 10.8301 1.66669 10.9997 1.87231 10.9997H12.1277C12.3333 10.9997 12.5 10.8301 12.5 10.6208V8.30086C12.5 8.09155 12.3333 7.92188 12.1277 7.92188C11.9221 7.92188 11.7554 8.09155 11.7554 8.30086V10.2418H2.24461V8.30086Z" fill="#5B5B5B"/>
<path d="M7.37742 6.77706H7.22742C7.22742 6.83588 7.26179 6.88927 7.31534 6.91361C7.36888 6.93795 7.43172 6.92875 7.47603 6.89008L7.37742 6.77706ZM8.75885 5.57171L8.66023 5.45869L8.75885 5.57171ZM9.28382 5.61282L9.16908 5.70944L9.16908 5.70944L9.28382 5.61282ZM9.24344 6.14722L9.34205 6.26024L9.24344 6.14722ZM7.24933 7.88713L7.15072 7.77411L7.15072 7.77411L7.24933 7.88713ZM6.90001 7.96242L6.94377 7.81894L6.94298 7.81871L6.90001 7.96242ZM6.74506 7.86996L6.85101 7.76333L6.84368 7.75693L6.74506 7.86996ZM4.77064 6.14722L4.86926 6.03419L4.77064 6.14722ZM4.73026 5.61282L4.61552 5.51621H4.61552L4.73026 5.61282ZM5.25523 5.57171L5.35385 5.45869L5.25523 5.57171ZM6.63281 6.77369L6.53419 6.88672C6.57851 6.92539 6.64134 6.93459 6.69488 6.91024C6.74843 6.8859 6.78281 6.83251 6.78281 6.77369H6.63281ZM11.7554 10.2418V10.3918C11.8382 10.3918 11.9054 10.3246 11.9054 10.2418H11.7554ZM2.24461 10.2418H2.09461C2.09461 10.3246 2.16177 10.3918 2.24461 10.3918V10.2418ZM7.52742 2.37899C7.52742 2.08936 7.29608 1.85 7.00511 1.85V2.15C7.12538 2.15 7.22742 2.24999 7.22742 2.37899H7.52742ZM7.52742 6.77706V2.37899H7.22742V6.77706H7.52742ZM8.66023 5.45869L7.2788 6.66403L7.47603 6.89008L8.85747 5.68474L8.66023 5.45869ZM9.39856 5.51621C9.21098 5.29343 8.87985 5.26707 8.66023 5.45869L8.85747 5.68474C8.95009 5.60393 9.08903 5.61437 9.16908 5.70944L9.39856 5.51621ZM9.34205 6.26024C9.5601 6.06999 9.58483 5.73742 9.39856 5.51621L9.16908 5.70944C9.25044 5.80606 9.23901 5.95201 9.14482 6.03419L9.34205 6.26024ZM7.34795 8.00016L9.34205 6.26024L9.14482 6.03419L7.15072 7.77411L7.34795 8.00016ZM6.85625 8.1059C7.0229 8.15673 7.20918 8.12124 7.34795 8.00016L7.15072 7.77411C7.09176 7.82555 7.01363 7.84025 6.94377 7.81895L6.85625 8.1059ZM6.63933 7.97635C6.69922 8.03588 6.77358 8.08118 6.85704 8.10613L6.94298 7.81871C6.90829 7.80833 6.87669 7.7893 6.85079 7.76356L6.63933 7.97635ZM4.67203 6.26024L6.64644 7.98298L6.84368 7.75693L4.86926 6.03419L4.67203 6.26024ZM4.61552 5.51621C4.42925 5.73742 4.45398 6.06999 4.67203 6.26024L4.86926 6.03419C4.77507 5.95201 4.76364 5.80606 4.845 5.70944L4.61552 5.51621ZM5.35385 5.45869C5.13423 5.26707 4.8031 5.29343 4.61552 5.51621L4.845 5.70944C4.92505 5.61437 5.06399 5.60393 5.15661 5.68474L5.35385 5.45869ZM6.73142 6.66067L5.35385 5.45869L5.15661 5.68474L6.53419 6.88672L6.73142 6.66067ZM6.48281 2.37899V6.77369H6.78281V2.37899H6.48281ZM7.00511 1.85C6.71415 1.85 6.48281 2.08936 6.48281 2.37899H6.78281C6.78281 2.24999 6.88484 2.15 7.00511 2.15V1.85ZM1.87231 8.07188C1.99258 8.07188 2.09461 8.17187 2.09461 8.30086H2.39461C2.39461 8.01124 2.16327 7.77187 1.87231 7.77187V8.07188ZM1.65 8.30086C1.65 8.17187 1.75203 8.07188 1.87231 8.07188V7.77187C1.58134 7.77187 1.35 8.01124 1.35 8.30086H1.65ZM1.65 10.6208V8.30086H1.35V10.6208H1.65ZM1.87231 10.8497C1.75203 10.8497 1.65 10.7498 1.65 10.6208H1.35C1.35 10.9104 1.58134 11.1497 1.87231 11.1497V10.8497ZM12.1277 10.8497H1.87231V11.1497H12.1277V10.8497ZM12.35 10.6208C12.35 10.7498 12.248 10.8497 12.1277 10.8497V11.1497C12.4187 11.1497 12.65 10.9104 12.65 10.6208H12.35ZM12.35 8.30086V10.6208H12.65V8.30086H12.35ZM12.1277 8.07188C12.248 8.07188 12.35 8.17187 12.35 8.30086H12.65C12.65 8.01124 12.4187 7.77187 12.1277 7.77187V8.07188ZM11.9054 8.30086C11.9054 8.17187 12.0074 8.07188 12.1277 8.07188V7.77187C11.8367 7.77187 11.6054 8.01124 11.6054 8.30086H11.9054ZM11.9054 10.2418V8.30086H11.6054V10.2418H11.9054ZM2.24461 10.3918H11.7554V10.0918H2.24461V10.3918ZM2.09461 8.30086V10.2418H2.39461V8.30086H2.09461Z" fill="#5B5B5B"/>
</svg>
