<svg width="12" height="12" viewBox="0 0 12 12" fill="none" xmlns="http://www.w3.org/2000/svg">
<path fill-rule="evenodd" clip-rule="evenodd" d="M5.91568 1.18066C6.12912 1.18066 6.30215 1.35369 6.30215 1.56714V6.05595L7.73893 4.82443C7.90099 4.68553 8.14497 4.70429 8.28387 4.86635C8.42278 5.02841 8.40401 5.27239 8.24195 5.4113L6.17197 7.18557C6.05538 7.2855 5.89413 7.30493 5.76017 7.24387C5.71478 7.22389 5.67395 7.19544 5.63971 7.16051L3.59896 5.4113C3.4369 5.27239 3.41813 5.02841 3.55704 4.86635C3.69595 4.70429 3.93993 4.68553 4.10198 4.82443L5.52921 6.04777V1.56714C5.52921 1.35369 5.70224 1.18066 5.91568 1.18066ZM0.976071 7.60578C0.976071 7.39233 0.803041 7.21931 0.589598 7.21931C0.376155 7.21931 0.203125 7.39233 0.203125 7.60578V9.97148C0.203125 10.1849 0.376155 10.3579 0.589598 10.3579H11.2352C11.4487 10.3579 11.6217 10.1849 11.6217 9.97148V7.60578C11.6217 7.39233 11.4487 7.21931 11.2352 7.21931C11.0218 7.21931 10.8488 7.39233 10.8488 7.60578V9.585H0.976071V7.60578Z" fill="#C2C2C2"/>
</svg>
