<svg width="16" height="17" viewBox="0 0 16 17" fill="none" xmlns="http://www.w3.org/2000/svg">
<path fill-rule="evenodd" clip-rule="evenodd" d="M14.5 8.5C14.5 12.0899 11.5899 15 8 15C4.41015 15 1.5 12.0899 1.5 8.5C1.5 4.91015 4.41015 2 8 2C11.5899 2 14.5 4.91015 14.5 8.5ZM16 8.5C16 12.9183 12.4183 16.5 8 16.5C3.58172 16.5 0 12.9183 0 8.5C0 4.08172 3.58172 0.5 8 0.5C12.4183 0.5 16 4.08172 16 8.5ZM5.19687 5.20919V9.79074V12.2998H6.39687V9.30922C6.92354 9.23013 7.5679 9.30123 8.21226 9.79074C9.71995 10.9361 10.7969 9.79074 10.7969 9.79074V5.20919C10.7969 5.20919 10.2915 5.65736 9.59687 5.71294C9.18065 5.74625 8.69646 5.63861 8.21226 5.20919C7.17755 4.29153 5.86669 4.84335 5.38521 5.0998H5.19687V5.20919ZM8.93818 8.83521C8.05623 8.1652 7.14832 8.02509 6.39687 8.10058V5.97423C6.43121 5.96397 6.46634 5.9544 6.50207 5.94576C6.88158 5.85397 7.17336 5.89176 7.41603 6.10698C8.14644 6.75476 8.92086 6.94669 9.59687 6.91447V9.09839C9.46736 9.10906 9.25397 9.07512 8.93818 8.83521Z" fill="#3D62E4"/>
</svg>
