<svg width="14" height="14" viewBox="0 0 14 14" fill="none" xmlns="http://www.w3.org/2000/svg">
<circle cx="7" cy="7" r="6.5" fill="white" stroke="white"/>
<path d="M5.56425 5.97993L7.30985 4.04429C7.35782 3.99108 7.4338 3.98509 7.48808 4.03024L7.7206 4.22362C7.85279 4.33356 7.91236 4.52088 7.87158 4.69844L7.55705 6.06851H9.30256C9.60381 6.06851 9.84801 6.33931 9.84801 6.67335V7.30975C9.84801 7.38877 9.83405 7.46701 9.80694 7.54004L8.96301 9.81271C8.92093 9.92603 8.82133 10 8.71082 10H5.7571C5.60648 10 5.48438 9.86461 5.48438 9.69758V6.19378C5.48438 6.11357 5.51311 6.03665 5.56425 5.97993Z" fill="#3D62E4"/>
<path d="M5.23935 6.37012H4.42116C4.27054 6.37012 4.14844 6.50552 4.14844 6.67254V9.69677C4.14844 9.86379 4.27054 9.99919 4.42116 9.99919H5.23935V6.37012Z" fill="#3D62E4"/>
</svg>
