<svg width="22" height="22" viewBox="0 0 22 22" fill="none" xmlns="http://www.w3.org/2000/svg">
<path fill-rule="evenodd" clip-rule="evenodd" d="M11 22C17.0751 22 22 17.0751 22 11C22 4.92487 17.0751 0 11 0C4.92487 0 0 4.92487 0 11C0 17.0751 4.92487 22 11 22ZM9.83591 11.5552C9.72738 11.9204 9.67312 12.3991 9.67312 12.9913V13.1541H11.7196V12.9913C11.7196 12.6507 11.7636 12.362 11.8514 12.1252C11.9444 11.8883 12.0814 11.681 12.2623 11.5034C12.4431 11.3257 12.686 11.1505 12.9909 10.9778C13.5336 10.6669 13.947 10.3066 14.2313 9.89704C14.5207 9.4825 14.6654 8.98407 14.6654 8.40175C14.6654 7.80462 14.5077 7.28892 14.1925 6.85464C13.8824 6.41543 13.4483 6.07986 12.8902 5.84791C12.3372 5.61597 11.699 5.5 10.9754 5.5C10.2984 5.5 9.68604 5.61597 9.13823 5.84791C8.5956 6.07492 8.16149 6.42037 7.83591 6.88425C7.51033 7.3432 7.34237 7.90825 7.33203 8.57941H9.53358C9.54392 8.30305 9.61627 8.06617 9.75064 7.86878C9.885 7.66644 10.0581 7.51346 10.27 7.40982C10.4819 7.30619 10.7119 7.25191 10.9599 7.24697C11.2132 7.25191 11.4406 7.30619 11.6421 7.40982C11.8488 7.50852 12.0116 7.65164 12.1305 7.83917C12.2493 8.02176 12.3088 8.23396 12.3088 8.47577C12.3139 8.79161 12.2132 9.07044 12.0064 9.31225C11.7997 9.55406 11.5077 9.79341 11.1305 10.0303C10.7842 10.2376 10.5103 10.4522 10.3088 10.6743C10.1072 10.8914 9.9496 11.1851 9.83591 11.5552ZM9.60335 14.642C9.48965 14.8295 9.43539 15.0343 9.44056 15.2564C9.43539 15.4834 9.48965 15.6931 9.60335 15.8856C9.72221 16.0731 9.88242 16.2236 10.084 16.3371C10.2855 16.4457 10.5052 16.5 10.7429 16.5C10.9703 16.5 11.1822 16.4457 11.3785 16.3371C11.5749 16.2236 11.7325 16.0731 11.8514 15.8856C11.9703 15.6931 12.0297 15.4834 12.0297 15.2564C12.0297 15.0343 11.9703 14.8295 11.8514 14.642C11.7325 14.4495 11.5749 14.299 11.3785 14.1904C11.1822 14.0819 10.9703 14.0276 10.7429 14.0276C10.5052 14.0276 10.2855 14.0819 10.084 14.1904C9.88242 14.299 9.72221 14.4495 9.60335 14.642Z" fill="#3D62E4"/>
</svg>
