<svg width="40" height="40" viewBox="0 0 40 40" fill="none" xmlns="http://www.w3.org/2000/svg">
<g clip-path="url(#clip0_1141_8562)">
<path d="M37.9997 24.6042V18.3672C37.9997 17.4256 37.1614 16.6596 36.1308 16.6596H36.0825C35.7729 16.6596 35.4806 16.7287 35.2228 16.8511C35.0037 16.1308 34.2791 15.601 33.4223 15.601H33.3741C33.0484 15.601 32.7424 15.6777 32.4756 15.8115C32.2184 15.1495 31.526 14.6746 30.7139 14.6746H30.6656C30.3828 14.6746 30.1143 14.7322 29.8738 14.8356V11.2294C29.8738 10.2757 29.0247 9.5 27.981 9.5C26.9373 9.5 26.0883 10.2757 26.0883 11.2294V20.4285L25.8424 20.2038C25.425 19.8224 24.8707 19.6125 24.2807 19.6125C23.6906 19.6125 23.1357 19.8224 22.7189 20.2038L22.6457 20.2707C21.7848 21.0579 21.7848 22.3379 22.6457 23.1251L27.0665 27.1643C27.3076 27.439 27.5833 27.6784 27.884 27.8791C27.5071 28.1245 27.2618 28.5265 27.2618 28.9807V30.1476C27.2618 30.8945 27.9245 31.5 28.7419 31.5H36.5207C37.3382 31.5 38.0009 30.8945 38.0009 30.1476V28.9807C38.0009 28.2387 37.3471 27.637 36.5374 27.6289C37.4329 26.8934 38.0009 25.8103 38.0009 24.6042H37.9997ZM23.4072 22.4293C22.966 22.0262 22.966 21.3701 23.4072 20.967L23.4537 20.9246C23.6614 20.7342 23.9371 20.6096 24.2312 20.5982C24.5522 20.5857 24.8558 20.6939 25.0809 20.9001L26.2931 22.0077C26.6152 22.302 27.1653 22.0937 27.1653 21.6775V11.2294C27.1653 10.786 27.591 10.4319 28.0882 10.4901C28.4996 10.5385 28.7967 10.8763 28.7967 11.255V16.4034C28.7896 16.5949 28.9063 16.7722 29.0938 16.8582C29.4522 17.0219 29.8738 16.7836 29.8738 16.4175V16.3811C29.8738 15.9818 30.228 15.6576 30.6656 15.6576H30.7139C31.1509 15.6576 31.5057 15.9812 31.5057 16.3811V16.7994C31.5057 17.0801 31.7546 17.3075 32.0618 17.3075H32.1476C32.3709 17.3075 32.5638 17.1819 32.6596 16.998C32.787 16.7537 33.0597 16.5845 33.3747 16.5845H33.4229C33.8599 16.5845 34.2148 16.9082 34.2148 17.3081V17.8591C34.2148 18.1398 34.4637 18.3672 34.7709 18.3672H34.8566C35.0799 18.3672 35.2728 18.2416 35.3687 18.0577C35.4961 17.8134 35.7688 17.6443 36.0837 17.6443H36.132C36.569 17.6443 36.9238 17.9679 36.9238 18.3678V24.6048C36.9238 26.2727 35.5032 27.6294 33.7575 27.6294H30.3328C29.3861 27.6294 28.496 27.229 27.8917 26.5311L27.8721 26.5088L23.4072 22.4293ZM36.5201 28.6081C36.7452 28.6081 36.9286 28.7756 36.9286 28.9813V30.1482C36.9286 30.3538 36.7452 30.5213 36.5201 30.5213H28.7413C28.5163 30.5213 28.3329 30.3538 28.3329 30.1482V28.9813C28.3329 28.7756 28.5163 28.6081 28.7413 28.6081H30.1274C30.1953 28.6113 30.2638 28.613 30.3316 28.613H33.7563C33.8248 28.613 33.8927 28.6113 33.9606 28.6081H36.5201Z" fill="white"/>
</g>
<rect x="22.3125" y="18.6562" width="16.25" height="1.625" rx="0.8125" transform="rotate(180 22.3125 18.6562)" fill="url(#paint0_linear_1141_8562)"/>
<path d="M2.75 18.2768C2.41667 18.0843 2.41667 17.6032 2.75 17.4107L6.73437 15.1104C7.06771 14.9179 7.48438 15.1585 7.48438 15.5434L7.48438 20.1441C7.48438 20.529 7.06771 20.7696 6.73438 20.5771L2.75 18.2768Z" fill="white"/>
<rect width="16.25" height="1.625" rx="0.5" transform="matrix(1 0 0 -1 2.8125 12.9688)" fill="url(#paint1_linear_1141_8562)"/>
<path d="M22.375 12.5893C22.7083 12.3968 22.7083 11.9157 22.375 11.7232L18.3906 9.42286C18.0573 9.23041 17.6406 9.47097 17.6406 9.85587L17.6406 14.4566C17.6406 14.8415 18.0573 15.0821 18.3906 14.8896L22.375 12.5893Z" fill="white"/>
<defs>
<linearGradient id="paint0_linear_1141_8562" x1="22.3125" y1="19.4688" x2="38.5625" y2="19.4688" gradientUnits="userSpaceOnUse">
<stop stop-color="#9C9FAB" stop-opacity="0"/>
<stop offset="1" stop-color="white"/>
</linearGradient>
<linearGradient id="paint1_linear_1141_8562" x1="0" y1="0.8125" x2="16.25" y2="0.8125" gradientUnits="userSpaceOnUse">
<stop stop-color="#A6A9B3"/>
<stop offset="1" stop-color="white"/>
</linearGradient>
<clipPath id="clip0_1141_8562">
<rect width="16" height="22" fill="white" transform="translate(22 9.5)"/>
</clipPath>
</defs>
</svg>
