<svg width="48" height="48" viewBox="0 0 48 48" fill="none" xmlns="http://www.w3.org/2000/svg">
<rect width="48" height="48" rx="10" fill="#E6E6E6"/>
<rect x="12" y="12" width="24" height="24" fill="#E6E6E6"/>
<path d="M13.5 25.1196C13.5 23.5936 14.7371 22.3564 16.2632 22.3564C17.7892 22.3564 19.0263 23.5936 19.0263 25.1196V35.4993H13.5V25.1196Z" fill="white"/>
<path d="M21.2344 20.7387C21.2344 19.2127 22.4715 17.9756 23.9975 17.9756C25.5236 17.9756 26.7607 19.2127 26.7607 20.7387V35.4994H21.2344V20.7387Z" fill="white"/>
<path d="M28.9766 15.2632C28.9766 13.7371 30.2137 12.5 31.7397 12.5C33.2658 12.5 34.5029 13.7371 34.5029 15.2632V35.4999H28.9766V15.2632Z" fill="white"/>
</svg>
