<svg width="563" height="384" viewBox="0 0 563 384" fill="none" xmlns="http://www.w3.org/2000/svg">
<rect x="7" y="7" width="370" height="370" rx="185" stroke="url(#paint0_linear_610_6645)" stroke-width="14"/>
<path d="M346 192C346 277.605 276.611 347 191.018 347C105.424 347 36.0352 277.605 36.0352 192C36.0352 106.395 105.424 37 191.018 37C276.611 37 346 106.395 346 192Z" stroke="#EEF0F8" stroke-width="14"/>
<mask id="mask0_610_6645" style="mask-type:alpha" maskUnits="userSpaceOnUse" x="29" y="29" width="326" height="327">
<path d="M204.778 201.155L193.018 31L354 31.5008V355H30.0352V196.255L204.778 201.155Z" fill="#D9D9D9" stroke="white" stroke-width="2"/>
</mask>
<g mask="url(#mask0_610_6645)">
<path d="M346 192C346 277.605 276.611 347 191.018 347C105.424 347 36.0352 277.605 36.0352 192C36.0352 106.395 105.424 37 191.018 37C276.611 37 346 106.395 346 192Z" stroke="url(#paint1_linear_610_6645)" stroke-width="14"/>
</g>
<path d="M42.9985 195.953C42.9985 199.819 39.8648 202.953 35.9992 202.953C32.1337 202.953 29 199.819 29 195.953C29 192.087 32.1337 188.953 35.9992 188.953C39.8648 188.953 42.9985 192.087 42.9985 195.953Z" fill="#9CA3FF"/>
<ellipse cx="35.9995" cy="195.953" rx="4.99946" ry="5" fill="#EEF0F8"/>
<path d="M199 37C199 40.866 195.866 44 192 44C188.134 44 185 40.866 185 37C185 33.134 188.134 30 192 30C195.866 30 199 33.134 199 37Z" fill="#A5ABFF"/>
<circle cx="192" cy="37" r="5" fill="#EEF0F8"/>
<circle cx="193.035" cy="194" r="122" stroke="#EEF0F8" stroke-width="14"/>
<mask id="mask1_610_6645" style="mask-type:alpha" maskUnits="userSpaceOnUse" x="63" y="64" width="261" height="260">
<path d="M199.436 200.305V65H322.035V323H64.0352V200.305H199.436Z" fill="#F95E0B" stroke="#323232" stroke-width="2"/>
</mask>
<g mask="url(#mask1_610_6645)">
<circle cx="193.035" cy="194.188" r="122" stroke="url(#paint2_linear_610_6645)" stroke-width="14"/>
</g>
<circle cx="71.0352" cy="198.188" r="7" fill="#D1E560"/>
<circle cx="71.207" cy="198.188" r="5" fill="#EEF0F8"/>
<circle cx="199.035" cy="72.1875" r="7" fill="#DCEF6F"/>
<circle cx="199.207" cy="72.1875" r="5" fill="#EEF0F8"/>
<path d="M141.262 209V207.164L146.262 202.34C147.688 200.914 148.43 200.074 148.43 198.883C148.43 197.574 147.395 196.734 146.008 196.734C144.543 196.734 143.606 197.652 143.625 199.078H141.204C141.184 196.402 143.196 194.664 146.028 194.664C148.918 194.664 150.871 196.383 150.871 198.766C150.871 200.367 150.09 201.656 147.317 204.273L144.797 206.773V206.871H151.086V209H141.262ZM158.128 209.195C154.729 209.195 152.698 206.559 152.698 201.93C152.698 197.32 154.729 194.664 158.128 194.664C161.507 194.664 163.557 197.32 163.557 201.93C163.557 206.559 161.526 209.195 158.128 209.195ZM158.128 207.066C159.905 207.066 160.999 205.328 160.999 201.93C160.999 198.551 159.886 196.773 158.128 196.773C156.37 196.773 155.257 198.551 155.257 201.93C155.257 205.328 156.35 207.066 158.128 207.066ZM165.286 209V207.164L170.286 202.34C171.712 200.914 172.454 200.074 172.454 198.883C172.454 197.574 171.419 196.734 170.032 196.734C168.568 196.734 167.63 197.652 167.65 199.078H165.228C165.208 196.402 167.22 194.664 170.052 194.664C172.943 194.664 174.896 196.383 174.896 198.766C174.896 200.367 174.114 201.656 171.341 204.273L168.821 206.773V206.871H175.111V209H165.286ZM176.371 206.363V204.332L182.484 194.859H185.648V204.273H187.504V206.363H185.648V209H183.226V206.363H176.371ZM178.968 204.273H183.265V197.75H183.109L178.968 204.176V204.273ZM203.334 193.102V206.109H201.166V200.23H196.557V198.512H201.166V196.91H196.557V195.191H201.166V193.102H203.334ZM203.783 208.629V210.387H191.732V204.957H193.92V208.629H203.783ZM191.713 194.273V201.91C193.959 201.881 196.078 201.744 198.451 201.324L198.666 203.082C195.951 203.59 193.568 203.688 190.951 203.707H189.564V194.273H191.713ZM216.108 194.859V209H213.55V197.34H213.471L210.171 199.449V197.125L213.667 194.859H216.108ZM219.146 209V207.164L224.146 202.34C225.571 200.914 226.314 200.074 226.314 198.883C226.314 197.574 225.279 196.734 223.892 196.734C222.427 196.734 221.489 197.652 221.509 199.078H219.087C219.068 196.402 221.079 194.664 223.911 194.664C226.802 194.664 228.755 196.383 228.755 198.766C228.755 200.367 227.974 201.656 225.2 204.273L222.681 206.773V206.871H228.97V209H219.146ZM245.015 193.102V203.395H242.828V202.672H239.527V201.344H242.828V193.102H245.015ZM230.191 199.469C233.609 199.469 237.867 199.43 241.656 199.059L241.773 200.426C240.162 200.65 238.502 200.787 236.871 200.855V203.414H234.722V200.953C233.209 200.992 231.754 201.002 230.425 200.992L230.191 199.469ZM245.015 203.941V207.906H234.976V209.039H245.484V210.582H232.847V206.48H242.867V205.426H232.769V203.941H245.015ZM235.894 193.375C238.511 193.375 240.308 194.43 240.308 196.031C240.308 197.672 238.511 198.668 235.894 198.668C233.218 198.668 231.441 197.672 231.441 196.031C231.441 194.43 233.218 193.375 235.894 193.375ZM235.894 194.82C234.41 194.82 233.492 195.289 233.511 196.031C233.492 196.773 234.41 197.223 235.894 197.223C237.339 197.223 238.277 196.773 238.277 196.031C238.277 195.289 237.339 194.82 235.894 194.82Z" fill="#262626"/>
<g filter="url(#filter0_d_610_6645)">
<rect x="362" y="203" width="183" height="41" rx="8" fill="#293043"/>
</g>
<path d="M410.678 223.16H409.174V216.857H410.678V223.16ZM400.396 221.957C401.044 221.752 401.597 221.451 402.058 221.055C402.518 220.658 402.864 220.207 403.097 219.701C403.334 219.191 403.45 218.662 403.445 218.115V217.158H405.018V218.115C405.013 218.644 405.127 219.15 405.359 219.633C405.592 220.111 405.931 220.537 406.378 220.911C406.829 221.28 407.374 221.561 408.012 221.752L407.273 222.928C406.567 222.709 405.959 222.383 405.448 221.95C404.938 221.513 404.539 220.993 404.252 220.392C403.965 221.043 403.559 221.608 403.035 222.087C402.511 222.561 401.887 222.914 401.162 223.146L400.396 221.957ZM402.502 223.734H410.705V226.947H404.02V227.904H411.074V229.107H402.529V225.812H409.188V224.91H402.502V223.734ZM422.866 229.217H421.417V216.857H422.866V229.217ZM412.011 225.703C412.585 225.352 413.064 224.89 413.447 224.315C413.834 223.737 414.119 223.099 414.301 222.401C414.488 221.7 414.581 220.977 414.581 220.234V219.414H412.435V218.184H418.04V219.414H416.044V220.234C416.044 220.954 416.133 221.647 416.311 222.312C416.489 222.978 416.764 223.582 417.138 224.124C417.516 224.666 417.99 225.102 418.56 225.43L417.658 226.551C417.102 226.223 416.63 225.781 416.242 225.225C415.855 224.664 415.55 224.019 415.326 223.29C415.099 224.083 414.784 224.785 414.383 225.396C413.987 226.006 413.506 226.487 412.941 226.838L412.011 225.703ZM417.138 221.164H418.915V217.09H420.351V228.615H418.915V222.395H417.138V221.164ZM438.33 223.324H433.463V224.227H436.949V227.125H429.922V227.973H437.291V229.107H428.431V226.086H435.459V225.32H428.418V224.227H431.959V223.324H427.119V222.203H438.33V223.324ZM427.611 220.658C428.409 220.617 429.101 220.524 429.689 220.378C430.282 220.228 430.756 220.036 431.111 219.804C431.467 219.567 431.697 219.3 431.802 219.004H428.199V217.869H431.959V216.83H433.463V217.869H437.25V219.004H433.62C433.72 219.3 433.946 219.567 434.297 219.804C434.652 220.036 435.126 220.228 435.719 220.378C436.316 220.524 437.017 220.617 437.824 220.658L437.373 221.793C436.256 221.725 435.297 221.542 434.495 221.246C433.693 220.95 433.098 220.553 432.711 220.057C432.323 220.553 431.729 220.95 430.927 221.246C430.125 221.542 429.161 221.725 428.035 221.793L427.611 220.658ZM443.396 218.812C443.396 219.35 443.505 219.865 443.724 220.357C443.947 220.845 444.275 221.28 444.708 221.663C445.146 222.041 445.674 222.331 446.294 222.531L445.474 223.748C444.813 223.516 444.243 223.176 443.765 222.729C443.291 222.283 442.919 221.757 442.651 221.15C442.373 221.811 441.981 222.385 441.475 222.873C440.973 223.356 440.374 223.725 439.677 223.98L438.857 222.764C439.508 222.549 440.06 222.24 440.511 221.834C440.962 221.424 441.299 220.952 441.523 220.419C441.75 219.881 441.864 219.314 441.864 218.717V217.5H443.396V218.812ZM440.839 224.801H449.261V229.217H447.743V226.004H440.839V224.801ZM445.282 219.264H447.743V216.857H449.261V224.199H447.743V220.508H445.282V219.264ZM462.01 223.516H459.139V224.363H460.643V227.18H453.561V228.055H461.012V229.107H452.043V226.195H459.139V225.43H452.03V224.363H453.602V223.516H450.717V222.381H462.01V223.516ZM452.112 217.131H460.616V219.906H453.657V220.658H460.834V221.711H452.153V218.922H459.098V218.17H452.112V217.131ZM457.635 224.363V223.516H455.106V224.363H457.635Z" fill="white" fill-opacity="0.6"/>
<circle cx="381" cy="224" r="5" fill="#DCEF6F"/>
<path d="M491.572 230.176C490.734 230.176 489.979 230.021 489.305 229.71C488.637 229.399 488.106 228.969 487.714 228.418C487.321 227.867 487.113 227.246 487.09 226.555H489.322C489.346 226.889 489.46 227.19 489.665 227.46C489.87 227.729 490.14 227.943 490.474 228.102C490.808 228.254 491.174 228.33 491.572 228.33C492.041 228.33 492.46 228.225 492.829 228.014C493.204 227.797 493.494 227.504 493.699 227.135C493.91 226.766 494.016 226.35 494.016 225.887C494.016 225.406 493.907 224.976 493.69 224.595C493.474 224.214 493.172 223.918 492.785 223.707C492.398 223.496 491.959 223.391 491.467 223.391C490.465 223.391 489.773 223.754 489.393 224.48H487.266L488.039 217.273H495.562V219.189H489.92L489.533 222.564H489.656C489.908 222.277 490.254 222.046 490.693 221.87C491.133 221.694 491.607 221.604 492.117 221.598C492.896 221.598 493.6 221.779 494.227 222.143C494.854 222.506 495.343 223.01 495.694 223.654C496.052 224.293 496.23 225.014 496.23 225.816C496.23 226.654 496.034 227.404 495.642 228.066C495.249 228.729 494.698 229.247 493.989 229.622C493.28 229.991 492.475 230.176 491.572 230.176ZM502.322 230.176C501.484 230.176 500.728 230.021 500.054 229.71C499.386 229.399 498.856 228.969 498.463 228.418C498.071 227.867 497.863 227.246 497.839 226.555H500.072C500.095 226.889 500.209 227.19 500.414 227.46C500.619 227.729 500.889 227.943 501.223 228.102C501.557 228.254 501.923 228.33 502.322 228.33C502.79 228.33 503.209 228.225 503.578 228.014C503.953 227.797 504.244 227.504 504.449 227.135C504.66 226.766 504.765 226.35 504.765 225.887C504.765 225.406 504.657 224.976 504.44 224.595C504.223 224.214 503.921 223.918 503.535 223.707C503.148 223.496 502.708 223.391 502.216 223.391C501.214 223.391 500.523 223.754 500.142 224.48H498.015L498.788 217.273H506.312V219.189H500.669L500.283 222.564H500.406C500.658 222.277 501.003 222.046 501.443 221.87C501.882 221.694 502.357 221.604 502.867 221.598C503.646 221.598 504.349 221.779 504.976 222.143C505.603 222.506 506.092 223.01 506.444 223.654C506.801 224.293 506.98 225.014 506.98 225.816C506.98 226.654 506.784 227.404 506.391 228.066C505.998 228.729 505.448 229.247 504.739 229.622C504.03 229.991 503.224 230.176 502.322 230.176ZM511.682 223.479C511.091 223.479 510.584 223.344 510.162 223.074C509.74 222.799 509.421 222.415 509.204 221.923C508.987 221.425 508.882 220.848 508.887 220.191C508.882 219.547 508.99 218.979 509.213 218.486C509.435 217.994 509.758 217.61 510.179 217.335C510.601 217.06 511.102 216.922 511.682 216.922C512.28 216.922 512.79 217.06 513.212 217.335C513.634 217.604 513.95 217.985 514.161 218.478C514.378 218.97 514.489 219.541 514.495 220.191C514.489 220.854 514.375 221.434 514.152 221.932C513.935 222.424 513.616 222.805 513.194 223.074C512.778 223.344 512.274 223.479 511.682 223.479ZM510.505 220.191C510.51 220.777 510.613 221.237 510.812 221.571C511.011 221.905 511.301 222.072 511.682 222.072C512.075 222.072 512.368 221.905 512.561 221.571C512.76 221.237 512.86 220.777 512.86 220.191C512.86 219.617 512.763 219.163 512.57 218.829C512.377 218.495 512.087 218.328 511.7 218.328C511.319 218.328 511.026 218.498 510.821 218.838C510.616 219.172 510.51 219.623 510.505 220.191ZM519.276 217.273H521.051L512.298 230H510.522L519.276 217.273ZM517.202 227.064C517.196 226.414 517.304 225.843 517.527 225.351C517.75 224.853 518.072 224.466 518.494 224.19C518.916 223.915 519.417 223.777 519.997 223.777C520.594 223.777 521.104 223.915 521.526 224.19C521.948 224.466 522.264 224.85 522.475 225.342C522.692 225.834 522.803 226.408 522.809 227.064C522.803 227.721 522.689 228.295 522.467 228.787C522.25 229.279 521.93 229.66 521.509 229.93C521.093 230.199 520.589 230.334 519.997 230.334C519.405 230.334 518.898 230.199 518.476 229.93C518.054 229.654 517.735 229.271 517.518 228.778C517.301 228.286 517.196 227.715 517.202 227.064ZM518.819 227.064C518.825 227.645 518.927 228.102 519.127 228.436C519.332 228.77 519.622 228.934 519.997 228.928C520.384 228.934 520.676 228.77 520.876 228.436C521.075 228.102 521.175 227.645 521.175 227.064C521.175 226.479 521.078 226.019 520.884 225.685C520.697 225.351 520.407 225.184 520.014 225.184C519.634 225.184 519.341 225.354 519.135 225.693C518.93 226.027 518.825 226.484 518.819 227.064Z" fill="white"/>
<defs>
<filter id="filter0_d_610_6645" x="344" y="185" width="219" height="77" filterUnits="userSpaceOnUse" color-interpolation-filters="sRGB">
<feFlood flood-opacity="0" result="BackgroundImageFix"/>
<feColorMatrix in="SourceAlpha" type="matrix" values="0 0 0 0 0 0 0 0 0 0 0 0 0 0 0 0 0 0 127 0" result="hardAlpha"/>
<feOffset/>
<feGaussianBlur stdDeviation="9"/>
<feComposite in2="hardAlpha" operator="out"/>
<feColorMatrix type="matrix" values="0 0 0 0 0 0 0 0 0 0 0 0 0 0 0 0 0 0 0.15 0"/>
<feBlend mode="normal" in2="BackgroundImageFix" result="effect1_dropShadow_610_6645"/>
<feBlend mode="normal" in="SourceGraphic" in2="effect1_dropShadow_610_6645" result="shape"/>
</filter>
<linearGradient id="paint0_linear_610_6645" x1="192" y1="0" x2="192" y2="384" gradientUnits="userSpaceOnUse">
<stop stop-color="#6A8BFF"/>
<stop offset="1" stop-color="#4B73FF"/>
</linearGradient>
<linearGradient id="paint1_linear_610_6645" x1="191.018" y1="30" x2="85.474" y2="307.992" gradientUnits="userSpaceOnUse">
<stop stop-color="#A5ABFF"/>
<stop offset="1" stop-color="#999FFF"/>
</linearGradient>
<linearGradient id="paint2_linear_610_6645" x1="193.035" y1="65.1875" x2="193.035" y2="323.188" gradientUnits="userSpaceOnUse">
<stop stop-color="#DCEF6F"/>
<stop offset="1" stop-color="#C7DB52"/>
</linearGradient>
</defs>
</svg>
