<svg width="20" height="20" viewBox="0 0 20 20" fill="none" xmlns="http://www.w3.org/2000/svg">
<path d="M7.5013 0.833008V2.49967H12.5013V0.833008H14.168V2.49967H17.5013C17.9616 2.49967 18.3346 2.87277 18.3346 3.33301V16.6663C18.3346 17.1266 17.9616 17.4997 17.5013 17.4997H2.5013C2.04107 17.4997 1.66797 17.1266 1.66797 16.6663V3.33301C1.66797 2.87277 2.04107 2.49967 2.5013 2.49967H5.83464V0.833008H7.5013ZM16.668 9.16634H3.33464V15.833H16.668V9.16634ZM5.83464 4.16634H3.33464V7.49967H16.668V4.16634H14.168V5.83301H12.5013V4.16634H7.5013V5.83301H5.83464V4.16634Z" fill="#3D62E4" stroke="white" stroke-width="0.3"/>
</svg>
